SplineFontDB: 3.0
FontName: Essays1743-BoldItalic
FullName: Essays 1743 Bold Italic
FamilyName: Essays1743
Weight: Bold
Copyright: Created by John Stracke with PfaEdit 1.0 (http://pfaedit.sf.net)
FontLog: "2010-03-17: Adding 6 arrows.  Want to add more.+AAoACgAA-2010-03-07: Adding a bunch of characters to round out some scripts (pointed out by Fedora's QA bot, which runs fc-query).+AAoACgAA-2010-03-02: A whole bunch of cleanups (prodded by +AAoA-Fedora's font sanity checker, and a couple of people whose OSes were rendering capital O as a solid circle).  Jumping version # to 1.1.+AAoACgAA-2006-01-09: Moved the dot of uni1E46 to the center (thanks to Nathan Hill).  Calling this 1.001.+AAoACgAA-2004-10-31: working on bold italic version.+AAoACgAA-2004-10-09: Added bunch of other Latin-derived chars.  Calling this 0.2; don't expect much change before 1.0.+AAoACgAA-2004-10-04: Finished Latin-1 and Latin Extended A (plus miscellaneous other chars).+AAoACgAA-2004-9-21: Finished the basic alphabet (Roman alphabet +--------------- +AH8A +--------------- +AMMAnwAA).+AAoACgAA-2004-6-7: Began." 
Version: 002.000
ItalicAngle: -10
UnderlinePosition: -100
UnderlineWidth: 50
Ascent: 759
Descent: 265
sfntRevision: 0x00020000
LayerCount: 2
Layer: 0 0 "Back"  1
Layer: 1 0 "Fore"  0
XUID: [1021 117 711671440 16274522]
FSType: 0
OS2Version: 0
OS2_WeightWidthSlopeOnly: 0
OS2_UseTypoMetrics: 0
CreationTime: 1168432697
ModificationTime: 1383422902
PfmFamily: 17
TTFWeight: 700
TTFWidth: 5
LineGap: 90
VLineGap: 0
Panose: 2 0 6 2 0 0 0 0 0 0
OS2TypoAscent: 0
OS2TypoAOffset: 1
OS2TypoDescent: 0
OS2TypoDOffset: 1
OS2TypoLinegap: 0
OS2WinAscent: 0
OS2WinAOffset: 1
OS2WinDescent: 0
OS2WinDOffset: 1
HheadAscent: 0
HheadAOffset: 1
HheadDescent: 0
HheadDOffset: 1
OS2Vendor: 'PfEd'
Lookup: 1 0 0 "'pnum' Proportional Numbers in Latin lookup 2"  {"'pnum' Proportional Numbers in Latin lookup 2-1"  } ['pnum' ('DFLT' <'dflt' > 'latn' <'dflt' > ) ]

StartChar: exclam
Encoding: 33 33 1
Width: 474
Flags: W
HStem: 14 159<153.671 232.985> 739 20G<426.971 452.971>
LayerCount: 2
Fore
SplineSet
292.971 243 m 0
 281.971 234 256.971 215 230.971 215 c 0
 220.971 215 210.971 218 200.971 226 c 1
 192.971 233 190.971 239 192.971 249 c 0
 213.971 350 224.971 354 244.971 414 c 0
 282.971 529 294.971 591 346.971 715 c 1
 348.971 718 350.971 721 354.971 724 c 0
 381.971 746 412.971 759 440.971 759 c 0
 464.971 759 487.971 750 504.971 729 c 1
 510.971 722 511.971 716 509.971 707 c 0
 466.971 584 448.971 543 399.971 440 c 0
 364.971 365 366.971 375 299.971 250 c 1
 297.971 247 295.971 245 292.971 243 c 0
119.971 29 m 0
 105.971 39 100.971 52 100.971 65 c 0
 100.971 78 105.971 91 109.971 100 c 0
 123.971 128 145.971 151 178.971 164 c 0
 191.971 168 208.971 173 225.971 173 c 0
 247.971 173 268.971 166 279.971 142 c 0
 283.971 134 285.971 125 285.971 117 c 0
 285.971 85 261.971 56 233.971 37 c 0
 212.971 23 189.971 14 166.971 14 c 0
 149.971 14 133.971 19 119.971 29 c 0
EndSplineSet
Validated: 1
EndChar

StartChar: numbersign
Encoding: 35 35 3
Width: 474
Flags: W
HStem: 333 191<290.969 365.563> 455 20G<397 406.5>
LayerCount: 2
Fore
SplineSet
105 106 m 1x80
 95 112 81 122 70 137 c 0
 62 148 59 158 59 168 c 0
 59 196 84 221 109 236 c 0
 126 247 138 253 145 256 c 1
 161 305 l 1
 146 317 151 314 140 329 c 0
 132 340 129 350 129 360 c 0
 129 388 154 413 179 428 c 0
 201 441 209 442 222 447 c 1
 226 454 226 467 276 506 c 0
 292 518 308 524 323 524 c 0x80
 345 524 364 511 374 487 c 0
 381 468 l 1
 387 474 394 475 400 475 c 0x40
 413 475 426 469 427 466 c 1
 430 470 441 485 468 506 c 0
 484 518 500 524 515 524 c 0
 537 524 556 511 566 487 c 0
 568 481 570 473 571 466 c 1
 580 463 595 453 611 431 c 0
 621 417 626 403 626 388 c 0
 626 365 614 342 589 324 c 0
 530 295 l 1
 530 279 527 266 525 257 c 1
 530 253 536 247 541 239 c 0
 551 225 556 211 556 196 c 0
 556 173 544 150 519 132 c 0
 481 104 464 104 460 103 c 1
 457 95 453 85 423 62 c 0
 404 47 379 34 355 34 c 0
 338 34 323 41 311 59 c 0
 297 91 l 1
 288 88 280 87 272 87 c 0
 267 87 262 87 258 89 c 1
 255 84 244 72 231 62 c 0
 212 47 187 34 163 34 c 0
 146 34 131 41 119 59 c 0
 106 79 105 90 105 98 c 0
 105 101 105 103 105 106 c 1x80
404 300 m 0
 404 326 404 326 379 333 c 1
 357 332 335 332 314 330 c 0
 301 329 296 324 291 312 c 0
 290 308 l 2
 284 284 277 266 276 247 c 0
 276 243 276 240 276 238 c 0
 276 222 281 221 302 216 c 0
 310 217 l 0
 331 219 348 222 364 224 c 0
 375 226 380 231 385 241 c 0
 404 300 l 0
EndSplineSet
Validated: 1
EndChar

StartChar: dollar
Encoding: 36 36 4
Width: 474
VWidth: 1080
Flags: W
HStem: 499 202<317.873 381.5>
VStem: 59 107<13.7015 68.3665> 120 150<384 470.09> 258 149<227.684 293.995> 313 115<598.372 692.657>
LayerCount: 2
Fore
SplineSet
319 690 m 1xa8
 319 693 342 701 367 701 c 0
 396 701 428 691 428 654 c 0
 428 653 428 652 428 651 c 1
 428 649 428 647 427 645 c 0
 414 600 412 614 406 590 c 0
 405 587 405 585 405 582 c 0
 405 553 462 568 464 522 c 0
 464 521 464 519 464 518 c 0
 464 485 452 465 418 425 c 0
 404 408 393 402 385 402 c 0
 359 402 360 472 352 480 c 0
 337 494 336 499 330 499 c 0
 328 499 325 498 321 497 c 0
 293 489 273 469 270 454 c 1xa8
 270 445 298 464 340 418 c 0
 364 390 407 366 407 302 c 0
 407 301 407 299 407 298 c 0
 405 245 383 199 337 156 c 0
 294 116 257 116 216 97 c 0
 190 84 172 42 166 15 c 1
 163 13 142 7 119 7 c 0
 98 7 76 12 59 27 c 1
 59 32 72 57 72 60 c 0
 72 63 80 84 89 97 c 1
 72 106 49 124 42 147 c 0
 39 159 37 170 37 181 c 0
 37 212 50 243 82 280 c 0
 99 299 111 306 121 306 c 0
 158 306 154 197 183 197 c 1
 211 200 241 225 253 255 c 0
 255 261 258 270 258 278 c 0xd0
 258 287 255 294 245 294 c 0
 242 294 239 293 235 292 c 0
 231 291 225 290 216 290 c 0
 186 290 133 302 123 358 c 0
 121 370 120 379 120 389 c 0
 120 412 126 431 139 462 c 0
 163 521 206 597 262 597 c 0
 268 597 274 596 281 594 c 0
 282 594 282 594 283 594 c 0
 301 594 313 660 313 671 c 0
 313 673 l 1
 317 678 323 685 319 690 c 1xa8
EndSplineSet
Validated: 1
EndChar

StartChar: ampersand
Encoding: 38 38 6
Width: 859
Flags: W
HStem: 0 158<315.68 562.5> 270 134<532.816 604.64> 386 165<266.051 343.994> 435 278<795.094 878.138> 438 86<757.393 795> 447 113<534.119 645.385> 456 20G<156 165.5> 606 143<274.045 376.754>
VStem: 69 143<240.631 370.447> 419 242<320.999 398.438> 677 108<252.219 414.412>
LayerCount: 2
Fore
SplineSet
401 617 m 0x83e0
 385 602 369 598 355 598 c 0
 334 598 316 606 306 606 c 0
 304 606 302 606 301 605 c 0
 276 589 264 576 264 564 c 0
 264 561 265 559 266 556 c 0
 267 552 273 551 281 551 c 0
 289 551 299 552 310 552 c 0
 336 552 367 547 382 515 c 0
 387 504 389 494 389 485 c 0
 389 453 365 427 344 408 c 0
 324 390 303 386 285 386 c 0
 268 386 255 389 247 389 c 0
 243 389 240 388 239 386 c 0xa1e0
 221 342 212 317 212 297 c 0
 212 273 224 256 244 225 c 0
 269 188 301 184 359 170 c 0
 394 162 420 158 446 158 c 0
 470 158 494 161 524 169 c 0
 583 185 615 195 645 237 c 0
 667 267 677 294 677 324 c 0
 677 341 674 359 668 380 c 0
 659 414 648 431 621 440 c 0
 607 445 593 447 582 447 c 0
 561 447 544 440 533 424 c 0
 529 418 530 410 537 404 c 0
 537 404 538 404 539 404 c 0
 547 404 577 423 606 423 c 0
 622 423 638 417 650 399 c 0
 658 387 661 376 661 365 c 0
 661 332 631 303 606 288 c 0
 585 276 561 270 538 270 c 0
 509 270 481 279 458 301 c 0
 430 328 419 360 419 392 c 0
 419 423 429 454 445 482 c 0
 474 534 524 543 569 554 c 0
 584 558 600 560 615 560 c 0xc4e0
 686 560 753 524 781 524 c 0x88e0
 790 524 795 527 795 537 c 0
 795 538 795 538 795 539 c 0
 794 547 733 536 722 586 c 0
 720 595 719 604 719 612 c 0
 719 653 740 692 785 706 c 0
 798 711 813 713 828 713 c 0
 880 713 934 684 942 628 c 0
 943 620 944 611 944 602 c 0
 944 556 928 499 880 458 c 0
 859 439 837 435 818 435 c 0x90e0
 801 435 785 438 774 438 c 0x88e0
 767 438 761 437 758 432 c 0
 757 431 757 430 757 429 c 0
 757 421 773 409 773 369 c 0
 774 331 785 295 785 257 c 0
 785 223 776 187 742 146 c 0
 701 96 671 39 589 23 c 0
 528 12 482 0 429 0 c 0
 394 0 356 6 309 17 c 0
 239 33 182 50 135 110 c 0
 96 162 69 215 69 274 c 0
 69 299 74 324 84 351 c 0
 125 461 149 476 163 476 c 0
 168 476 172 474 175 474 c 0
 177 474 178 474 179 476 c 1
 178 483 136 505 136 557 c 0
 137 624 158 677 225 714 c 0
 255 731 295 749 334 749 c 0
 361 749 387 741 409 718 c 0
 422 704 428 689 428 674 c 0
 428 652 416 631 401 617 c 0x83e0
EndSplineSet
Validated: 1
EndChar

StartChar: quotesingle
Encoding: 39 39 7
Width: 285
Flags: W
VStem: 76 315
LayerCount: 2
Fore
SplineSet
145 459 m 1
 132 468 113 505 113 543 c 0
 113 587 130 619 155 657 c 0
 178 691 200 733 252 748 c 0
 265 752 277 753 289 753 c 0
 334 753 367 728 383 688 c 0
 389 674 391 660 391 646 c 0
 391 604 368 565 345 526 c 0
 322 484 293 471 271 443 c 0
 231 394 248 228 106 224 c 1
 96 224 90 227 84 235 c 0
 78 244 76 255 76 267 c 0
 76 323 129 407 145 459 c 1
EndSplineSet
Validated: 1
EndChar

StartChar: parenleft
Encoding: 40 40 8
Width: 286
Flags: W
HStem: -265 21G<55 94>
VStem: 0 146<-193.809 47.0742> 9 168<-235.964 -118.725>
LayerCount: 2
Fore
SplineSet
177 -200 m 1xa0
 172 -238 117 -265 71 -265 c 0
 39 -265 12 -253 9 -224 c 0xa0
 4 -178 0 -154 0 -117 c 0
 0 -76 5 -34 16 20 c 0
 46 166 71 260 159 406 c 0
 232 526 294 603 409 692 c 0
 419 699 428 702 436 702 c 0
 458 702 474 680 474 657 c 0
 474 647 471 637 464 629 c 0
 353 496 322 461 260 345 c 0
 197 226 168 157 151 42 c 0
 148 19 146 2 146 -12 c 0xc0
 146 -61 162 -77 177 -200 c 1xa0
EndSplineSet
Validated: 1
EndChar

StartChar: asterisk
Encoding: 42 42 10
Width: 552
Flags: W
HStem: 400 130<114.829 219.109> 418 109<164.799 247.578> 432 128<534.615 619.781>
VStem: 305 121<625.17 720.062> 307 146<238.96 352.872> 317 105<612 680.919> 446 137<299.92 355.638>
LayerCount: 2
Fore
SplineSet
534 549 m 1x84
 547 552 568 560 588 560 c 0
 611 560 632 548 632 498 c 0
 632 495 632 493 632 490 c 0
 630 442 592 432 557 432 c 0
 534 432 513 436 503 437 c 1
 517 424 583 389 583 343 c 0
 583 327 574 309 551 291 c 0
 529 274 512 267 499 267 c 0
 451 267 451 352 446 356 c 1x26
 446 351 453 326 453 299 c 0
 453 263 440 223 380 223 c 0
 377 223 375 223 372 223 c 0
 320 226 307 249 307 278 c 0x28
 307 302 316 330 317 354 c 1
 292 332 292 252 246 252 c 0
 230 252 209 261 180 286 c 0
 158 305 149 322 149 336 c 0
 149 379 230 402 265 418 c 1
 263 418 261 418 258 418 c 0x44
 225 418 186 400 155 400 c 0
 128 400 108 414 104 467 c 0
 104 470 104 474 104 477 c 0
 104 522 130 530 164 530 c 0x84
 181 530 201 527 220 527 c 0x44
 230 527 239 528 248 530 c 1
 209 547 156 564 156 602 c 0
 156 615 162 630 177 648 c 0
 199 675 217 685 232 685 c 0
 266 685 287 634 317 612 c 1
 317 613 317 615 317 616 c 0x84
 317 632 305 659 305 682 c 0
 305 707 319 729 376 729 c 0
 377 729 377 729 378 729 c 0
 417 729 426 714 426 688 c 0x90
 426 671 422 649 422 624 c 0
 422 620 422 615 422 611 c 1
 450 634 459 697 501 697 c 0
 516 697 536 688 563 666 c 0
 589 645 598 628 598 614 c 0
 598 582 551 566 534 549 c 1x84
EndSplineSet
Validated: 1
EndChar

StartChar: plus
Encoding: 43 43 11
Width: 360
Flags: W
HStem: 89 344<163.354 265.294> 193 138<67.0051 137.906> 200 141<295.094 368.373>
VStem: 142 153<110.203 194 341.001 401.992>
LayerCount: 2
Fore
SplineSet
295 343 m 1x90
 297 342 300 341 302 341 c 0
 309 341 316 343 326 343 c 0
 339 343 354 339 370 317 c 1
 382 301 390 281 390 260 c 0
 390 245 386 230 376 216 c 0
 366 201 348 198 330 198 c 0
 317 198 305 200 296 200 c 0x30
 293 200 290 200 288 199 c 1
 288 192 292 175 292 157 c 0
 292 139 288 120 273 109 c 0
 257 97 237 89 216 89 c 0x90
 201 89 186 93 172 103 c 0
 138 126 140 179 138 193 c 1
 136 194 133 194 129 194 c 0
 124 194 117 193 109 193 c 0
 93 193 73 196 59 215 c 0
 50 228 46 242 46 256 c 0
 46 276 54 295 67 309 c 0
 84 329 129 327 142 331 c 1x50
 142 332 142 334 142 336 c 0
 142 342 142 349 142 357 c 0
 142 377 145 401 172 420 c 0
 185 429 199 433 212 433 c 0
 232 433 251 425 266 412 c 0
 266 412 295 373 295 343 c 1x90
EndSplineSet
Validated: 1
EndChar

StartChar: comma
Encoding: 44 44 12
Width: 283
Flags: W
HStem: 6 196<63.4568 129.134>
VStem: 26 262<36.8659 163.884>
LayerCount: 2
Fore
SplineSet
-5 -102 m 0
 41 -36 73 -34 106 -8 c 0
 123 5 128 5 130 11 c 1
 129 11 117 6 103 6 c 0
 88 6 68 11 53 30 c 0
 35 51 26 75 26 100 c 0
 26 115 30 131 37 146 c 0
 54 184 88 195 116 202 c 0
 135 207 159 215 183 215 c 0
 205 215 226 209 246 190 c 0
 278 158 288 123 288 86 c 0
 288 47 276 8 264 -28 c 0
 245 -80 210 -102 175 -129 c 0
 159 -141 142 -153 116 -158 c 0
 116 -158 92 -161 65 -161 c 0
 28 -161 -15 -155 -15 -129 c 0
 -15 -121 -12 -113 -5 -102 c 0
EndSplineSet
Validated: 1
EndChar

StartChar: hyphen
Encoding: 45 45 13
Width: 364
Flags: W
HStem: 146 179<89.3132 239.013> 150 186<172.125 352.649>
VStem: 46 344<187.76 292.433>
LayerCount: 2
Fore
SplineSet
60 197 m 0xa0
 50 210 46 224 46 238 c 0
 46 258 54 276 67 291 c 0
 95 322 127 325 156 325 c 0
 163 325 169 325 175 325 c 0xa0
 184 325 192 325 199 326 c 0
 220 330 240 336 266 336 c 0
 272 336 279 336 287 335 c 0
 312 332 346 331 370 298 c 0
 382 282 390 262 390 241 c 0
 390 226 386 211 377 197 c 0
 341 144 283 152 240 150 c 0x60
 219 149 195 146 171 146 c 0
 131 146 90 155 60 197 c 0xa0
EndSplineSet
Validated: 1
EndChar

StartChar: period
Encoding: 46 46 14
Width: 277
VWidth: 1080
Flags: W
HStem: 8 248<91.2845 212.931>
VStem: 42 224<54.0083 195.175>
LayerCount: 2
Fore
SplineSet
105 14 m 0
 79 21 65 42 57 60 c 0
 48 82 42 105 42 127 c 0
 42 148 47 170 58 192 c 0
 76 226 105 256 152 256 c 0
 199 256 229 225 246 192 c 0
 257 170 266 144 266 119 c 0
 266 96 259 74 243 53 c 0
 218 21 184 8 149 8 c 0
 134 8 119 10 105 14 c 0
EndSplineSet
Validated: 1
EndChar

StartChar: slash
Encoding: 47 47 15
Width: 474
VWidth: 1080
Flags: W
HStem: 11 135<54.0662 110.672 112.258 173.677> 627 124<844.145 898.287> 627 98<846.356 914.841>
LayerCount: 2
Fore
SplineSet
157 146 m 1xc0
 339 319 387 364 529 485 c 0
 680 613 636 601 694 656 c 1
 683 664 671 679 670 686 c 0
 669 688 669 691 669 693 c 0
 669 718 689 735 706 743 c 1
 710 745 737 751 741 751 c 0
 765 753 780 754 789 754 c 0
 809 754 808 751 821 751 c 0xc0
 844 751 857 744 910 725 c 1xa0
 916 723 920 720 923 715 c 0
 928 707 930 698 930 689 c 0
 930 668 918 648 900 636 c 0
 891 630 881 627 872 627 c 0
 856 627 847 631 844 632 c 1
 703 512 825 613 594 385 c 0
 476 269 454 255 344 133 c 1
 344 132 343 130 342 128 c 1
 354 127 369 120 373 102 c 0
 374 99 374 96 374 93 c 0
 374 52 326 37 315 25 c 1
 309 20 304 17 296 17 c 0
 229 17 201 11 158 11 c 0
 136 11 112 13 78 17 c 1
 70 19 65 22 61 28 c 0
 58 32 23 47 23 83 c 0
 23 87 24 92 25 96 c 0
 33 131 67 144 89 152 c 0
 97 155 104 156 111 156 c 0
 138 156 155 146 157 146 c 1xc0
EndSplineSet
Validated: 1
EndChar

StartChar: zero
Encoding: 48 48 16
Width: 580
Flags: W
HStem: -5 141<199.198 333.832> 414 136<293.927 439.384>
VStem: 38 134<163.012 285.551> 457 177<262.142 395.72>
LayerCount: 2
Fore
SplineSet
312 148 m 0
 366 172 398 196 430 245 c 0
 450 276 457 297 457 322 c 0
 457 332 456 342 454 354 c 0
 450 382 446 392 424 401 c 0
 406 409 389 414 371 414 c 0
 352 414 331 409 304 397 c 0
 259 377 236 352 207 307 c 0
 183 270 172 246 172 220 c 0
 172 213 173 207 174 200 c 0
 181 166 196 154 239 141 c 0
 249 138 258 136 267 136 c 0
 280 136 293 140 312 148 c 0
133 36 m 0
 86 69 41 112 38 191 c 0
 38 194 38 196 38 199 c 0
 38 276 65 343 129 415 c 0
 178 472 225 507 294 531 c 0
 333 544 366 550 397 550 c 0
 432 550 465 543 499 531 c 0
 559 510 612 486 628 414 c 0
 632 396 634 379 634 361 c 0
 634 300 609 242 564 178 c 0
 511 101 454 48 365 16 c 0
 325 2 290 -5 257 -5 c 0
 213 -5 173 8 133 36 c 0
EndSplineSet
Validated: 1
Substitution2: "'pnum' Proportional Numbers in Latin lookup 2-1" uniE010
EndChar

StartChar: one
Encoding: 49 49 17
Width: 580
Flags: W
HStem: 0 133<139.372 195.996>
VStem: 265 307<432.774 515.936>
LayerCount: 2
Fore
SplineSet
196 125 m 1
 241 243 272 293 299 402 c 1
 298 412 275 402 268 424 c 0
 266 432 265 440 265 449 c 0
 265 489 289 531 325 552 c 1
 329 554 333 555 337 555 c 0
 368 556 386 556 412 556 c 0
 437 556 471 556 535 555 c 1
 544 555 549 552 554 546 c 0
 567 531 572 515 572 498 c 0
 572 469 557 439 536 415 c 0
 507 380 507 403 506 405 c 1
 464 282 449 245 443 220 c 0
 439 200 430 185 410 128 c 1
 412 124 415 117 419 108 c 0
 422 101 426 83 426 64 c 0
 426 34 416 1 380 0 c 1
 136 0 l 1
 110 0 101 12 101 29 c 0
 101 59 129 102 145 117 c 0
 159 130 171 133 179 133 c 0
 190 133 196 127 196 125 c 1
EndSplineSet
Validated: 1
Substitution2: "'pnum' Proportional Numbers in Latin lookup 2-1" uniE011
EndChar

StartChar: two
Encoding: 50 50 18
Width: 580
Flags: W
HStem: 411 135<395.024 515.5>
VStem: 420 183<372.703 458>
LayerCount: 2
Fore
SplineSet
402 145 m 1
 400 150 399 155 399 159 c 0
 399 172 408 182 420 190 c 1
 422 191 424 192 426 193 c 0
 451 202 471 207 490 207 c 0
 510 207 527 201 545 185 c 1
 551 178 554 173 554 167 c 0
 554 163 553 158 550 153 c 0
 486 44 508 82 422 6 c 1
 417 2 412 0 406 0 c 0
 288 -6 255 -8 236 -8 c 0
 212 -8 210 -5 89 -3 c 0
 67 -3 59 8 59 21 c 0
 59 43 78 73 87 82 c 0
 219 216 282 216 384 332 c 0
 410 361 420 384 420 398 c 0
 420 401 419 404 418 406 c 0
 416 409 412 411 403 411 c 0
 394 411 380 409 361 403 c 0
 314 389 312 364 235 313 c 1
 225 310 218 308 213 308 c 0
 205 308 201 314 196 329 c 0
 192 340 191 350 191 359 c 0
 191 391 211 409 227 424 c 0
 295 488 320 504 382 522 c 0
 418 533 460 546 498 546 c 0
 533 546 564 536 586 503 c 0
 598 486 603 467 603 449 c 0
 603 403 572 355 544 311 c 0
 490 227 426 213 372 160 c 1
 363 146 l 1
 363 146 377 145 391 145 c 0
 395 145 399 145 402 145 c 1
EndSplineSet
Validated: 1
Substitution2: "'pnum' Proportional Numbers in Latin lookup 2-1" uniE012
EndChar

StartChar: three
Encoding: 51 51 19
Width: 580
Flags: W
HStem: -265 196<53.3839 193.765>
LayerCount: 2
Fore
SplineSet
474 237 m 1
 484 233 495 226 502 217 c 0
 519 197 525 175 525 153 c 0
 525 134 521 115 517 97 c 0
 502 22 480 -32 425 -102 c 0
 382 -158 344 -186 276 -216 c 0
 226 -238 163 -265 109 -265 c 0
 74 -265 43 -253 21 -222 c 0
 11 -208 6 -192 6 -175 c 0
 6 -134 34 -104 72 -76 c 1
 76 -73 80 -72 85 -71 c 0
 104 -69 115 -69 123 -69 c 0
 140 -69 138 -72 157 -72 c 0
 162 -72 168 -71 176 -71 c 1
 183 -71 189 -73 194 -78 c 0
 205 -88 209 -101 209 -111 c 0
 209 -115 208 -119 207 -122 c 1
 214 -120 222 -117 232 -111 c 0
 285 -78 307 -44 334 11 c 0
 346 36 350 51 350 60 c 0
 350 64 350 68 348 70 c 0
 343 76 336 79 321 79 c 0
 312 79 301 78 287 77 c 1
 261 75 250 48 175 41 c 1
 167 41 162 42 156 48 c 0
 144 59 139 71 139 84 c 0
 139 116 169 150 186 171 c 1
 187 173 189 174 190 176 c 0
 306 267 312 258 411 338 c 0
 421 345 420 355 412 366 c 0
 410 368 408 370 401 370 c 0
 396 370 389 369 379 366 c 0
 338 355 324 302 248 276 c 0
 241 274 235 273 230 273 c 0
 215 273 209 284 209 299 c 0
 209 324 224 359 229 367 c 0
 272 438 325 486 392 518 c 0
 464 552 447 543 488 549 c 0
 496 550 505 551 515 551 c 0
 542 551 572 544 599 516 c 0
 616 499 622 481 622 463 c 0
 622 423 591 381 571 345 c 0
 531 275 498 253 474 237 c 1
EndSplineSet
Validated: 1
Substitution2: "'pnum' Proportional Numbers in Latin lookup 2-1" uniE013
EndChar

StartChar: four
Encoding: 52 52 20
Width: 580
Flags: W
HStem: -9 167<407.51 513.838> 506 20G<490.5 503.5>
LayerCount: 2
Fore
SplineSet
271 166 m 0
 271 166 277 183 301 247 c 1
 300 249 300 250 300 251 c 1
 197 147 l 1
 188 136 187 136 200 135 c 1
 206 135 223 137 261 139 c 1
 266 151 270 163 271 166 c 0
407 138 m 1
 418 138 421 158 521 158 c 0
 537 158 556 157 578 156 c 1
 590 154 596 151 599 139 c 0
 601 133 602 126 602 120 c 0
 602 74 549 32 508 10 c 1
 482 -4 463 -9 447 -9 c 0
 417 -9 397 8 361 8 c 0
 359 8 357 8 355 8 c 1
 310 -115 331 -78 285 -186 c 1
 284 -190 282 -193 278 -196 c 0
 255 -214 228 -227 203 -227 c 0
 183 -227 165 -219 150 -201 c 1
 144 -193 143 -187 146 -178 c 0
 198 -23 206 -17 215 15 c 1
 213 15 212 15 210 15 c 0
 184 15 172 0 127 0 c 0
 105 0 75 2 32 14 c 1
 13 19 6 30 6 44 c 0
 6 66 22 92 28 101 c 1
 29 102 30 103 31 104 c 0
 307 385 207 303 462 516 c 1
 464 518 466 520 469 521 c 0
 476 524 486 526 495 526 c 0
 512 526 530 519 538 499 c 1
 541 494 541 489 540 484 c 0
 491 300 479 303 407 138 c 1
EndSplineSet
Validated: 1
Substitution2: "'pnum' Proportional Numbers in Latin lookup 2-1" uniE014
EndChar

StartChar: five
Encoding: 53 53 21
Width: 580
Flags: W
HStem: -263 144<88 191.472> 103 102<281.44 402.5> 103 94<281.562 325.95> 314 226<397.72 474.047>
VStem: 333 184<16.4828 110.5>
LayerCount: 2
Fore
SplineSet
119 -119 m 1xd8
 164 -117 204 -121 251 -79 c 0
 305 -31 333 22 333 64 c 0
 333 76 331 88 326 98 c 0
 325 101 320 103 311 103 c 0xd8
 301 103 286 101 265 97 c 0
 222 87 189 29 121 22 c 0
 119 22 116 22 113 22 c 0
 98 22 73 26 71 55 c 1
 71 60 72 65 74 69 c 0
 264 392 226 343 406 531 c 1
 409 535 413 537 417 538 c 0
 423 540 429 540 435 540 c 0
 484 540 487 476 489 474 c 0
 499 463 504 467 514 473 c 0
 532 483 520 532 575 564 c 0
 584 569 594 571 603 571 c 0
 613 571 623 568 629 565 c 1
 664 547 691 522 691 477 c 0
 691 472 691 467 690 461 c 1
 682 396 600 319 598 318 c 1
 594 313 586 310 580 311 c 0
 535 314 511 315 495 315 c 0
 477 315 472 314 461 314 c 0
 451 314 437 315 405 319 c 1
 397 320 392 323 387 330 c 0
 386 332 386 336 386 342 c 0
 386 349 386 358 388 366 c 1
 304 227 365 322 281 193 c 1
 293 195 305 197 308 197 c 0xb8
 338 199 365 205 394 205 c 0
 411 205 429 202 449 196 c 0
 474 187 511 174 516 130 c 0
 517 122 517 114 517 107 c 0
 517 36 477 -25 421 -88 c 0
 346 -173 273 -214 172 -248 c 0
 144 -258 120 -263 97 -263 c 0
 79 -263 61 -260 42 -255 c 0
 2 -243 -44 -229 -54 -174 c 0
 -55 -169 -56 -163 -56 -158 c 0
 -56 -135 -46 -114 -27 -95 c 0
 -4 -72 26 -55 58 -55 c 0
 62 -55 67 -55 72 -56 c 0
 125 -66 114 -119 119 -119 c 1xd8
EndSplineSet
Validated: 1
Substitution2: "'pnum' Proportional Numbers in Latin lookup 2-1" uniE015
EndChar

StartChar: six
Encoding: 54 54 22
Width: 580
Flags: W
HStem: -12 122<197.064 331.614> 383 110<353.484 432.265> 607 161<500.813 560.172>
VStem: 27 157<119.966 258.824> 444 164<249.576 370.149>
LayerCount: 2
Fore
SplineSet
429 368 m 0
 416 378 401 383 381 383 c 0
 360 383 335 377 305 363 c 0
 261 344 239 319 216 278 c 0
 195 239 184 209 184 182 c 0
 184 165 188 149 197 132 c 0
 203 119 210 114 242 111 c 0
 251 110 260 110 268 110 c 0
 289 110 306 114 329 130 c 0
 393 173 414 218 433 284 c 0
 440 307 444 324 444 336 c 0
 444 351 439 360 429 368 c 0
353 477 m 1
 366 486 378 493 411 493 c 0
 424 493 440 492 461 489 c 0
 524 482 574 462 594 401 c 0
 603 375 608 348 608 322 c 0
 608 264 584 204 531 140 c 0
 494 95 460 72 411 42 c 0
 375 20 347 8 306 0 c 0
 272 -6 242 -12 212 -12 c 0
 183 -12 155 -6 126 8 c 0
 71 36 27 72 27 142 c 0
 27 148 27 155 28 163 c 0
 40 267 57 345 128 454 c 0
 185 542 239 596 333 657 c 0
 435 723 517 768 629 768 c 0
 661 768 692 768 707 723 c 1
 710 709 709 701 697 694 c 0
 600 634 581 646 521 607 c 0
 446 558 407 538 353 477 c 1
EndSplineSet
Validated: 1
Substitution2: "'pnum' Proportional Numbers in Latin lookup 2-1" uniE016
EndChar

StartChar: seven
Encoding: 55 55 23
Width: 580
Flags: W
HStem: 489 21G<185.5 202.5> 573 206<311.487 406.759>
LayerCount: 2
Fore
SplineSet
431 737 m 1
 704 737 l 1
 724 727 735 724 735 717 c 0
 735 713 731 706 723 696 c 0
 431 323 452 389 170 21 c 1
 169 19 167 17 165 16 c 0
 149 4 124 -30 86 -34 c 0
 21 -41 64 -43 -3 -43 c 1
 -23 -34 -33 -32 -33 -24 c 0
 -33 -19 -30 -13 -24 -4 c 0
 154 272 144 206 242 337 c 1
 327 449 374 471 407 560 c 1
 407 560 405 573 375 573 c 1
 320 573 324 556 213 492 c 1
 209 490 205 489 200 489 c 0
 171 489 132 500 132 543 c 0
 132 544 132 544 132 545 c 1
 132 549 133 553 135 556 c 0
 213 693 221 700 312 765 c 1
 313 766 314 767 315 767 c 0
 331 775 348 779 364 779 c 0
 383 779 400 773 414 759 c 0
 423 750 428 743 431 737 c 1
EndSplineSet
Validated: 1
Substitution2: "'pnum' Proportional Numbers in Latin lookup 2-1" uniE017
EndChar

StartChar: eight
Encoding: 56 56 24
Width: 580
Flags: W
HStem: 4 130<184.377 296.314> 623 135<355.036 497.5>
VStem: 53 128<140.958 220.87> 172 134<478.276 570.838> 356 180<202.762 284.264> 475 185<539.26 614.43>
LayerCount: 2
Fore
SplineSet
280 147 m 0xe8
 303 157 313 170 330 196 c 0
 348 223 356 239 356 255 c 0
 356 258 355 260 355 263 c 0
 354 274 352 277 332 285 c 0
 317 291 306 294 294 294 c 0
 283 294 271 292 255 285 c 0
 232 276 221 265 205 242 c 0
 188 217 181 202 181 183 c 0
 181 179 181 174 182 170 c 0
 183 154 185 149 198 143 c 0
 211 138 221 134 234 134 c 0
 246 134 261 138 280 147 c 0xe8
414 488 m 0
 429 495 434 503 448 521 c 0
 465 545 471 555 474 574 c 0
 474 579 475 583 475 586 c 0
 475 597 472 600 466 605 c 0
 452 616 441 623 423 623 c 0
 414 623 404 621 391 618 c 0
 365 611 349 599 329 574 c 0
 311 552 306 539 306 520 c 0
 306 518 306 516 306 514 c 0xd4
 306 491 308 488 320 482 c 0
 332 476 344 473 357 473 c 0
 373 473 390 478 414 488 c 0
453 386 m 1
 462 373 524 369 534 307 c 0
 535 299 536 292 536 284 c 0
 536 230 505 184 471 133 c 0
 446 95 423 61 373 37 c 0
 323 14 279 4 238 4 c 0
 199 4 163 13 127 27 c 0
 84 44 57 72 53 122 c 0
 53 126 53 130 53 134 c 0xe8
 53 193 82 240 123 295 c 0
 166 351 208 372 222 375 c 1
 209 381 174 406 172 472 c 0
 172 475 172 478 172 481 c 0
 172 552 196 616 259 681 c 0
 300 723 342 736 390 746 c 0
 423 754 452 758 479 758 c 0
 516 758 550 750 586 733 c 0
 626 714 653 687 659 638 c 0
 660 632 660 625 660 619 c 0
 660 579 644 544 618 506 c 0
 596 474 573 460 546 441 c 0
 508 415 494 400 453 386 c 1
EndSplineSet
Validated: 1
Substitution2: "'pnum' Proportional Numbers in Latin lookup 2-1" uniE018
EndChar

StartChar: nine
Encoding: 57 57 25
Width: 580
Flags: W
HStem: -265 21G<18.0246 59> -20 113<227 326.45> 362 138<339.476 464.897>
VStem: 89 146<102.259 235.194> 472 152<211.845 374.5>
LayerCount: 2
Fore
SplineSet
417 147 m 0
 458 201 472 241 472 290 c 0
 472 300 471 310 470 321 c 0
 468 338 466 343 450 350 c 0
 434 357 421 362 405 362 c 0
 391 362 376 358 356 350 c 0
 331 340 319 328 300 303 c 0
 255 241 235 199 235 145 c 2
 235 134 l 1
 237 116 240 109 259 101 c 0
 271 96 282 93 294 93 c 0
 311 93 330 98 357 108 c 0
 385 118 400 125 417 147 c 0
30 -265 m 0
 6.04922 -265 -5 -237.63 -5 -221 c 0
 -5 -209 0 -196 6 -185 c 0
 7 -182 44.0585 -157.109 46 -156 c 0
 102 -124 131.609 -115.5 185 -87 c 24
 241.244 -56.9766 307 -27 327 -6 c 1
 311 -9 295 -11 295 -11 c 2
 275 -15 255 -20 233 -20 c 0
 221 -20 209 -18 195 -14 c 0
 150 0 116 22 101 71 c 0
 93 97 89 122 89 147 c 0
 89 199 106 250 141 309 c 0
 187 386 242 439 327 473 c 0
 372 491 414 500 452 500 c 0
 498 500 539 487 577 459 c 0
 615 431 624 394 624 355 c 0
 624 340 622 325 621 310 c 0
 611 201 572 128 511 23 c 0
 462 -62 431 -81 352 -152 c 0
 277 -218 249 -211 159 -245 c 0
 110 -264 88 -265 30 -265 c 0
EndSplineSet
Validated: 1
Substitution2: "'pnum' Proportional Numbers in Latin lookup 2-1" uniE019
EndChar

StartChar: less
Encoding: 60 60 28
Width: 413
VWidth: 1080
Flags: W
HStem: 344 116<393.005 454.62>
LayerCount: 2
Fore
SplineSet
393 349 m 1
 384 345 261 284 209 252 c 1
 212 240 260 216 331 139 c 1
 335 136 337 132 338 128 c 0
 338 125 342 116 342 104 c 0
 342 90 337 74 319 62 c 1
 316 60 314 59 311 59 c 0
 257 44 238 47 195 44 c 0
 194 44 193 44 192 44 c 0
 134 44 134 119 99 146 c 0
 89 153 46 201 46 243 c 0
 46 261 54 277 75 289 c 0
 96 301 155 347 211 381 c 0
 255 407 281 443 352 455 c 0
 368 458 386 460 402 460 c 0
 430 460 456 454 470 431 c 1
 476 424 479 416 479 409 c 0
 479 386 455 366 444 357 c 1
 433 347 420 344 410 344 c 0
 400 344 393 347 393 349 c 1
EndSplineSet
Validated: 1
EndChar

StartChar: question
Encoding: 63 63 31
Width: 457
Flags: W
HStem: 4 191<92.1089 201.712> 497 20G<325.5 343>
VStem: 42 208<54.6724 147.811> 152 106<206.697 280.998> 270 248<606.399 705.712>
LayerCount: 2
Fore
SplineSet
246 203 m 0xd8
 234 196 222 193 212 193 c 0
 185 193 164 211 154 232 c 1
 152 236 152 235 152 240 c 0
 165 346 178 383 225 485 c 1
 228 492 233 496 240 499 c 0
 290 513 317 517 334 517 c 0
 352 517 360 513 374 513 c 0
 380 513 387 514 397 516 c 1
 404 521 412 532 411 543 c 0
 408 565 383 550 335 588 c 0
 335 588 270 597 270 652 c 1
 270 653 270 654 270 655 c 0
 278 703 299 735 341 753 c 1
 344 754 346 755 349 755 c 0
 359 756 369 756 377 756 c 0
 426 756 453 742 489 715 c 1
 493 711 496 707 498 702 c 0
 508 665 518 636 518 600 c 0
 518 584 516 567 512 548 c 0
 501 499 499 448 431 399 c 0
 369 355 336 374 308 347 c 1
 295 306 271 273 258 214 c 1
 256 207 253 207 246 203 c 0xd8
134 4 m 0
 131 4 128 4 125 4 c 0
 102 4 80 11 65 31 c 0
 53 47 42 68 42 91 c 0
 42 106 47 122 57 138 c 0
 81 175 119 189 155 194 c 0
 160 195 165 195 170 195 c 0
 201 195 230 184 243 152 c 0
 248 141 250 129 250 117 c 0xe8
 250 90 237 63 215 38 c 0
 190 12 160 5 134 4 c 0
EndSplineSet
Validated: 1
EndChar

StartChar: at
Encoding: 64 64 32
Width: 452
VWidth: 1000
Flags: W
HStem: 12 76<164.671 258.333> 251 61<244.024 274.233> 414 55<290.882 325.375> 576 93<329.283 435.623>
VStem: 54 91<102.54 295.301> 451 74<394.11 557.552>
LayerCount: 2
Fore
SplineSet
91 70 m 0
 59 102 54 137 54 177 c 0
 54 192 54 207 55 223 c 8
 57 306 77 353 115 427 c 24
 165 524 189 603 289 646 c 16
 323 661 356 669 389 669 c 0
 427 669 463 657 496 628 c 0
 520 606 525 581 525 551 c 0
 525 535 524 517 523 499 c 8
 516 363 487 284 418 166 c 24
 379 100 357 44 283 22 c 16
 261 16 240 12 220 12 c 0
 172 12 129 31 91 70 c 0
251 312 m 0
 252 311 254 311 255 311 c 0
 261 311 268 319 282 331 c 0
 302 347 310 360 322 385 c 0
 328 398 332 402 330 410 c 0
 329 414 329 414 328 414 c 0
 319 416 314 411 300 400 c 0
 285 388 280 378 268 358 c 0
 259 344 253 339 251 326 c 0
 250 314 250 312 251 312 c 0
371 357 m 1
 363 339 355 333 355 323 c 0
 355 322 355 321 355 320 c 0
 355 318 360 319 361 312 c 0
 361 312 362 312 363 312 c 0
 365 312 371 312 377 312 c 0
 383 312 390 311 394 308 c 1
 420 359 436 403 445 469 c 0
 448 486 451 502 451 516 c 0
 451 530 448 543 436 555 c 0
 421 569 404 576 386 576 c 0
 373 576 360 573 347 565 c 8
 284 528 254 492 219 427 c 24
 175 345 163 291 149 199 c 16
 147 184 145 169 145 156 c 0
 145 134 150 115 169 100 c 0
 179 92 191 88 203 88 c 0
 221 88 241 97 258 110 c 8
 311 151 322 194 362 248 c 16
 366 255 l 1
 357 253 345 251 334 251 c 0
 323 251 313 253 306 257 c 0
 296 264 294 275 293 283 c 1
 286 276 280 266 265 259 c 0
 257 256 249 255 242 255 c 0
 237 255 232 255 227 256 c 0
 216 258 201 260 191 275 c 0
 186 283 185 291 185 298 c 0
 185 308 187 318 189 326 c 0
 197 359 210 377 229 402 c 0
 246 425 262 439 286 455 c 0
 297 463 309 469 326 469 c 0
 327 469 329 469 330 469 c 0
 354 468 359 458 363 453 c 0
 365 451 369 470 385 468 c 0
 400 466 408 453 409 442 c 1
 409 441 409 440 409 439 c 0
 404 401 382 384 371 357 c 1
EndSplineSet
Validated: 1
EndChar

StartChar: uni007F
Encoding: 127 127 33
Width: 1597
VWidth: 1000
Flags: W
HStem: 10 53<242.559 516.222 1060.01 1317.41> 85 109<1112 1155.5> 149 31<1241.56 1288.51> 323 81<432.372 544.181> 341 64<412.85 512.628> 341 54<407.114 476.966> 354 77<245.527 285.009> 493 21G<1415 1424> 517 85<388 574.667> 570 55<1222.87 1363.42> 573 144<1107 1176> 725 68<397.643 567.85> 755 39<1162.14 1384.29>
VStem: 24 51<199.306 451.885> 319 61<430.423 501.905> 325 75<246.143 338.316> 722 89<293.375 454.167> 953 68<231.327 489.44> 1142 49<194.87 468.79> 1507 69<356.755 627.972>
LayerCount: 2
Fore
SplineSet
1451 530 m 0x8144f0
 1451 511 1431 493 1417 493 c 0
 1413 493 1409 494 1406 498 c 0
 1392 514 1380 515 1372 532 c 16
 1358 560 1355 570 1292 570 c 0
 1255 570 1221 562 1216 532 c 0
 1201 455 1191 372 1191 252 c 0
 1191 170 1193 170 1203 170 c 0
 1213 170 1227 176 1238 176 c 0
 1239 176 1240 176 1241 176 c 0
 1253 176 1261 180 1272 180 c 0
 1278 180 1296 177 1296 172 c 0
 1296 165 1268 155 1256 149 c 8xa144f0
 1237 139 1221 146 1202 135 c 24
 1178 121 1160 85 1151 85 c 0
 1144 85 1146 94 1118 114 c 2
 1083 138 l 10
 1055 158 1035 164 1008 185 c 16
 986 202 953 204 953 231 c 2
 953 231 953 295 956 336 c 24
 960 390 955 405 970 474 c 8
 980 521 1011 537 1045 571 c 24
 1078 604 1111 606 1141 642 c 24
 1161 666 1148 717 1168 717 c 0xc124f0
 1184 717 1179 697 1184 684 c 24
 1190 667 1182 652 1195 640 c 16
 1210 626 1225 624 1242 624 c 0
 1251 624 1260 625 1269 625 c 0
 1287 625 1308 621 1323 621 c 0
 1362 621 1358 634 1381 642 c 16
 1395 647 1406 658 1417 658 c 0
 1429 658 1436 651 1436 640 c 0
 1436 636 1435 632 1434 628 c 8
 1430 613 1407 620 1407 598 c 0
 1407 569 1451 556 1451 530 c 0x8144f0
447 10 m 2
 431 10 390 9 365 9 c 0
 324 9 287 12 238 24 c 8
 176 39 132 44 88 90 c 24
 45 135 42 178 31 240 c 16
 26 269 24 292 24 315 c 0
 24 413 50 504 120 583 c 24
 174 644 213 671 282 714 c 24
 385 779 461 793 506 793 c 0
 513 793 520 793 527 793 c 0x8114f0
 577 793 614 791 652 765 c 8
 703 730 710 686 736 630 c 24
 759 580 781 474 783 474 c 0
 785 474 864 620 938 676 c 8
 1022 740 1145 784 1216 790 c 16
 1244 792 1268 794 1290 794 c 0x810cf0
 1443 794 1502 713 1506 708 c 24
 1541 667 1554 638 1566 582 c 0
 1573 548 1576 520 1576 494 c 0
 1576 430 1558 379 1540 294 c 8
 1522 213 1483 175 1430 112 c 25
 1373 46 1338 23 1196 16 c 16
 1164 14 1135 13 1109 13 c 0
 924 13 844 98 818 123 c 16
 791 149 774 292 759 292 c 0
 754 292 736 241 728 231 c 2
 634 108 l 18
 601 66 557 10 473 10 c 2
 447 10 l 2
924 582 m 24
 888 538 811 462 811 359 c 0
 811 319 826 292 848 254 c 8
 885 190 917 156 980 118 c 24
 1036 84 1077 82 1142 70 c 16
 1169 65 1188 61 1211 61 c 0
 1333 61 1389 107 1424 168 c 24
 1463 235 1507 315 1507 511 c 0
 1507 567 1499 615 1466 672 c 8
 1446 707 1423 722 1386 736 c 16
 1350 749 1319 755 1288 755 c 0x810cf0
 1258 755 1228 750 1192 743 c 8
 1128 731 1094 712 1038 678 c 24
 988 648 961 627 924 582 c 24
222 93 m 24
 276 71 307 63 391 63 c 0
 552 63 622 151 660 201 c 24
 684 233 722 282 722 353 c 0
 722 392 709 421 698 464 c 8
 682 529 679 570 642 626 c 24
 615 668 594 694 548 712 c 16
 524 721 503 725 482 725 c 0x8114f0
 461 725 439 721 414 714 c 8
 328 691 286 654 218 596 c 24
 156 543 75 473 75 353 c 0
 75 218 103 181 126 150 c 24
 152 115 182 109 222 93 c 24
324 319 m 2
 324 349.672 310.324 367 286 367 c 0
 265 367 235 354 230 354 c 0
 226 354 222 356 219 360 c 8
 213 369 225 377 231 387 c 24
 253 422 257 428 286 431 c 24x8305f0
 293 432 299 426 305 430 c 16
 316 439 319 450 319 461 c 0
 319 475 315 489 315 505 c 0
 315 520 318 520 318 543 c 0
 318 551 317 560 317 568 c 0
 317 604 324 607 376 607 c 0
 393 607 402 606 424 606 c 0
 450 605 465 602 489 602 c 0
 556 602 560 615 592 633 c 8
 598 637 599 624 604 618 c 25
 608 611 616 607 614 598 c 24
 612 590 600 594 596 587 c 16
 594 583 593 580 593 577 c 0
 593 561 627 558 630 542 c 8
 632 532 623 527 616 520 c 24
 613 517 600 501 576 501 c 0
 547 501 554 517 493 517 c 0
 450 517 408 510 387 502 c 0
 382 500 380 496 380 492 c 0
 380 483 388 471 389 459 c 8
 392 404 393 395 412 395 c 0x8586f0
 430 395 456 405 478 405 c 0x8906f0
 485 405 485 404 496 404 c 0
 514 404 532 408 548 408 c 0
 581 408 583 386 583 383 c 0
 583 372 564 370 554 360 c 8
 542 348 540 323 513 323 c 0x9106f0
 506 323 439 341 432 341 c 0
 425 341 405 337 405 303 c 0
 405 297 405 291 405 285 c 0
 405 267 400 248 400 224 c 0
 400 195 409 181 409 176 c 0
 409 166 393 162 384 154 c 0
 372 144 366 132 353 132 c 2
 351 132 l 10
 333 132 328 149 314 160 c 24
 294 175 285 196 260 196 c 0
 242 196 208 174 194 159 c 25
 188 151 192 138 182 136 c 24
 173 135 173 147 167 152 c 24
 161 156 149 154 151 161 c 16
 159 193 173 208 199 225 c 24
 255 260 325 225 325 271 c 0x8905f0
 325 279 324 287 324 296 c 2
 324 319 l 2
1142 521 m 0
 1142 562 1133 573 1113 573 c 0
 1101 573 1094 564 1083 558 c 8
 1067 550 1047 551 1044 533 c 16
 1027 429 1030 329 1021 261 c 0
 1021 260 1021 259 1021 258 c 0
 1021 235 1050 230 1072 218 c 0
 1086 211 1106 194 1118 194 c 0xc124f0
 1136 194 1131 266 1135 355 c 24
 1138 411 1140 442 1141 498 c 16
 1141 510 1142 513 1142 521 c 0
EndSplineSet
Validated: 1
EndChar

StartChar: cent
Encoding: 162 162 35
Width: 362
VWidth: 1000
Flags: W
VStem: 86 103<285.133 376.163> 213 60<79.6355 137.522> 300 89<597.608 666.862>
LayerCount: 2
Fore
SplineSet
192 305 m 0
 192 288 223 280 239 278 c 1
 262 425 l 1
 248 409 216 393 203 361 c 0
 192 335 189 326 189 321 c 0
 189 316 192 314 192 305 c 0
234 72 m 0
 221.977 72 213 87.7436 213 104 c 0
 213 115 215 132 219 165 c 1
 218 165 217 165 216 165 c 0
 141 165 126 204 104 219 c 0
 88.0585 230.956 86 272.071 86 291 c 0
 86 355 116 400 116 400 c 1
 163 448 189 527 284 554 c 1
 300 633 l 2
 303 646 327 683 353 683 c 0
 366 683 378 674 389 649 c 0
 392 641 393 634 391 624 c 2
 378 552 l 1
 403.504 545.289 433 532.299 433 492 c 0
 433 463 416 433 377 425 c 1
 368 422 360 423 353 426 c 1
 322 291 l 1
 336.149 286.284 352 271.539 352 251 c 0
 352 225 324 203 293 185 c 1
 273 111 l 2
 271 104 253 72 234 72 c 0
EndSplineSet
Validated: 1
EndChar

StartChar: sterling
Encoding: 163 163 36
Width: 738
VWidth: 1080
Flags: W
HStem: 5 98<191.574 542.36> 22 119<55.843 178.289> 302 182<530.001 591.555> 455 20G<300 319.5> 525 21G<730 747> 603 154<518.623 624.307>
LayerCount: 2
Fore
SplineSet
279 300 m 1x4c
 260.167 302.216 165 319.911 165 376 c 0
 165 404 191 431 214 445 c 0
 257 470 289 475 311 475 c 0x5c
 328 475 339 472 346 472 c 1
 348 479 380 519 384 577 c 0
 384 583 357 598 357 630 c 0
 357 640 360 651 366 664 c 0
 399.657 732.778 473.246 757 564 757 c 0
 653 757 721 720 761 645 c 0
 765 638 770 614 770 589 c 0
 770 558 762 525 732 525 c 0
 728 525 724 526 719 527 c 0
 603 555 634 603 603 603 c 0
 582.804 603 571.77 590.502 561 573 c 1
 530 487 l 1
 530 484 531 485 539 484 c 1
 559 484 l 2
 589 484 629 482 649 444 c 0
 654 433 658 421 658 407 c 0
 658 384 647.934 360.092 624 343 c 0
 573.862 307.194 526 302 493 302 c 0
 480 302 469 303 462 303 c 1
 439 244 377 213 336 119 c 1
 371 109 398 103 429 103 c 0xac
 466 103 509 112 579 138 c 1
 592 172 581.161 203.907 618 268 c 0
 634.07 295.96 659 303 684 303 c 0
 707 303 729 297 741 297 c 0
 742 297 743 297 744 297 c 0
 766 294 773 293 773 276 c 2
 773 269 l 1
 759 155 750 147 690 23 c 1
 689 16 675 8 666 8 c 0
 664 8 661 9 660 10 c 0
 659 10 626 20 612 22 c 1x4c
 463 14 402 5 314 5 c 0x8c
 253 5 178 10 51 22 c 1
 42 24 36 27 32 35 c 0
 26 46 23 55 23 64 c 0
 23 86 42 104 69 133 c 0
 74 138 80 141 87 141 c 2
 109 141 l 2
 135 141 141 139 144 139 c 0
 148 139 148 141 160 149 c 0
 259 210 279 282 279 300 c 1x4c
EndSplineSet
Validated: 1
EndChar

StartChar: currency
Encoding: 164 164 37
Width: 574
VWidth: 1080
Flags: W
HStem: 15 75<263.426 318.085> 420 80<374.825 443.677>
VStem: 26 237<91.309 166.415> 170 95<190 257.044> 444 193<350.587 419.997>
LayerCount: 2
Fore
SplineSet
503 211 m 2xd8
 530.607 211 562 192.477 562 156 c 0
 562 124 531 101 525 91 c 0
 511 67 501 34 461 15 c 0
 443 7 427 4 412 4 c 0
 386 4 366 14 355 23 c 1
 344 19 326 15 306 15 c 0
 276 15 240 24 206 55 c 1
 182 37 160 23 130 9 c 0
 127 8 123 9 120 7 c 0
 119 7 107 0 92 0 c 0
 49.2059 0 26 57.255 26 93 c 0xe8
 26 154 69 214 120 214 c 0
 136.818 214 162.403 205.194 170 190 c 1
 172 244 188 281 212 328 c 2
 220 343 l 1
 206 334 189 322 168 322 c 0
 158 322 149 324 138 330 c 0
 119 340 112 355 112 371 c 0
 112 397 130 424 138 437 c 0
 167 484 215 485 266 498 c 0
 271 499 275 500 280 500 c 0
 301 500 320 489 334 483 c 1
 349 489 380 503 416 503 c 0
 442 503 470 496 496 476 c 1
 511 485 532 501 561 501 c 0
 605.224 501 632.227 470.799 637 435 c 1
 637 427 l 2
 637 377 588 283 554 283 c 0
 539.881 283 533.303 299.092 527 318 c 1
 522 279 513 245 499 211 c 1
 503 211 l 2xd8
444 409 m 0
 444 415.996 435.791 420 428 420 c 0
 423 420 415 418 405 414 c 0
 361 398 349 371 317 315 c 0
 280 252 268 216 265 144 c 0xd8
 264 130 263 118 263 109 c 0
 263 97 265 90 273 90 c 0
 279 90 288.988 94.0204 303 102 c 0
 339.969 123.054 346 149 376 203 c 0
 412 269 429.464 302.071 439 372 c 0
 442 394 444 404 444 409 c 0
EndSplineSet
Validated: 1
EndChar

StartChar: yen
Encoding: 165 165 38
Width: 595
VWidth: 1080
Flags: W
HStem: 11 98<92.8892 178.952> 16 102<375.317 423.195> 509 21G<170 187.5> 621 153<690.029 854.469> 740 20G<320 364.5>
LayerCount: 2
Fore
SplineSet
914 640 m 1x30
 914 625 883 578 823 578 c 0
 806 578 788.021 581.049 767 590 c 0
 741.026 601.06 729 621 720 621 c 0
 663 616 650 570 598 511 c 1
 586 496 l 1
 631 484 665 451 665 418 c 0
 665 403 659 389 645 376 c 0
 603 337 541 332 485 332 c 1
 473 312 l 1
 470 305 l 1
 501 302 535 295 561 272 c 0
 579 257 591 238 591 218 c 0
 591 204 584.956 190.047 571 177 c 0
 519.839 129.172 441 133 378 132 c 1
 376 128 375 123 374 118 c 1
 389 114 416 106 424 95 c 0
 430 86 432 77 432 69 c 0
 432 51 422 36 422 36 c 2
 418 24 413.993 18.0489 400 16 c 0x70
 339.969 7.2099 291 5 248 5 c 0
 196 5 152 9 108 11 c 0
 86 13 76 38 76 61 c 0
 76 77 81 92 92 97 c 0
 111 107 128 109 141 109 c 0
 157 109 168 106 174 106 c 0
 176 106 178 106 179 107 c 0
 184 116 189 125 193 133 c 1
 130 144 75 178 75 216 c 0
 75 232 85 249 107 265 c 0
 151 297 204 298 251 298 c 1
 261 334 l 1
 200 345 149 379 149 416 c 0
 149 432 159 449 181 465 c 0
 216 490 257 496 296 497 c 1
 300 522 301 533 301 543 c 2
 301 565 l 1
 264 576 l 1
 257 574 260 558 228 537 c 0
 220 531 203 509 172 509 c 0
 168 509 164 509 160 510 c 0
 122 518 112 556 110 559 c 0
 102 570 101 576 108 587 c 0
 185 695 185 672 206 695 c 2
 248 740 l 2
 256 748 296 760 344 760 c 0xa8
 385 760 430 751 464 723 c 0
 469 719 471 715 472 708 c 0
 478 655 481 615 483 583 c 1
 501 600 527 621 561 646 c 1
 680 747 l 2
 682 749 740 774 808 774 c 0
 834 774 861 770 888 761 c 0
 898 757 903 752 904 742 c 2
 914 640 l 1x30
EndSplineSet
Validated: 1
EndChar

StartChar: brokenbar
Encoding: 166 166 39
Width: 273
VWidth: 1080
Flags: W
HStem: 414 342<201 317>
VStem: 16 167<23.1278 115.554>
LayerCount: 2
Fore
SplineSet
265 310 m 0
 233 208 193 127 183 48 c 0
 178.826 15.0216 148 3 114 3 c 0
 68 3 16 25 16 54 c 0
 16 60 18 67 23 73 c 1
 112 326 l 1
 119 339 124 344 139 342 c 0
 145 342 151 341 158 341 c 0
 179 341 206 343 241 344 c 1
 260 338 268 337 268 326 c 0
 268 322 267 317 265 310 c 0
317 756 m 0
 362.642 756 382 726.948 382 682 c 0
 382 617 344 521 316 445 c 0
 310 431 309 430 246 420 c 0
 227 417 215 414 201 414 c 0
 194 414 187 415 179 417 c 0
 165 421 154 423 154 445 c 2
 154 450 l 1
 247 710 l 1
 247 715 l 2
 247 740 283 756 317 756 c 0
EndSplineSet
Validated: 1
EndChar

StartChar: section
Encoding: 167 167 40
Width: 451
Flags: W
HStem: -260 172<29.4824 162.581> 560 174<412.336 513.371>
VStem: 57 154<246.185 351.512> 192 146<-132.376 1.40491> 366 105<123.06 250>
LayerCount: 2
Fore
SplineSet
243 365 m 1xe8
 231 348 211 328 211 297 c 0
 211 284 215 268 226 250 c 1
 228 230 276 249 304 180 c 0
 308 170 309 162 309 154 c 0
 309 140 305 130 305 125 c 0
 305 123 306 122 308 122 c 2
 310 122 l 1
 328 105 341 96 348 87 c 1
 360 129 366 150 366 165 c 0
 366 185 354 191 334 220 c 1
 279 263 255 307 243 365 c 1xe8
-10 -174 m 0
 -10 -125.431 49.0596 -88 97 -88 c 0
 110 -88 123 -90 135 -93 c 0
 163 -100 168 -115 168 -126 c 0
 168 -133 166 -138 166 -139 c 1
 176 -138 175 -124 183 -93 c 0
 189 -68 192 -49 192 -32 c 0xd8
 192 -10 188 11 181 39 c 0
 163 117 170 145 109 190 c 0
 75 216 57 251 57 290 c 0xe8
 57 316 65.077 342.962 79 371 c 0
 115.2 443.901 190.801 443.157 223 484 c 0
 265.736 538.208 228.308 600.682 302 672 c 0
 344.176 712.818 391 734 441 734 c 0
 447 734 452 733 458 733 c 0
 528 727 558 692 558 655 c 0
 558 612 517 566 449 560 c 1
 444 560 l 2
 409 560 410 599 407 599 c 1
 391 592 361 551 355 509 c 0
 355 505 354 502 354 498 c 0
 354 454 396 449 419 377 c 0
 435 325 471 283 471 217 c 0
 471 198 468 178 461 154 c 0
 430 56 368 21 333 -9 c 1
 335 -19 338 -33 338 -49 c 0xd8
 338 -82 327.798 -126.827 284 -178 c 0
 238.791 -230.821 184 -255 124 -259 c 0
 117 -259 110 -260 103 -260 c 0
 48 -260 -1 -244 -9 -183 c 0
 -9 -180 -10 -177 -10 -174 c 0
EndSplineSet
Validated: 1
EndChar

StartChar: dieresis
Encoding: 168 168 41
Width: 418
VWidth: 1080
Flags: W
HStem: 354.712 118.576<174.386 255.365 302.636 383.615>
VStem: 162.324 107.102<366.281 460.04> 290.574 107.102<366.281 460.04>
LayerCount: 2
Fore
SplineSet
397.676 407.785 m 0
 397.676 376.771 368.965 354.712 341.734 354.712 c 0
 334.562 354.712 327.391 355.668 320.696 357.582 c 0
 299.937 363.172 290.574 389.002 290.574 411.609 c 0
 290.574 442.824 311.747 473.288 343.168 473.288 c 0
 376.002 473.288 397.676 439.792 397.676 407.785 c 0
269.426 407.785 m 0
 269.426 376.771 240.715 354.712 213.484 354.712 c 0
 206.312 354.712 199.141 355.668 192.446 357.582 c 0
 171.687 363.172 162.324 389.002 162.324 411.609 c 0
 162.324 442.824 183.497 473.288 214.918 473.288 c 0
 247.752 473.288 269.426 439.792 269.426 407.785 c 0
EndSplineSet
Validated: 1
EndChar

StartChar: copyright
Encoding: 169 169 42
Width: 354
VWidth: 1000
Flags: W
HStem: 7 55<119.815 188.292> 163 65<215.007 226 226.008 262.08> 293 68<261.006 305.071> 428 66<241.198 340.935>
VStem: 42 74<64.0331 240.035> 159 56<221.154 293.699> 343 64<287.865 426.148>
LayerCount: 2
Fore
SplineSet
260 361 m 0
 281.125 361 307 355.109 307 328 c 0
 307 313 300 298 283 293 c 0
 269 289 261 305 261 305 c 1
 252 308 249 307 245 305 c 1
 229 291 229 284 221 262 c 0
 217 250 215 242 215 236 c 0
 215 220 225 221 226 221 c 1
 226 224 237 228 248 228 c 0
 260.742 228 272 221.546 272 207 c 0
 272 181.881 235.567 163 215 163 c 0
 185 163 164 191 163 195 c 0
 160 206 159 216 159 226 c 0
 159 257 171 280 172 281 c 0
 191 303 212 361 260 361 c 0
135 65 m 0
 137 64 139 62 142 62 c 0
 148 62 157 66 175 76 c 0
 216 99 238.736 128.145 271 187 c 0
 311.667 261.183 332 298 342 375 c 0
 343 381 343 386 343 390 c 0
 343 417 332 419 329 422 c 0
 325 426 316 428 305 428 c 0
 295 428 284 427 272 422 c 0
 223 404 210 374 174 313 c 1
 134 242 120 203 116 122 c 1
 116 114 l 2
 116 75 129 69 135 65 c 0
74 52 m 0
 47 80 42 112 42 142 c 0
 42 153 43 163 43 173 c 0
 45 232 60.0657 269.966 86 320 c 0
 117.079 379.959 137.16 443.631 214 477 c 0
 239.052 487.88 265 494 291 494 c 0
 322 494 352 485 379 461 c 0
 402 440 407 415 407 392 c 0
 407 379 405 366 405 355 c 0
 400 261 378 201 332 121 c 0
 308 80 288 32 227 14 c 0
 211 9 195 7 179 7 c 0
 140 7 104 22 74 52 c 0
EndSplineSet
Validated: 1
EndChar

StartChar: logicalnot
Encoding: 172 172 45
Width: 373
Flags: W
HStem: 196 173<134.958 260.044> 196 163<115.775 260.044>
LayerCount: 2
Fore
SplineSet
153 196 m 0x80
 104.077 196 60 209.474 60 257 c 0
 60 285 79.0092 308.989 100 326 c 0
 153.023 368.971 199 352 239 359 c 0x40
 263 363 283 369 310 369 c 0
 316 369 323 369 331 368 c 0
 349 365 393 365 407 324 c 0
 412 310 414 297 414 284 c 0
 414 227 374 178 350 121 c 0
 339 95 299 78 263 78 c 0
 237 78 213 87 206 109 c 1
 206 111 l 2
 206 128 253 199 261 216 c 1
 241 207 195 196 153 196 c 0x80
EndSplineSet
Validated: 1
EndChar

StartChar: registered
Encoding: 174 174 47
Width: 462
VWidth: 1000
Flags: W
HStem: 25 55<148.086 233.572> 273 87<345.755 392.018> 296 68<328 358.871> 446 66<299.6 423.653>
VStem: 51 92<88.7638 244.628> 426 81<318.8 443.039>
LayerCount: 2
Fore
SplineSet
91 70 m 0x9c
 57 98 51 129 51 159 c 0
 51 240 67 278 105 338 c 1
 145 398 169 462 266 495 c 0
 297 506 329 512 362 512 c 0
 400 512 437 503 471 479 c 0
 501 458 507 433 507 410 c 0
 507 397 505 384 504 373 c 0
 498 279 471 219 412 139 c 0
 383 98 358 50 282 32 c 0
 262 27 242 25 222 25 c 0
 174 25 128 40 91 70 c 0x9c
212 122 m 0
 194 122 179 136 179 157 c 0
 179 177 196 191 201 201 c 0
 217 235 237 246 245 274 c 0
 251 295 254 303 251 304 c 1
 243.993 304 225.471 268.846 212.419 268.846 c 0
 208.706 268.846 205.436 271.691 203 279 c 0
 201 284 200 289 200 294 c 0
 200 324 234 338 238 346 c 1
 261 361 l 1
 267 362 274 364 281 364 c 0xbc
 296 364 312 358 318 336 c 1
 323 341 331 346 340 348 c 1
 344 350 351 359 368 360 c 0
 370 360 372 360 374 360 c 0
 384 360 405 356 405 337 c 0
 405 315 387 273 364 273 c 2
 362 273 l 1xdc
 347 275 354 279 349 291 c 0
 348 294 346 296 344 296 c 0xbc
 336 296 323 260 303 233 c 0
 283 207 278 185 255 155 c 0
 249 147 243 127 220 123 c 0
 217 123 214 122 212 122 c 0
398 303 m 1
 420 359 426 391 426 409 c 0
 426 434 415 435 409 440 c 0
 405 444 394 446 379 446 c 0
 367 446 353 445 338 440 c 0
 277 422 260 392 216 331 c 0
 165 260 148 221 143 140 c 0
 143 137 143 134 143 131 c 0
 143 93 160 87 167 83 c 0
 169 82 172 80 176 80 c 0
 183 80 195 84 217 94 c 0
 268 117 296 146 337 205 c 0
 364 244 384 273 398 303 c 1
EndSplineSet
Validated: 1
EndChar

StartChar: macron
Encoding: 175 175 48
Width: 364
Flags: W
HStem: 394 107.4<115.295 407.446>
LayerCount: 2
Fore
SplineSet
218 501.4 m 2
 252.441 501.4 273.237 508 309 508 c 0
 315 508 321.999 507.988 330 507.4 c 0
 354.997 505.563 389 505 413 485.2 c 0
 425 475.6 433 463.6 433 451 c 0
 433 442 429 433 420 424.6 c 0
 384 392.8 325.999 397.63 283 396.4 c 0
 262 395.8 238 394 214 394 c 0
 174 394 133 399.4 103 424.6 c 0
 93 432.4 89 440.8 89 449.2 c 0
 89 461.2 97 472 110 481 c 0
 138 499.6 170 501.4 199 501.4 c 2
 218 501.4 l 2
EndSplineSet
Validated: 1
EndChar

StartChar: degree
Encoding: 176 176 49
Width: 264
VWidth: 1000
Flags: W
HStem: 491.75 58<202.381 233.231>
VStem: 141.25 61<550.011 636.89>
LayerCount: 2
Fore
SplineSet
157.25 514.25 m 0
 143.75 528.25 141.25 544.25 141.25 559.25 c 0
 141.25 564.75 141.75 569.75 141.75 574.75 c 0
 142.75 604.25 150.283 623.233 163.25 648.25 c 0
 178.789 678.229 188.83 710.065 227.25 726.75 c 0
 239.776 732.189 252.75 735.25 265.75 735.25 c 0
 281.25 735.25 296.25 730.75 309.75 718.75 c 0
 321.25 708.25 323.75 695.75 323.75 684.25 c 0
 323.75 677.75 322.75 671.25 322.75 665.75 c 0
 320.25 618.75 309.25 588.75 286.25 548.75 c 0
 271.31 523.227 256.011 491.75 209.75 491.75 c 0
 190.25 491.75 172.25 499.25 157.25 514.25 c 0
222.25 633.25 m 0
 207.125 606.922 202.25 590.766 202.25 557.25 c 0
 202.25 552.25 202.75 549.75 205.75 549.75 c 0
 208.25 549.75 211.75 551.25 217.25 554.25 c 0
 230.75 561.75 232.742 571.254 243.75 591.25 c 0
 257.24 615.755 263.75 628.25 267.25 653.75 c 0
 269.25 667.25 269.25 668.25 268.25 669.25 c 0
 266.25 671.75 263.25 672.75 254.75 669.75 c 0
 238.25 663.75 233.75 653.25 222.25 633.25 c 0
EndSplineSet
Validated: 1
EndChar

StartChar: acute
Encoding: 180 180 53
Width: 303
VWidth: 1080
Flags: W
HStem: 448 301
VStem: 105 305
LayerCount: 2
Fore
SplineSet
346 749 m 0
 372.021 749 410 726.558 410 694 c 0
 410 675 399 658 395 650 c 0
 365 597 322 588 290 562 c 0
 242 522 226 498 157 454 c 1
 135 448 l 1
 113 449 106 450 105 472 c 1
 105 482 l 2
 105 551 155 586 176 628 c 0
 177 631 178 633 180 635 c 0
 207 662 220 702 273 726 c 0
 290 734 318 749 346 749 c 0
EndSplineSet
Validated: 1
EndChar

StartChar: uni00B5
Encoding: 181 181 54
Width: 516
VWidth: 1080
Flags: W
HStem: -265 21G<-16.0331 -13.5> 5 116<214.41 267.898> 482 16G<259 280 478.5 495.5>
VStem: 117 206<383.75 449.136>
LayerCount: 2
Fore
SplineSet
395 373 m 2
 394 373 393 373 392 373 c 0
 374 373 338 392 338 423 c 0
 338 438 346 455 369 474 c 0
 397 498 426 497 446 499 c 0
 460 500 472 502 485 502 c 0
 506 502 526 498 547 489 c 0
 551 487 582 477 582 449 c 0
 582 446 582 442 581 439 c 0
 574 404 544 399 544 398 c 2
 445 127 l 1
 456 100 442 125 471 93 c 1
 475 85 478 80 478 74 c 0
 478 69 475 64 468 57 c 0
 413 6 392 -10 314 -33 c 0
 312 -34 309 -34 307 -34 c 0
 289 -34 264 -23 257 5 c 1
 198 -8 182 2 155 -20 c 0
 83 -77 137 -165 35 -239 c 0
 11 -257 -7 -265 -20 -265 c 1
 52 98 l 2
 52.3887 99.9619 53 102 53 104 c 2
 146 362 l 1
 136 364 117 384 117 408 c 0
 117 420 121 432 133 444 c 0
 169 482 207 488 244 496 c 0
 250 497 256 498 262 498 c 0
 298 498 323 471 323 449 c 0
 323 446 323 443 322 440 c 2
 213 140 l 1
 213 140 221 121 247 121 c 0
 250 121 253 122 256 122 c 0
 282 126 304 147 323 171 c 1
 395 373 l 2
EndSplineSet
Validated: 1
EndChar

StartChar: paragraph
Encoding: 182 182 55
Width: 769
VWidth: 1080
Flags: W
HStem: 0 132<106.25 197.765> 6 114<167.927 218.417> 635 124<455.447 507.993>
VStem: 92 211<399 480.644>
LayerCount: 2
Fore
SplineSet
717 637 m 1x30
 704 643 704 643 701 645 c 1
 684 608 732 677 581 438 c 1
 483 251 441 229 412 142 c 1
 412 142 435 136 464 126 c 1
 502 202 515.905 221.05 553 291 c 0
 635.788 447.112 639 493 717 637 c 1x30
198 120 m 1x70
 233 148 222 166 246 205 c 1
 284 270 303 287 326 320 c 1
 323 321 319 321 313 321 c 0
 291 321 252 314 213 314 c 0
 182 314 152 319 132 337 c 0
 121 347 101 351 96 374 c 0
 93 384 92 394 92 404 c 0
 92 428 100.071 453.963 119 490 c 0
 142.087 533.954 160 578 236 634 c 0
 327 701 404 723 486 745 c 0
 527 756 557 759 582 759 c 0
 609 759 630 756 658 756 c 2
 695 756 l 2
 728 756 759 759 787 759 c 0
 804 759 820 758 834 754 c 0
 836 754 838 754 840 754 c 0
 858 754 870 741 872 710 c 0
 872 699 869.998 689.001 863 676 c 0
 763.97 492.016 727 430 635 275 c 0
 574.338 172.798 615 222 533 90 c 1
 536 87 537 83 537 79 c 0
 537 51 478 11 468 0 c 0xb0
 465 -3 456 -5 444 -5 c 1
 437 -7 432 -7 427 -5 c 1
 323 -0 260 6 210 6 c 0x70
 195 6 182.003 4.96447 169 4 c 0
 155.003 2.96176 144 0 135 0 c 0
 100 0 85 8 39 9 c 0
 22 9 23 14 34 30 c 0
 40 38 49 80 112 114 c 0
 137 128 155 132 167 132 c 0xb0
 187 132 193 120 198 120 c 1x70
508 615 m 0
 508 628.433 498.335 635 486 635 c 0
 480 635 473 634 464 632 c 0
 435 624 416 614 388 591 c 0
 336 548 322 522 305 477 c 0
 304 474 303 471 303 469 c 0
 303 461 309 456 311 441 c 1
 325 443 337 444 348 444 c 0
 377 444 398 439 410 439 c 0
 413 439 416 439 418 440 c 0
 427 448 431 478 461 521 c 1
 479 564 508 594 508 615 c 0
EndSplineSet
Validated: 1
EndChar

StartChar: AE
Encoding: 198 198 71
Width: 1108
VWidth: 1080
Flags: W
HStem: 0 150<50.799 175.463> 7 130<410.656 491.849> 12 169<955.89 1049.31> 15 110.747<824.563 904.761> 15 103<766.573 874.427 875.06 936.966> 353 87<822.005 863.751> 516 21G<1100.5 1118> 518 20G<973 988> 636 108<880.188 1024.46>
VStem: 18 353<26.0042 115.531> 855 160<261.145 351.762>
LayerCount: 2
Fore
SplineSet
577 488 m 1x04e0
 537 474 527 447 527 424 c 0
 527 404 535 387 535 387 c 2
 536 385 553 376 582 376 c 2
 593 376 l 1
 617 378 633 384 644 398 c 1
 655 427 l 1
 655 432 l 2
 655 446 649 459 633 473 c 0
 626 478 580 485 577 488 c 1x04e0
541 244 m 1
 482.818 262.182 468.438 263.008 452.029 263.008 c 0
 450.388 263.008 448.727 263 447 263 c 0
 426 263 409 261 406 261 c 1
 349 137 339 180 328 138 c 1
 340 134 357 126 363 116 c 0
 369 106 371 96 371 88 c 0
 371 64 355 45 354 36 c 1
 352 28 348 23 340 20 c 0
 312 8 285 5 258 5 c 0
 234 5 211 7 187 7 c 2
 167 7 l 2x44e0
 151 7 126 0 99 0 c 0
 77 0 54 4 35 26 c 0
 23 40 18 55 18 69 c 0
 18 93 31 116 50 132 c 0
 67 146 87 150 104 150 c 0
 127 150 146 143 148 143 c 1
 274 257 280 293 437 464 c 1
 499 530 534 574 603 640 c 1
 591 647 586 657 586 668 c 0
 586 695 614 724 614 725 c 0
 618 736 623 741 636 742 c 0
 677 745 726 748 773 748 c 0
 783 748 792 753 802 750 c 1
 812 751 824 752 835 753 c 0
 837 753 839 753 841 753 c 0
 878 749 896 745 929 744 c 1
 940 744 l 2
 970 744 990 747 1027 748 c 0
 1039 748 1057 755 1077 755 c 0
 1090 755 1104 753 1119 744 c 0
 1168 716 1164 668 1176 645 c 0
 1178 643 1178 641 1179 638 c 0
 1181 625 1183 611 1183 595 c 0
 1183 579 1181 561 1171 541 c 1
 1165 532 1157 535 1148 528 c 0
 1147 527 1128 516 1108 516 c 0x86e0
 1093 516 1077 522 1066 540 c 0
 1038 586 1038 609 1009 627 c 0
 995 635 983 637 967 637 c 0
 956 637 944 636 927 636 c 2
 923 636 l 2
 908 636 900 639 892 639 c 0
 888 639 884 639 880 636 c 1
 865 619 862 579 857 558 c 0
 844 502 822 472 822 448 c 0
 822 445 822 443 823 440 c 0
 824 440 839 435 859 435 c 0
 870 435 883 437 895 443 c 0
 910 451 889 495 936 526 c 0
 951 536 966 538 980 538 c 0
 996 538 1009 535 1018 535 c 2
 1020 535 l 1
 1037 534 1044 531 1047 515 c 0
 1049 505 1050 496 1050 488 c 0
 1050 435 1020 396 1017 354 c 0
 1017 351 1016 349 1015 347 c 0
 1002 318 1009 286 984 244 c 0
 974 229 949 221 928 221 c 0
 909 221 882 230 873 248 c 1
 860 280 855 304 855 320 c 0
 855 337 860 347 864 352 c 1
 856 352 843 353 830 353 c 0
 817 353 803 352 794 351 c 1
 763 292 768 241 749 158 c 1
 754 154 773 130 791 124 c 0
 803 120 813 118 824 118 c 0x0de0
 836 118 849 121 868 125 c 0
 869.941 125.529 872.163 125.747 874.538 125.747 c 0x14e0
 885.623 125.747 900.059 121 905 121 c 0
 922 121 927 132 966 169 c 0
 970 173 974 175 980 176 c 0
 987 177 1001 181 1016 181 c 0x24e0
 1031 181 1049 177 1062 161 c 0
 1074 147 1078 132 1078 118 c 0x0ce0
 1078 83 1052 52 1049 32 c 1
 1045 19 1040 14 1026 12 c 0x24e0
 1016 11 1004 11 991 11 c 0
 948 11 892 15 832 15 c 0x14e0
 807 15 781 14 756 12 c 1
 713 12 l 1x24e0
 710 8 706 6 699 6 c 0
 687 6 677 9 663 9 c 0
 620 9 558 0 498 0 c 0x84e0
 471 0 444 1 419 7 c 1
 405 12 401 17 400 30 c 0
 400 37 388 57 388 78 c 0
 388 93 393 108 410 122 c 0
 424 133 438 137 452 137 c 0x44e0
 472 137 489 128 492 124 c 1
 541 188 522 226 541 244 c 1
EndSplineSet
Validated: 1
LCarets2: 1 0 
Ligature2: "'liga' Standard Ligatures in Latin lookup 0 subtable" A E
EndChar

StartChar: Eth
Encoding: 208 208 80
Width: 797
VWidth: 1080
Flags: W
HStem: 10 117<315.637 457.881> 600 143<198.348 266>
VStem: 110 344<326.783 431.501> 662 203<352.261 546.466>
LayerCount: 2
Fore
SplineSet
406 463 m 1
 430.285 448.429 454 417.397 454 381 c 0
 454 366 450 351 441 337 c 0
 417 302 383 293 351 291 c 1
 334 249 325 222 318 185 c 0
 315.922 174.015 312 167 312 160 c 0
 312 156 313 152 317 148 c 0
 331 132 348 127 366 127 c 0
 389 127 413 135 439 142 c 0
 475 153 491.867 169.134 519 196 c 0
 569.751 246.251 598 271 628 329 c 0
 651 372 662 394 662 436 c 2
 662 441 l 1
 660 503 655 538 615 579 c 1
 584 609 558 620 514 620 c 0
 512 620 510 620 508 620 c 0
 490 619 480 616 466 601 c 0
 434 566 430 535 409 473 c 1
 406 463 l 1
170 298 m 1
 145.618 309.474 110 340.044 110 378 c 0
 110 398 118 416 131 431 c 0
 159 462 191 465 220 465 c 2
 227 465 l 1
 266 600 l 1
 264 600 l 2
 248 600 201 609 183 639 c 0
 177 649 175 658 175 667 c 0
 175 694 196 715 199 725 c 0
 203 737 208 742 222 743 c 0
 283 746 324 746 384 748 c 0
 386 748 388 748 390 748 c 2
 474 731 l 1
 556 716 619.884 730.75 708 690 c 0
 768.92 661.827 806 631 839 578 c 0
 863 539 864 507 865 469 c 1
 865 444 l 2
 865 389 858 348 834 291 c 0
 820 259 802 243 783 220 c 1
 737 169 710 132 645 91 c 0
 569 44 513 39 437 10 c 0
 433 8 429 8 425 8 c 0
 401 10 378 10 355 10 c 0
 286 10 223 5 159 5 c 0
 128 5 97 6 65 10 c 0
 54 12 49 16 45 26 c 0
 42 34 19 53 19 82 c 0
 19 88 20 95 23 103 c 0
 45 160 111 155 125 172 c 0
 144 196 139 218 155 260 c 2
 170 298 l 1
EndSplineSet
Validated: 1
EndChar

StartChar: multiply
Encoding: 215 215 86
Width: 430
VWidth: 1080
Flags: W
VStem: 71 63<87.9416 137.033> 309 68<106.188 126.233>
LayerCount: 2
Fore
SplineSet
111 86 m 0
 106.828 86 71 89.4186 71 96 c 0
 71 110 104 147 104 162 c 0
 104 163 104 164 104 165 c 0
 155 216 160 220 185 264 c 1
 163 312 128 391 88 445 c 1
 120 453 117 455 120 455 c 0
 122 455 126 454 141 454 c 1
 154 427 193 355 212 343 c 0
 218 339 224 338 229 338 c 0
 235 338 240 339 246 341 c 0
 268 350 259 350 286 382 c 1
 288 391 328 443 328 454 c 1
 355 454 l 2
 368 454 379 452 387 440 c 1
 358 409 299 340 258 286 c 1
 282 225 323 205 369 146 c 1
 372 135 377 126 377 118 c 0
 377 114 376 110 373 106 c 1
 344 92 335 95 309 92 c 1
 309 104 260 155 258 165 c 0
 253 184 245 187 228 194 c 1
 217 195 217 195 196 194 c 1
 181 178 177 187 163 161 c 1
 160 153 134 110 134 91 c 2
 134 87 l 1
 123 86 117 86 111 86 c 0
EndSplineSet
Validated: 1
EndChar

StartChar: Oslash
Encoding: 216 216 87
Width: 754
VWidth: 1080
Flags: W
HStem: -4 75<369.136 467.319> 627 124<844.145 898.287> 627 98<846.356 914.285> 682 83<483.625 613.405>
VStem: 79 139<215.171 428.443> 689 129<346.204 479.305>
LayerCount: 2
Fore
SplineSet
342 128 m 1x8c
 356.348 126.804 374 116.249 374 93 c 0
 374 85 372 78 369 72 c 1
 374 71 378 71 383 71 c 0
 394 71 406 73 420 77 c 0
 495 97 534.846 128.144 588 185 c 0
 634.864 235.127 648 277 666 343 c 0
 679 394 689 434 689 476 c 2
 689 480 l 1
 594 385 l 2
 476.996 267.996 454 255 344 133 c 0
 344 132 343 130 342 128 c 1x8c
381 -4 m 0
 345.945 -4 296.876 5.04941 267 17 c 1
 220 15 194 11 158 11 c 0
 136 11 112 13 78 17 c 1
 70 19 65 22 61 28 c 0
 58 32 23 47 23 83 c 0
 23 131.886 73.7563 149.551 106 156 c 1
 91 192 86 232 79 285 c 1
 79 287 l 1
 78 311 76 333 76 354 c 0
 76 391 80.1244 424.966 92 469 c 0
 108.169 528.954 122 573 169 623 c 0
 226 683 279 701 350 730 c 0
 361 734 367 735 371 736 c 0
 374 736 384 645 384 629 c 1
 344 587 315 569 282 521 c 0
 256 483 253 456 234 414 c 1
 225 366 218 326 218 287 c 0
 218 263 221 239 228 214 c 1
 529 485 l 1
 624.747 567.295 642 592 657 613 c 1
 641.42 642.601 601.938 682 556 682 c 0
 550 682 544 682 538 681 c 0
 488 676 471 644 454 636 c 1
 449 635 445 635 442 635 c 0
 434 635 427 636 418 636 c 1
 415 639 396 703 396 734 c 0
 396 743 398 749 402 750 c 0
 430 755 459 763 491 763 c 2
 501 763 l 1
 512 765 521 765 530 765 c 0x9c
 577 765 608 746 646 726 c 0
 647 726 648 725 649 725 c 2xac
 672 710 l 1
 679 726 693 737 706 743 c 0
 710 745 737 751 741 751 c 0
 765 753 780 754 789 754 c 0
 809 754 808 751 821 751 c 0xcc
 844 751 857 744 910 725 c 0xac
 923.518 720.494 930 704.693 930 689 c 0
 930 660.589 904.861 627 872 627 c 0xcc
 856 627 847 631 844 632 c 1
 792 588 l 1
 811 544 818 503 818 462 c 0
 818 422 812 382 804 338 c 0
 787 254 757 202 702 136 c 0
 662 89 627 68 574 40 c 0
 521.906 11.7202 454.801 -4 381 -4 c 0
EndSplineSet
Validated: 1
EndChar

StartChar: Thorn
Encoding: 222 222 93
Width: 613
VWidth: 1080
Flags: W
HStem: 0 79<265.749 326.917> 0 71<231.037 308.344> 192 60<307.754 443.781> 516 81<391.371 497.829> 651 98<385.875 489.155> 653 72<193.877 275.968>
VStem: 529 148<355.488 483.772>
LayerCount: 2
Fore
SplineSet
307 270 m 1x32
 323 256 345 252 370 252 c 0
 393 252 419 256 445 258 c 1
 472 268 485 286 499 312 c 0
 517 347 529 376 529 409 c 0
 529 422 527 436 523 451 c 0
 510 494 478 516 446 516 c 0
 429 516 412 510 397 499 c 0
 355 468 356 427 337 378 c 0
 324 344 305 316 305 287 c 0
 305 282 305 276 307 270 c 1x32
186 705 m 0
 186 719.925 199.979 732 214 732 c 0
 228 732 244 725 261 725 c 2
 265 725 l 1x36
 325 731 360 749 415 749 c 2
 443 749 l 2
 462 749 478 748 490 732 c 0
 495 725 497 717 497 710 c 0
 497 695 490 680 490 662 c 1
 472 653 452 651 432 651 c 0
 417 651 401 652 384 652 c 1
 384 623 384 594 387 594 c 0
 416 594 441 597 466 597 c 0
 488 597 510 595 536 585 c 0
 597 561 643.827 541.932 668 481 c 0
 673.957 465.983 677 452 677 438 c 0
 677 408 663.954 381.017 651 346 c 0
 622.9 270.037 579.901 232.2 507 196 c 0
 488.975 187.05 470 184 451 184 c 0
 420 184 388 192 355 192 c 0
 333 192 310 188 287 176 c 0
 264 164 263 183 244 124 c 0
 243 120 243 120 242 119 c 0
 241 119 238 116 228 84 c 0
 224 73 245 76 256 72 c 0
 259 71 262 71 265 71 c 0x7a
 281 71 295 79 309 79 c 0
 322.111 79 335 65.5466 335 52 c 0
 335 36 323 19 322 0 c 1
 299 0 l 2xb2
 255 0 233 -4 190 -5 c 1
 173 -1 156 -0 140 -0 c 2
 88 0 l 2x72
 68 0 49 0 31 9 c 1
 31 27 24 42 24 57 c 0
 24 64 26 72 31 79 c 0
 45 98 67 89 90 96 c 1
 150 204 157 304 203 424 c 1
 230 520 251 580 278 651 c 1xba
 262 652 246 653 225 653 c 2
 199 653 l 1x36
 198 672 186 689 186 705 c 0
EndSplineSet
Validated: 1
EndChar

StartChar: hbar
Encoding: 295 295 94
Width: 459
VWidth: 1000
Flags: W
HStem: -14 172<225.436 306> 317 124<316.879 375.769>
VStem: 196 229<641.564 721.28> 377 130<219.88 355>
LayerCount: 2
Fore
SplineSet
116 496 m 0xd0
 106 506 102 516 102 527 c 0
 102 542 110.035 554.959 123 566 c 0
 151.076 589.911 183 592 212 592 c 2
 243 592 l 1
 246 608 248 621 248 627 c 0
 248 630 248 631 247 631 c 0
 246 631 246 631 245 630 c 0
 242 626 237 623 232 623 c 0
 222 623 209 631 201 650 c 0
 198 658 196 666 196 673 c 0
 196 699 215 720 230 733 c 0
 256 755 285 754 307 755 c 0
 317 755 328 757 340 757 c 0
 362 757 385 753 405 731 c 0
 418 717 425 699 425 681 c 0xe0
 425 667 421 653 413 641 c 0
 402 626 383 622 375 622 c 2
 373 622 l 1
 367 612 364 605 362 598 c 1
 383 596 408 591 426 572 c 0
 438 560 446 545 446 529 c 0
 446 518 441.977 506.02 433 496 c 0
 399.917 459.074 347 462 305 461 c 1
 276 407 l 1
 328 432 367 441 397 441 c 0
 436 441 458 426 472 416 c 0
 500 395 507 368 507 342 c 0
 507 324 504 307 502 292 c 0
 495 222 468 181 431 126 c 0
 397 76 369 53 328 21 c 0
 326 19 321 -8 288 -13 c 0
 284 -14 280 -14 277 -14 c 0
 235 -14 200 24 200 67 c 0
 200 76 201 84 204 93 c 0
 210 110 225 158 269 158 c 2
 276 158 l 1
 296 155 306 149 306 139 c 0
 306 138 306 137 306 136 c 2
 339 185 l 2
 355 207 361 217 368 240 c 1
 373 261 377 272 377 284 c 0
 377 289 376 295 374 301 c 0
 368 316 365 317 362 317 c 2
 357 317 l 2
 327 317 315 291 275 254 c 0
 245 226 237 203 207 165 c 1
 174 118 172 43 117 8 c 0
 109 4 103 3 95 6 c 2
 33 27 l 1
 22 34 16 38 16 48 c 0
 16 50 16 52 17 55 c 0
 32 124 50 128 79 202 c 2
 184 461 l 1
 159 466 135 476 116 496 c 0xd0
EndSplineSet
Validated: 1
EndChar

StartChar: imacron
Encoding: 299 299 98
Width: 296
Flags: W
HStem: 491 20G<248 271> 520 86<136.034 378.813>
LayerCount: 2
Fore
SplineSet
95 390 m 2
 121 436 155 467 204 492 c 0
 208 494 220 491 217 495 c 0
 216 496 216 497 216 499 c 0
 216 506 231 511 265 511 c 0
 277 511 292 511 308 509 c 1
 323 506 329 501 331 487 c 0
 333 471 339 451 339 429 c 0
 339 409 334 386 316 364 c 1
 282 307 261 277 227 216 c 0
 214 192 204 184 201 173 c 1
 209 182 225 193 252 193 c 2
 260 193 l 1
 272 192 307 189 314 155 c 0
 316 150 316 145 316 140 c 0
 316 95 269 72 250 55 c 0
 229 36 208 26 181 18 c 0
 165 13 149 9 131 9 c 0
 121 9 110 11 99 14 c 0
 79 20 53 29 41 58 c 0
 37 68 35 77 35 85 c 0
 35 109 47 127 51 139 c 0
 70 206 97 257 133 313 c 1
 95 311 l 1
 75 318 70 319 70 328 c 0
 70 333 71 339 72 348 c 1
 95 390 l 2
221 606 m 2
 249 606 266 612 294 612 c 0
 323 612 355 612 377 593 c 0
 387 586 393 576 393 566 c 0
 393 559 390 552 383 545 c 0
 354 519 308 523 273 522 c 0
 257 522 237 520 218 520 c 0
 186 520 153 525 129 545 c 0
 121 551 118 558 118 565 c 0
 118 574 125 583 135 590 c 0
 157 605 183 606 206 606 c 2
 221 606 l 2
EndSplineSet
Validated: 1
EndChar

StartChar: ibreve
Encoding: 301 301 100
Width: 296
Flags: W
HStem: 491 20G<248 271> 523.64 30.7207<210.283 313.946>
LayerCount: 2
Fore
SplineSet
95 390 m 2
 121 436 155 467 204 492 c 0
 208 494 220 491 217 495 c 0
 216 496 216 497 216 499 c 0
 216 506 231 511 265 511 c 0
 277 511 292 511 308 509 c 1
 323 506 329 501 331 487 c 0
 333 471 339 451 339 429 c 0
 339 409 334 386 316 364 c 1
 282 307 261 277 227 216 c 0
 214 192 204 184 201 173 c 1
 209 182 225 193 252 193 c 2
 260 193 l 1
 272 192 307 189 314 155 c 0
 316 150 316 145 316 140 c 0
 316 95 268.953 72.0525 250 55 c 0
 228.948 36.0583 208 26 181 18 c 0
 165 13 149 9 131 9 c 0
 121 9 110 11 99 14 c 0
 79 20 53 29 41 58 c 0
 37 68 35 77 35 85 c 0
 35 109 47 127 51 139 c 0
 69.874 206.407 96.5148 256.614 133 313 c 1
 95 311 l 1
 75 318 70 319 70 328 c 0
 70 333 71 339 72 348 c 1
 95 390 l 2
388.832 598.04 m 0
 403.703 598.04 416.832 594.173 416.832 580.761 c 0
 416.832 566.84 392.01 555.835 372.832 543.8 c 0
 353.021 531.369 326.498 523.64 295.232 523.64 c 0
 287.232 523.64 279.232 524.12 269.632 524.12 c 2
 268.032 524.12 l 2
 257.632 524.12 248.832 523.64 240.832 523.64 c 0
 180.862 523.64 121.238 554.631 106.432 593.721 c 0
 105.632 596.12 104.832 598.521 104.832 600.44 c 0
 104.832 612.921 122.432 616.761 142.432 616.761 c 0
 154.432 616.761 168.032 615.32 178.432 612.921 c 0
 209.632 605.721 189.632 579.8 214.432 566.36 c 0
 232.869 555.881 259.192 554.36 286.432 554.36 c 0
 296.032 554.36 304.032 555.32 314.432 558.2 c 0
 344.832 567.32 340.032 590.84 372.832 596.601 c 0
 378.432 597.561 384.032 598.04 388.832 598.04 c 0
EndSplineSet
Validated: 1
EndChar

StartChar: Iogonek
Encoding: 302 302 101
Width: 467
Flags: W
HStem: -191 105<394.538 448.151> -191 74<373.097 403.327> 3 136<58.7925 184.983 412.046 435.653> 619 126<552.034 640.248> 626 134<282.975 357.758 555.439 630.458>
VStem: 279 84<-113.844 -42.799>
LayerCount: 2
Fore
SplineSet
424 3 m 2x34
 414 3 l 1
 413 1 413 -1 412 -3 c 1
 414 -9 417 -16 417 -17 c 0
 417 -18 391 -43 388 -43 c 0
 385 -43 377 -42 374 -42 c 1
 370 -48 363 -68 363 -79 c 0
 363 -83 365 -106 373 -113 c 0
 375 -115 382 -117 391 -117 c 1x74
 394 -112 398 -86 426 -86 c 1xa4
 431 -88 462 -91 462 -120 c 0
 462 -140 462 -177 413 -188 c 0
 410 -189 401 -191 394 -191 c 0
 389 -191 385 -190 382 -190 c 0
 377 -190 377 -191 369 -191 c 0
 325 -191 279 -148 279 -84 c 0
 279 -46 295 -12 317 11 c 1
 290 12 262 14 233 14 c 0
 219 14 205 14 192 13 c 0
 160 11 129 -3 97 -3 c 0
 62.0047 -3 14 20.1054 14 59 c 0
 14 66 16 72 19 79 c 0
 46 133 108 126 143 136 c 0
 162 142 185 144 185 144 c 1
 197 167 178 171 221 260 c 1
 253 331 l 1
 287 410 351 524 355 607 c 0
 355 609 359 632 358 634 c 1
 353 634 337 626 318 626 c 0
 305 626 291 630 277 644 c 0
 265 656 259 672 259 688 c 0
 259 704 265 720 278 733 c 0
 299 754 323 760 347 760 c 0x6c
 381 760 415 747 442 747 c 2
 451 747 l 1
 455 746 458 746 462 746 c 0
 483 746 509 755 551 755 c 0
 573 755 599 752 632 745 c 1
 646 740 651 735 651 721 c 0
 651 714 658 700 658 682 c 0
 658 669 654 654 641 640 c 0
 625 623 606 619 592 619 c 0
 579 619 570 622 569 622 c 0
 533 577 527 562 496 448 c 0
 496 447 496 446 495 445 c 2
 428 275 l 1
 398 161 388 165 379 134 c 1
 385 137 391 139 397 139 c 0
 418.741 139 458 103.478 458 69 c 0
 458 50 450 34 450 26 c 1
 446 9 443 3 424 3 c 2x34
EndSplineSet
Validated: 1
EndChar

StartChar: iogonek
Encoding: 303 303 102
Width: 296
Flags: W
HStem: -150 105<190.538 244.151> -150 74<169.097 199.327> 491 20G<248 271> 537 142.399<240.318 330.267>
VStem: 35 178<24 85> 75 84<-72.8438 -0.376539> 220.6 132<561.564 657.121>
LayerCount: 2
Fore
SplineSet
89 17 m 1x76
 65.2031 24.9323 35 46.9858 35 85 c 0
 35 109 47 127 51 139 c 0
 69.874 206.407 96.5148 256.614 133 313 c 1
 95 311 l 1
 75 318 70 319 70 328 c 0
 70 333 71 339 72 348 c 1
 94 388 l 1
 121 432 156 468 204 492 c 0
 208 494 220 491 217 495 c 0
 216 496 216 497 216 499 c 0
 216 506 231 511 265 511 c 0
 277 511 292 511 308 509 c 1
 323 506 329 501 331 487 c 0
 333 471 339 451 339 429 c 0
 339 409 334 386 316 364 c 1
 282 307 261 277 227 216 c 0
 214 192 204 184 201 173 c 1
 209 182 225 193 252 193 c 2
 260 193 l 1
 272 192 307 189 314 155 c 0
 316 150 316 145 316 140 c 0
 316 95 269 72 250 55 c 0
 237 44 225 36 211 29 c 1
 212 27 213 25 213 24 c 0x7a
 213 23 187 0 184 0 c 2
 170 0 l 1
 166 -6 159 -27 159 -38 c 0
 159 -42 161 -65 169 -72 c 0
 171 -74 178 -76 187 -76 c 1x76
 190 -71 194 -45 222 -45 c 1xb6
 227 -47 258 -50 258 -79 c 0
 258 -99 258 -136 209 -147 c 0
 206 -148 197 -150 190 -150 c 0
 185 -150 181 -149 178 -149 c 0
 173 -149 173 -150 165 -150 c 0
 121 -150 75 -107 75 -43 c 0
 75 -21 80 -1 89 17 c 1x76
259 537 m 0
 242.199 541.8 233.399 555.399 229.399 565 c 0
 223.8 577.8 220.6 590.6 220.6 604.199 c 0
 220.6 616.199 223.8 629 230.199 641 c 0
 239.8 661 257.399 679.399 285.399 679.399 c 0
 314.199 679.399 331 660.199 341.399 641 c 0
 347.8 629 352.6 614.6 352.6 599.399 c 0
 352.6 586.6 348.6 573 339 561 c 0
 324.6 541 303.8 533.8 283 533.8 c 0
 275 533.8 267 535.399 259 537 c 0
EndSplineSet
Validated: 1
EndChar

StartChar: IJ
Encoding: 306 306 103
Width: 1181
VWidth: 1080
Flags: W
HStem: -259 113<553 669.297> 3 136<58.7925 184.983 380.22 435.653> 386 109<820.947 879.742 1096.99 1157.29> 588 165<1136.03 1235.7> 668 91<684.561 768.719>
LayerCount: 2
Fore
SplineSet
97 -3 m 0xe8
 62.0047 -3 14 20.1054 14 59 c 0
 14 66 16 72 19 79 c 0
 46 133 108 126 143 136 c 0
 162 142 185 144 185 144 c 1
 197 167 178 171 221 260 c 1
 253 331 l 1
 287 410 351 524 355 607 c 0
 355 609 359 632 358 634 c 1
 353 634 337 626 318 626 c 0
 305 626 291 630 277 644 c 0
 265 656 259 672 259 688 c 0
 259 704 265 720 278 733 c 0
 299 754 323 760 347 760 c 0
 381 760 415 747 442 747 c 2
 451 747 l 1
 455 746 458 746 462 746 c 0
 483 746 509 755 551 755 c 0
 570 755 593 753 621 747 c 1
 649 752 673 759 707 759 c 2
 718 759 l 1xe8
 793 756 839 741 906 715 c 0
 962 693 969 659 999 659 c 0
 1048 659 1059 716 1136 739 c 0
 1151 744 1171 753 1194 753 c 0
 1207 753 1220 750 1234 742 c 0
 1276 717 1267 673 1274 655 c 0
 1278 643 1277 636 1266 628 c 0
 1220 592 1171 598 1149 588 c 1xf0
 1120 541 1099 512 1096 499 c 1
 1108 499 1141 493 1145 492 c 0
 1159 487 1163 482 1165 468 c 0
 1165 467 1173 455 1173 438 c 0
 1173 428 1169.95 415.054 1158 404 c 0
 1142.94 390.068 1126 385 1111 385 c 0
 1085 385 1064 398 1062 398 c 1
 997 283 1018 253 920 10 c 0
 919 8 918 5 916 3 c 0
 861 -61 833 -109 766 -165 c 1
 720 -219 682 -236 628 -252 c 0
 611 -257 596 -259 581 -259 c 0
 525 -259 487 -226 448 -191 c 1
 436.498 -182.373 436 -156.21 436 -139 c 0
 436 -114 442 -89 456 -68 c 0
 461 -62 466.008 -58.0655 474 -57 c 0
 489 -55 506 -46 531 -46 c 0
 589.392 -46 616.47 -88.8372 643 -109 c 0
 657 -120 660 -126 660 -130 c 0
 660 -132 659 -133 659 -135 c 0
 659 -138.821 663.697 -146 666 -146 c 0
 671 -146 672 -130 679 -100 c 0
 679 -96 681 -93 683 -90 c 0
 703 -62 727 5 736 74 c 0
 737 76 737 78 738 81 c 0
 773 152 790 194 829 266 c 0
 853 312 879 320 880 348 c 1
 880 356 l 2
 880 369 878 386 869 386 c 0
 867 386 865 385 862 383 c 0
 858 380 851 378 844 378 c 0
 820 378 786 394 784 438 c 0
 784 439 784 440 784 441 c 0
 784 485.759 838.924 495 866 495 c 0
 906 495 918 469 923 469 c 1
 943 477 946 494 953 532 c 0
 956 546 956 548 951 555 c 0
 943 566 937 568 915 574 c 1
 913 574 l 2
 906 574 895 567 876 567 c 0
 868 567 858 569 846 573 c 0
 781 597 780 651 748 665 c 0
 741 669 733 670 725 670 c 0
 715 670 705 668 697 668 c 0
 696 668 695 668 694 668 c 0
 693 667 688 660 684 653 c 1
 696 650 716 640 739 618 c 0
 749 608 772 588 772 561 c 0
 772 554 771 547 768 540 c 0
 749 494 703 467 655 467 c 0
 641 467 626.007 469.018 612 474 c 0
 564.023 491.063 567 547 562 556 c 2
 546 591 l 1
 528 562 519 532 496 448 c 0
 496 447 496 446 495 445 c 2
 428 275 l 1
 398 161 388 165 379 134 c 1
 385 137 391 139 397 139 c 0
 418.741 139 458 103.478 458 69 c 0
 458 50 450 34 450 26 c 1
 446 9 443 3 424 3 c 2
 419 3 l 2
 388 3 310 14 233 14 c 0
 219 14 205 14 192 13 c 0
 160 11 129 -3 97 -3 c 0xe8
EndSplineSet
Validated: 1
LCarets2: 1 0 
Ligature2: "'liga' Standard Ligatures in Latin lookup 0 subtable" I J
EndChar

StartChar: ij
Encoding: 307 307 104
Width: 296
VWidth: 1000
Flags: W
HStem: -263 204<132.814 215.296> 491 20G<248 271> 572 182<240.877 343.113> 587 182<520.137 623.123>
VStem: 211 165<599.409 719.342> 491 164<613.978 734.878>
LayerCount: 2
Fore
SplineSet
568 587 m 0xdc
 512.879 587 491 625.605 491 675 c 0
 491 723.03 522.88 769 572 769 c 0
 607 769 629 745 641 722 c 0
 649 706 655 687 655 669 c 0
 655 653 650.962 636.031 639 621 c 0
 619.939 597.049 594 587 568 587 c 0xdc
394 336 m 0
 367.095 336 335.409 353.909 326 379 c 1
 289.012 317.354 263.359 281.232 227 216 c 0
 214 192 204 184 201 173 c 1
 209 182 225 193 252 193 c 2
 260 193 l 1
 272 192 307 189 314 155 c 0
 316 150 316 145 316 140 c 0
 316 95 268.953 72.0525 250 55 c 0
 228.948 36.0583 208 26 181 18 c 0
 165 13 149 9 131 9 c 0
 121 9 110 11 99 14 c 0
 79 20 53 29 41 58 c 0
 37 68 35 77 35 85 c 0
 35 109 47 127 51 139 c 0
 69.874 206.407 96.5148 256.614 133 313 c 1
 95 311 l 1
 75 318 70 319 70 328 c 0
 70 333 71 339 72 348 c 1
 95 390 l 2
 121 436 155 467 204 492 c 0
 208 494 220 491 217 495 c 0
 216 496 216 497 216 499 c 0
 216 506 231 511 265 511 c 0
 277 511 292 511 308 509 c 1
 333.189 503.962 329.111 488.556 335 465 c 1
 377 514 431 511 485 549 c 0
 489 551 493 553 498 553 c 0
 508 554 531 568 557 568 c 0
 570 568 585 564 600 552 c 0
 622 535 629 512 629 489 c 0
 629 472 625 455 619 440 c 0
 606 406 575 399 574 398 c 0
 533 301 536 258 490 134 c 1
 453 43 442.891 -12.9467 397 -107 c 0
 378.957 -143.979 370 -192 319 -228 c 0
 286 -252 253 -263 217 -263 c 0
 201 -263 184 -261 167 -256 c 0
 134 -248 114 -228 98 -204 c 0
 89 -190 72 -167 72 -141 c 0
 72 -131 75 -121 81 -109 c 1
 101 -76 134 -59 170 -59 c 0
 185 -59 201 -62 216 -69 c 0
 233 -78 241 -94 241 -103 c 2
 241 -105 l 1
 247 -103 251 -101 251 -101 c 1
 292 -21 264 -49 353 197 c 1
 371 279 392 319 408 337 c 1
 403 336 399 336 394 336 c 0
259 576 m 0
 238 582 227 599 222 611 c 0
 215 626 211 643 211 659 c 0
 211 675 215 691 223 706 c 0
 235 731 257 754 292 754 c 0
 328 754 349 730 362 706 c 0
 370 691 376 673 376 654 c 0
 376 638 371 622 359 606 c 0
 341 581 315 572 289 572 c 0xec
 279 572 269 573 259 576 c 0
EndSplineSet
Validated: 1
LCarets2: 1 0 
Ligature2: "'liga' Standard Ligatures in Latin lookup 0 subtable" i j
EndChar

StartChar: Kcommaaccent
Encoding: 310 310 105
Width: 778
Flags: W
HStem: 0 131<34.9832 166.118 687.193 757.435> 625 130<254.356 327> 639 101<535.562 579.805 803.956 907.193>
VStem: 282.901 218<-84.2546 -2.74929> 628 291<651.529 739.924>
LayerCount: 2
Fore
SplineSet
500.579 2.69346 m 1xb8
 500.793 0.0890419 500.901 -2.48008 500.901 -5 c 0
 500.901 -31 491.744 -58.934 477.901 -92 c 0
 458.683 -137.908 437.842 -167.917 392.901 -200 c 0
 332.822 -242.889 340.901 -254 224.901 -257 c 1
 223.901 -256 223.901 -255 223.901 -254 c 0
 223.901 -234 331.901 -210 362.901 -107 c 1
 325.901 -79 282.901 -100 282.901 -43 c 0
 282.901 -34.4306 286.655 -19.252 293.998 -1.93934 c 1
 282.916 -2.69061 271.561 -3 260 -3 c 0
 209 -3 155 0 105 0 c 2
 71 0 l 2
 66 0 60 1 55 0 c 1
 34 2 30.1623 5.02633 27 24 c 0
 26 30 17 46 17 67 c 0
 17 79 21 93 33 107 c 0
 54 130 80 136 103 136 c 0
 124 136 143 131 150 131 c 2
 152 131 l 1
 206 201 151 243 225 386 c 1
 286 585 316 620 327 625 c 1
 254 625 l 1xd8
 234 630 229 632 229 652 c 0
 230 681 242 716 259 740 c 0xb8
 264 747 269.003 749.979 277 751 c 0
 300.008 753.938 325 755 350 755 c 0xd8
 421 755 496 747 547 747 c 0
 551 747 555 747 559 747 c 0
 575 746 581 742 585 727 c 0
 587 720 588 710 588 700 c 0
 588 680.589 580.695 646.231 559 639 c 1
 483 619 l 1
 457 586 468 556 433 443 c 1
 433 415 l 1
 446 444 500 509 667 633 c 1
 636 662 628 679 628 693 c 0
 628 706 635 716 637 730 c 0
 639 740 643 745 653 749 c 0
 672 756 692 758 711 758 c 0
 765 758 821 740 865 740 c 0
 873 740 879 741 886 742 c 1
 907 741 910 739 915 719 c 1
 915 719 919 710 919 697 c 0
 919 689 917 679 912 669 c 0
 899 643 870 639 850 639 c 0
 840 639 832 640 829 640 c 2
 827 640 l 1
 780 599 749 549 685 499 c 1
 624 437 562 392 537 365 c 1
 539 250 620 233 687 127 c 1
 691 129 702 133 717 133 c 0
 730 133 746 129 758 118 c 0
 772 105 776 90 776 76 c 0
 776 53 765 31 765 24 c 1
 760 7 758 0 743 0 c 2
 735 0 l 1
 706 4 667 6 626 6 c 0
 584.679 6 540.309 4.30644 500.579 2.69346 c 1xb8
418.583 97.8506 m 1
 431.588 108.396 447.085 113 458 113 c 0
 483 113 501 97 507 97 c 1
 508 98 509 98 509 100 c 0
 509 106 501 119 501 135 c 1
 383 277 446 257 391 291 c 1
 367 283 l 1
 345 198 308 171 308 142 c 0
 308 138 309 133 311 128 c 1
 312 129 316 130 322 130 c 0
 337.76 130 362.078 122.1 381.131 92.2259 c 1
 391.308 95.91 402.238 98 413.901 98 c 0
 415.48 98 417.04 97.9496 418.583 97.8506 c 1
EndSplineSet
Validated: 1
EndChar

StartChar: kcommaaccent
Encoding: 311 311 106
Width: 438
Flags: W
HStem: 455 20G<405.5 427.5>
VStem: 187 218<-78.2546 17.7195> 226.938 127.062<111.618 187.767>
LayerCount: 2
Fore
SplineSet
245 296 m 1x80
 254 294 257 291 264 292 c 0
 302 299 318 305 343 330 c 0
 358 346 365 356 369 362 c 1
 365 360 360 359 351 359 c 0
 344 359 335 360 323 362 c 1
 250 342 252 301 245 296 c 1x80
232 60 m 1
 227.5 90.75 226.938 115.875 226.938 133.266 c 0
 226.938 139.062 227 144 227 148 c 0
 227 184 233 174 233 179 c 0
 233 180 232 183 231 188 c 1
 214 190 l 2
 214 189 213 187 213 186 c 0
 213 180 219 177 219 165 c 0
 219 151 211 125 174 68 c 1
 147 15 l 2
 141 5 124 0 104 0 c 0
 75 0 38 13 20 56 c 0
 18 61 17 65 19 70 c 0
 43 173 100 206 100 232 c 0
 100 233 100 234 100 235 c 0
 100 239 100 242 102 246 c 2
 203 489 l 1
 233 629 255 642 267 653 c 1
 215 656 195 675 195 697 c 0
 195 729 240 758 278 758 c 0
 300 758 320 751 336 750 c 0
 363 748 379 746 403 744 c 1
 413 742 419 739 424 731 c 0
 433 713 438 693 438 676 c 0
 438 657 432 640 421 630 c 1
 368 528 359 532 329 479 c 1
 329 470 327 463 325 457 c 1
 335 460 345 463 355 464 c 0
 371 466 393 475 418 475 c 0
 437 475 457 469 474 451 c 0
 490 434 496 416 496 398 c 0
 496 371 483 344 471 323 c 0
 446 279 407 275 385 259 c 0
 374 251 354 234 354 234 c 1xa0
 354 153 357 169 365 128 c 0
 366 120 377 111 377 111 c 1
 377 114 384 118 393 118 c 0
 403 118 416 114 427 99 c 1
 435 90 438 79 438 69 c 0
 438 46 423 29 403 18 c 1
 404 12 405 7 405 1 c 0
 405 -25 396 -53 382 -86 c 0
 363 -132 342 -162 297 -194 c 0
 237 -237 245 -248 129 -251 c 1
 128 -250 128 -249 128 -248 c 0
 128 -228 236 -204 267 -101 c 1
 230 -73 187 -94 187 -37 c 0xc0
 187 -20 202 25 232 60 c 1
EndSplineSet
Validated: 1
EndChar

StartChar: kgreenlandic
Encoding: 312 312 107
Width: 420
Flags: W
HStem: 504 20G<277 304.5 433.5 438.5>
VStem: 101 266<209.266 289.692> 230 208<48.3722 113.531> 233 131<143 208>
LayerCount: 2
Fore
SplineSet
327 306 m 0x90
 350.721 290.905 367 259.135 367 228 c 0xc0
 367 217 364 195 364 174 c 0x90
 364 164 364 154 365 143 c 1
 373 131 l 2
 374 130 375 129 376 128 c 1
 380 128 388 130 395 130 c 1
 417.138 123.85 414.908 126.092 427 114 c 1
 434 104 438 93 438 82 c 0
 438 77 437 57 419 39 c 0
 401 22 379 15 358 15 c 0
 335 15 307.005 23.0216 294 26 c 0
 272.008 31.0365 256 47 245 53 c 0
 238 57 233 63 232 72 c 0
 230 91 230 108 230 120 c 0xa0
 230 145 233 170 233 183 c 0x90
 233 190 233 197 231 208 c 1
 215 209 l 1
 203 165 201 127 174 81 c 1
 147 24 l 2
 139.882 9.76457 121.792 6 100 6 c 0
 63 6 35 29 20 67 c 0
 19 70 18 73 18 76 c 0
 18 78 18 80 19 82 c 0
 41 178 101 219 101 253 c 0xc0
 101 256 100 258 100 261 c 0
 100 265 101 268 103 272 c 0
 123.601 313.202 175 419 199 484 c 0
 201 489 204 493 208 496 c 0
 222 505 262 524 292 524 c 0
 317 524 334 509 334 487 c 0
 334 479 332 470 328 460 c 0
 327 459 327 458 327 456 c 1
 338 462 350 466 364 472 c 0
 385 481 399 495 418 501 c 0
 424 503 430 505 437 505 c 1
 440 504 449 505 461 498 c 0
 465 495 469 493 473 488 c 0
 474 487 481 468 481 466 c 0
 479 433 454 393 447 385 c 0
 447 384 444 382 442 381 c 0
 414 358 362 357 322 348 c 1
 293.093 332.514 294.681 336.841 275 327 c 1
 280 326 285 324 292 321 c 0
 313 312 317 312 327 306 c 0x90
EndSplineSet
Validated: 1
EndChar

StartChar: Lcommaaccent
Encoding: 315 315 110
Width: 622
Flags: W
HStem: 0 129<43.0112 113.851> 7 105<268.877 401.428> 635 125<464.192 531.242> 653 106<199.617 288.999> 665 93<198.75 255.339>
VStem: 387 218<-84.2546 6.01712>
LayerCount: 2
Fore
SplineSet
184 411 m 1x84
 222 493 250 535 279 616 c 0
 285 631 288 647 289 652 c 0
 289 653 288 653 286 653 c 0x94
 281 653 272 650 256 650 c 0
 242 650 222 653 196 665 c 1
 183 673 180 679 183 693 c 1
 201 742 l 2
 206 753 212 758 224 758 c 0x0c
 241 759 255 759 267 759 c 0x14
 302 759 321 757 336 757 c 0
 345 757 353 758 362 760 c 0
 364.8 760.6 367.48 760.84 370.08 760.84 c 0
 380.48 760.84 389.6 757 400 757 c 0
 416 757 434 760 454 760 c 0
 482 760 514 754 544 728 c 0
 550 722 553 716 552 707 c 1
 552 707 555 700 555 690 c 0
 555 680 552 667 538 655 c 0
 521 640 504 635 490 635 c 0
 478 635 468 639 464 644 c 1
 427 588 451 568 382 408 c 1
 271 141 l 1
 272 134 268 140 269 131 c 0
 270 116 282 112 300 112 c 0
 319 112 344 116 371 116 c 0
 401 116 420 125 453 132 c 1
 497 151 478 184 572 264 c 0
 579 269 585 271 593 270 c 2
 629 264 l 1
 643 260 649 256 650 242 c 1
 650 226 l 2
 650 161 629 91 596 38 c 1
 602 24 605 9 605 -5 c 0
 605 -31 596 -59 582 -92 c 0
 563 -138 542 -168 497 -200 c 0
 437 -243 445 -254 329 -257 c 1
 328 -256 328 -255 328 -254 c 0
 328 -234 436 -210 467 -107 c 1
 430 -79 387 -100 387 -43 c 0
 387 -33 392 -14 402 7 c 1
 388 7 374 7 360 7 c 2
 331 7 l 1x64
 265 5 213 0 157 0 c 0
 121 0 84 1 41 8 c 1
 25 13 20 17 20 33 c 0
 20 38 14 52 14 68 c 0
 14 82 18 97 33 111 c 0
 48 125 66 129 80 129 c 0
 97 129 111 124 114 122 c 1
 133 215 97 215 184 411 c 1x84
EndSplineSet
Validated: 1
EndChar

StartChar: lcommaaccent
Encoding: 316 316 111
Width: 302
Flags: W
HStem: 740 20G<296 331.5>
VStem: 62.4014 218<-78.2546 3.1957> 216 216<655.468 728.216>
LayerCount: 2
Fore
SplineSet
269 189 m 0xa0
 300.227 189 323 173.714 323 145 c 0
 323 123 306 107 306 106 c 0
 304 100 300 96 294 92 c 0
 279.402 83.9711 266.669 77.8068 254.73 72.1461 c 1
 271.261 51.4672 280.401 24.1563 280.401 1 c 0
 280.401 -25 271.244 -52.934 257.401 -86 c 0
 238.183 -131.908 217.342 -161.917 172.401 -194 c 0
 112.322 -236.889 120.401 -248 4.40137 -251 c 1
 3.40137 -250 3.40137 -249 3.40137 -248 c 0
 3.40137 -228 111.401 -204 142.401 -101 c 1
 105.401 -73 62.4014 -94 62.4014 -37 c 0xc0
 62.4014 -28.4398 66.1466 -13.2848 73.4744 4.00456 c 1
 57.4618 6.59103 46.637 13.3894 41 15 c 0
 29 19 24 24 23 36 c 1
 23 43 l 2
 23 91 48 160 48 160 c 1
 183 449 l 1
 222 530 254 553 271 628 c 1
 269 627 266 627 262 627 c 0
 252 627 236 632 223 655 c 0
 218 665 216 674 216 683 c 0
 216 727 270 760 322 760 c 0
 341 760 359 756 375 746 c 1
 421 736 432 709 432 680 c 0
 432 661 426.979 640.004 424 623 c 0
 419.972 600.005 343 462 304 352 c 0
 298 336 260 265 225 184 c 1
 243 188 258 189 269 189 c 0xa0
EndSplineSet
Validated: 1
EndChar

StartChar: Lslash
Encoding: 321 321 116
Width: 622
VWidth: 1080
Flags: W
HStem: 0 129<43.0112 113.851> 7 105<268.877 456.946> 184 87<-44.73 37> 553 76<573.606 676.856> 635 125<464.192 531.242> 650 109<199.593 288.999>
LayerCount: 2
Fore
SplineSet
256 650 m 0xb4
 244.703 650 182 657.922 182 684 c 0
 182 687 182 690 183 693 c 2
 201 742 l 2
 206 753 212 758 224 758 c 0
 241 759 255 759 267 759 c 0xb4
 302 759 321 757 336 757 c 0
 345 757 353 758 362 760 c 0
 364 760 367 761 369 761 c 0
 371 761 373 760 375 760 c 0
 383 758 391 757 400 757 c 0
 416 757 434 760 454 760 c 0
 482 760 514 754 544 728 c 0
 550 722 553 716 552 707 c 1
 552 707 555 700 555 690 c 0
 555 680 552 667 538 655 c 0
 521 640 504 635 490 635 c 0
 478 635 468 639 464 644 c 1
 434 599 444 577 414 489 c 1
 507 544 487 541 536 571 c 1
 532 575 530 584 532 589 c 0
 532 590 533 592 534 593 c 0
 542 608 560 618 573 623 c 0
 576 624 595 628 597 628 c 0
 612 629 621 629 627 629 c 0
 639 629 637 628 645 628 c 0
 659 628 664 623 689 612 c 0
 693 611 694 609 694 605 c 0
 694 601 692 596 689 590 c 0
 680.745 575.848 655.536 553 633 553 c 0
 623 553 619 556 618 556 c 0
 491 484 600 545 382 408 c 1
 271 141 l 1
 272 134 268 140 269 131 c 0
 270 116 282 112 300 112 c 0
 319 112 344 116 371 116 c 0
 401 116 420 125 453 132 c 1
 497 151 478 184 572 264 c 0
 579 269 585 271 593 270 c 2
 629 264 l 1
 643 260 649 256 650 242 c 1
 650 226 l 2
 650 159 628 86 592 33 c 0
 589 29 585 26 579 24 c 0
 533 9 491 6 448 6 c 0
 420 6 391 7 360 7 c 2
 331 7 l 1x78
 265 5 213 0 157 0 c 0
 121 0 84 1 41 8 c 1
 25 13 20 17 20 33 c 0
 20 38 14 52 14 68 c 0
 14 82 18 97 33 111 c 0
 48 125 66 129 80 129 c 0
 97 129 111 124 114 122 c 1
 122 159 120 182 122 208 c 1
 109 201 96 196 90 192 c 0
 85 189 81 187 76 187 c 0
 36 187 17 184 -9 184 c 0
 -22 184 -36 185 -55 187 c 0
 -59 188 -61 190 -61 194 c 1
 -62 196 -70 201 -70 211 c 0
 -70 216 -69 221 -65 227 c 0
 -64 229 -61 232 -60 235 c 1
 -43 256 -16 263 0 268 c 0
 6 270 9 271 13 271 c 0
 29 271 36 265 37 265 c 2
 152 333 l 1
 189.189 435.27 244.42 519.415 279 616 c 0
 285 631 288 647 289 652 c 0
 289 653 288 653 286 653 c 0
 281 653 272 650 256 650 c 0xb4
EndSplineSet
Validated: 1
EndChar

StartChar: lslash
Encoding: 322 322 117
Width: 394
VWidth: 1000
Flags: W
HStem: 288 58<-30.003 41> 535 49<510.048 564.21> 574 12<561.035 564.875> 740 20G<316 351.5>
VStem: 236 216<638.053 728.216>
LayerCount: 2
Fore
SplineSet
-45 294 m 1xd8
 -47 296 -48 297 -48 301 c 0
 -48 305 -45 312 -32 322 c 0
 -11 340 20 346 26 346 c 0
 37 346 40 342 41 342 c 2
 185 411 l 1
 203 449 l 2
 242 530 274 553 291 628 c 1
 289 627 286 627 282 627 c 0
 257 627 236 656 236 683 c 0
 236 727 290 760 342 760 c 0
 361 760 379 756 395 746 c 1
 441 736 452 709 452 680 c 0
 452 622 431 591 392 510 c 1
 429 529 427 531 459 546 c 1
 459 550 l 2
 459 566 498 584 516 584 c 1xd8
 527 585 533 586 537 586 c 0xb8
 545 586 543 584 548 584 c 0xd8
 557 584 560 582 573 574 c 0xb8
 574 574 575 573 575 572 c 0
 575 563 542 535 519 535 c 0
 513 535 511 536 510 537 c 1
 420 495 474 520 373 469 c 1
 355 430 337 390 324 352 c 0
 318 336 280 265 245 184 c 1
 263 188 278 189 289 189 c 0
 338 189 343 155 343 145 c 0
 343 123 326 107 326 106 c 0
 319 86 263 72 214 40 c 0
 212 38 210 38 208 37 c 0
 179 27 157 5 109 3 c 0
 108 3 107 3 106 3 c 0
 83 3 68 13 61 15 c 0
 49 19 44 24 43 36 c 1
 43 43 l 2
 43 91 68 160 68 160 c 1
 163 364 l 1
 110 337 l 1
 110 337 109 336 107 335 c 1
 115 334 112 327 106 321 c 0
 88 303 46 291 45 291 c 0
 18 291 4 288 -13 288 c 0
 -40 288 -45 291 -45 294 c 1xd8
EndSplineSet
Validated: 1
EndChar

StartChar: Ncommaaccent
Encoding: 325 325 120
Width: 763
Flags: W
HStem: 0 157<59.0218 165.852> 8 159<327.095 397.965> 623 143<242.55 311.859> 633 135<666.798 753.758 905.056 975.603> 644 123<877.695 937.159>
VStem: 520.901 218<-84.2546 20.7605> 650 342<656.657 756.999>
LayerCount: 2
Fore
SplineSet
339 167 m 0x4c
 366.867 167 429 146.348 429 92 c 0
 429 58 399 35 394 24 c 0
 387 11 377 8 353 8 c 0x4c
 332 8 301 10 253 10 c 0
 236 10 216 10 194 9 c 1
 189 9 l 1
 185 10 181 10 177 10 c 0
 151 10 121 0 87 0 c 0
 70 0 51 2 32 11 c 1
 19 20 16 25 19 39 c 0
 24 59 14 97 50 128 c 0
 77 152 109 157 133 157 c 0
 150 157 163 154 166 154 c 1
 184 236 191 294 241 448 c 1
 270 543 266 556 310 615 c 1
 312 625 l 1
 309 624 305 623 299 623 c 0
 286 623 265 627 228 641 c 1
 215 648 212 654 212 668 c 1
 224 733 l 1
 227 743 231 748 241 752 c 0
 274 762 311 766 347 766 c 0xa4
 391 766 435 761 474 756 c 0
 480 756 484 754 489 750 c 0
 568 674 554 617 596 517 c 0
 623 455 639 406 649 371 c 1
 654 403 666 445 688 487 c 1
 708 537 722 564 739 615 c 0
 747 640 759 643 754 642 c 0
 749 641 734 633 715 633 c 0
 701 633 683 638 666 656 c 0
 653 670 650 685 650 698 c 0
 650 713 654 726 654 732 c 0
 655 746 658 753 672 757 c 0
 699 766 723 768 746 768 c 0x12
 770 768 793 766 818 766 c 2
 841 766 l 1x22
 850 765 858 764 866 764 c 0
 888 764 909 767 931 767 c 0x0a
 939 767 946 767 954 766 c 1
 968 762 974 758 976 744 c 0
 977 738 992 717 992 692 c 0x22
 992 679 988 665 975 652 c 0
 963 639 949 635 938 635 c 0
 920 635 906 644 905 644 c 0
 835 600 877 589 807 414 c 1
 770.163 308.095 785.06 189.469 715.794 62.8074 c 1
 730.704 42.5869 738.901 16.9303 738.901 -5 c 0
 738.901 -31 729.744 -58.934 715.901 -92 c 0
 696.683 -137.908 675.842 -167.917 630.901 -200 c 0
 570.822 -242.889 578.901 -254 462.901 -257 c 1
 461.901 -256 461.901 -255 461.901 -254 c 0
 461.901 -234 569.901 -210 600.901 -107 c 1
 563.901 -79 520.901 -100 520.901 -43 c 0
 520.901 -24.8202 537.794 23.1053 570.021 58.0488 c 1
 549.531 90.879 550.136 129.017 538 159 c 0
 501 247 489 298 460 381 c 1
 436 433 422 470 415 496 c 1
 415 447 383 341 374 314 c 0
 355.3 257.899 338 232 330 181 c 0
 328 172 327 167 327 165 c 1
 329 166 333 167 339 167 c 0x4c
EndSplineSet
Validated: 1
EndChar

StartChar: ncommaaccent
Encoding: 326 326 121
Width: 527
Flags: W
HStem: 514 20G<257.536 282.5>
VStem: 294.323 218<-75.699 23.1137> 394 150<292.11 423.5>
LayerCount: 2
Fore
SplineSet
343 293 m 2xa0
 242 89 l 1
 238 85 236 8 182 0 c 0
 174 -1 165 0 157 0 c 0
 110 0 66 19 52 88 c 0
 51 92 51 95 52 99 c 0
 75 189 109 200 126 240 c 1
 147 286 166 297 167 328 c 1
 161 316 145 298 121 298 c 0
 113 298 106.016 299.036 97 303 c 0
 74.0413 313.093 70 334 70 348 c 0
 70 356 71 361 71 361 c 2
 71 363 70 365 70 367 c 0
 70 408 166 475 185 494 c 1
 212.049 507.524 239.071 534 276 534 c 0
 289 534 303 530 318 521 c 0
 330 514 345 471 346 449 c 1
 365 466 l 1
 384 488 l 2
 387 490 390 492 394 493 c 0
 402 495 426 521 457 521 c 0
 467 521 478 518 489 512 c 0
 534 486 544 444 544 403 c 0xa0
 544 384 542 365 540 348 c 0
 533 282 489 258 479 222 c 1
 517 222 545 190 545 151 c 0
 545 106.032 512.948 85.9478 488.845 71.8628 c 1
 503.99 51.5665 512.323 25.667 512.323 3.55566 c 0
 512.323 -22.4443 503.166 -50.3784 489.323 -83.4443 c 0
 470.105 -129.353 449.264 -159.362 404.323 -191.444 c 0
 344.244 -234.334 352.323 -245.444 236.323 -248.444 c 1
 235.323 -247.444 235.323 -246.444 235.323 -245.444 c 0
 235.323 -225.444 343.323 -201.444 374.323 -98.4443 c 1
 337.323 -70.4443 294.323 -91.4443 294.323 -34.4443 c 0xc0
 294.323 -23.0538 300.955 0.0135937 313.834 24.2488 c 1
 305.808 36.2897 292 57.2819 292 98 c 0
 292 113 332 185 352 238 c 1
 359 273 376 286 385 328 c 0
 389 349 394 363 394 372 c 0
 394 377 392 380 388 381 c 1
 381 381 360.086 326.957 343 293 c 2xa0
EndSplineSet
Validated: 1
EndChar

StartChar: napostrophe
Encoding: 329 329 124
Width: 527
VWidth: 1000
Flags: W
HStem: 499.404 21G<125.008 154.258> 514 20G<257.536 282.5 441.5 462>
VStem: 154.258 109<582.677 654.474> 394 150<292.11 423.5>
LayerCount: 2
Fore
SplineSet
343 293 m 2x70
 242 89 l 1
 238 85 236 8 182 0 c 0
 174 -1 165 0 157 0 c 0
 110 0 66 19 52 88 c 0
 51 92 51 95 52 99 c 0
 75 189 109 200 126 240 c 1
 147 286 166 297 167 328 c 1
 161 316 145 298 121 298 c 0
 113 298 106.016 299.036 97 303 c 0
 74.0413 313.093 70 334 70 348 c 0
 70 356 71 361 71 361 c 2
 71 363 70 365 70 367 c 0
 70 408 166 475 185 494 c 1
 212.049 507.524 239.071 534 276 534 c 0
 289 534 303 530 318 521 c 0
 330 514 345 471 346 449 c 1
 365 466 l 1
 384 488 l 2
 387 490 390 492 394 493 c 0
 402 495 426 521 457 521 c 0
 467 521 478 518 489 512 c 0
 534 486 544 444 544 403 c 0
 544 384 542 365 540 348 c 0
 533 282 489 258 479 222 c 1
 517 222 545 190 545 151 c 0
 545 92.1777 490.154 75.9336 470 60 c 0
 445.987 41.0166 429 33 407 19 c 0
 406 19 383 11 353 11 c 0
 343 11 333 12 322 14 c 0
 316 15 318 18 314 24 c 0
 306 36 292 57 292 98 c 0
 292 113 332 185 352 238 c 1
 359 273 376 286 385 328 c 0
 389 349 394 363 394 372 c 0
 394 377 392 380 388 381 c 1
 381 381 360.086 326.957 343 293 c 2x70
219.758 676.904 m 0
 246.758 676.904 263.258 647.404 263.258 625.404 c 0
 263.258 612.404 258.679 598.437 251.758 581.904 c 0
 242.148 558.95 231.728 543.946 209.258 527.904 c 0
 179.218 506.46 183.258 500.904 125.258 499.404 c 0xb0
 124.758 499.904 124.758 500.404 124.758 500.904 c 0
 124.758 510.904 178.758 522.904 194.258 574.404 c 1
 175.758 588.404 154.258 577.904 154.258 606.404 c 0
 154.258 621.404 177.258 676.904 219.758 676.904 c 0
EndSplineSet
Validated: 1
EndChar

StartChar: Eng
Encoding: 330 330 125
Width: 763
VWidth: 1080
Flags: W
HStem: 0 157<59.0218 165.852> 8 159<327.095 397.965> 623 143<242.55 311.859> 633 135<666.798 753.758 905.056 975.603> 644 123<877.695 937.159>
VStem: 650 342<656.657 756.999>
LayerCount: 2
Fore
SplineSet
339 167 m 0x4c
 366.867 167 429 146.348 429 92 c 0
 429 58 399 35 394 24 c 0
 387 11 377 8 353 8 c 0x4c
 332 8 301 10 253 10 c 0
 236 10 216 10 194 9 c 1
 189 9 l 1
 185 10 181 10 177 10 c 0
 151 10 121 0 87 0 c 0
 70 0 51 2 32 11 c 1
 19 20 16 25 19 39 c 0
 24 59 14 97 50 128 c 0
 77 152 109 157 133 157 c 0
 150 157 163 154 166 154 c 1
 184 236 191 294 241 448 c 1
 270 543 266 556 310 615 c 1
 312 625 l 1
 309 624 305 623 299 623 c 0
 286 623 265 627 228 641 c 1
 215 648 212 654 212 668 c 1
 224 733 l 1
 227 743 231 748 241 752 c 0
 274 762 311 766 347 766 c 0xa4
 391 766 435 761 474 756 c 0
 480 756 484 754 489 750 c 0
 568 674 554 617 596 517 c 0
 623 455 639 406 649 371 c 1
 654 403 666 445 688 487 c 1
 708 537 722 564 739 615 c 0
 747 640 759 643 754 642 c 0
 749 641 734 633 715 633 c 0
 701 633 683 638 666 656 c 0
 653 670 650 685 650 698 c 0
 650 713 654 726 654 732 c 0
 655 746 658 753 672 757 c 0
 699 766 723 768 746 768 c 0x14
 770 768 793 766 818 766 c 2
 841 766 l 1x24
 850 765 858 764 866 764 c 0
 888 764 909 767 931 767 c 0x0c
 939 767 946 767 954 766 c 1x24
 968 762 974 758 976 744 c 0
 977 738 992 717 992 692 c 0
 992 679 988 665 975 652 c 0
 963 639 949 635 938 635 c 0
 920 635 906 644 905 644 c 0
 835 600 877 589 807 414 c 1
 767 299 767.423 180.274 696 30 c 0
 679.87 -3.93807 624 -127 556 -207 c 1
 552 -207 522 -242 506 -242 c 1
 519 -174 608 -6 608 19 c 0
 608 21 608 22 607 22 c 0
 547 59 555 117 538 159 c 0
 501 247 489 298 460 381 c 1
 436 433 422 470 415 496 c 1
 415 447 383 341 374 314 c 0
 355.3 257.899 338 232 330 181 c 0
 328 172 327 167 327 165 c 1
 329 166 333 167 339 167 c 0x4c
EndSplineSet
Validated: 1
EndChar

StartChar: eng
Encoding: 331 331 126
Width: 495
VWidth: 1000
Flags: W
HStem: 514 20G<257.536 282.5 441.5 462>
VStem: 394 150<288.747 423.5>
LayerCount: 2
Fore
SplineSet
149 -227 m 0
 134.929 -227 125 -225.192 125 -207 c 0
 125 -193 131 -169 150 -140 c 0
 167 -115 271 63 292 98 c 0
 301 113 332 185 352 238 c 1
 359 273 376 286 385 328 c 0
 389 349 394 363 394 372 c 0
 394 377 392 380 388 381 c 1
 381 381 360.086 326.957 343 293 c 2
 242 89 l 1
 238 85 236 8 182 0 c 0
 174 -1 165 0 157 0 c 0
 110 0 66 19 52 88 c 0
 51 92 51 95 52 99 c 0
 75 189 109 200 126 240 c 1
 147 286 166 297 167 328 c 1
 161 316 145 298 121 298 c 0
 113 298 106.016 299.036 97 303 c 0
 74.0409 313.093 70 334 70 348 c 0
 70 356 71 361 71 361 c 2
 71 363 70 365 70 367 c 0
 70 408 166 475 185 494 c 1
 212.049 507.524 239.071 534 276 534 c 0
 289 534 303 530 318 521 c 0
 330 514 345 471 346 449 c 1
 365 466 l 1
 384 488 l 2
 387 490 390 492 394 493 c 0
 402 495 426 521 457 521 c 0
 467 521 478 518 489 512 c 0
 534 486 544 444 544 403 c 0
 544 384 542 365 540 348 c 0
 533 282 517 266 498 215 c 0
 468 136 432 35 414 16 c 0
 411 13 318.927 -111.917 296 -132 c 0
 244.838 -176.815 191 -227 149 -227 c 0
EndSplineSet
Validated: 1
EndChar

StartChar: OE
Encoding: 338 338 131
Width: 1152
VWidth: 1080
Flags: W
HStem: -4 75<319.418 468.106> 12 169<1005.89 1099.31> 15 110.747<842.043 996.868> 15 103<816.601 924.427 925.06 986.966> 353 87<872.005 913.751> 516 21G<1150.5 1168> 518 20G<1023 1038> 636 108<410.191 453.766 930.188 1074.46> 682 83<483.625 613.405>
VStem: 79 139<181.862 428.458> 689 183<440.14 514.476> 905 160<261.145 351.762>
LayerCount: 2
Fore
SplineSet
505 12 m 1x4870
 471 2 418 -4 381 -4 c 0
 356 -4 330 -1 300 6 c 0
 239 21 214 51 169 73 c 1
 99 134 91 189 79 285 c 1
 79 287 l 1
 78 311 76 333 76 354 c 0
 76 391 80 425 92 469 c 0
 108 529 122 573 169 623 c 0
 226 683 279 701 350 730 c 0
 361 734 367 735 371 736 c 0
 374 736 384 645 384 629 c 1
 344 587 315 569 282 521 c 0
 256 483 253 456 234 414 c 1
 225 366 218 326 218 287 c 0
 218 249 225 211 246 168 c 1
 287 133 299 95 350 77 c 0
 362 73 372 71 383 71 c 0
 394 71 406 73 420 77 c 0
 495 97 535 128 588 185 c 0
 611 210 626 233 638 258 c 1
 642 271 647 285 654 300 c 1
 670 352 689 425 689 476 c 0
 689 503 685 531 676 563 c 0
 663 608 649 637 610 664 c 0
 592 677 576 682 556 682 c 0x88f0
 550 682 544 682 538 681 c 0
 488 676 471 644 454 636 c 1
 449 635 445 635 442 635 c 0
 434 635 427 636 418 636 c 1x0970
 415 639 396 703 396 734 c 0
 396 743 398 749 402 750 c 0
 430 755 459 763 491 763 c 2
 501 763 l 1
 512 765 521 765 530 765 c 0x08f0
 577 765 608 746 646 726 c 0
 647 726 648 725 649 725 c 0
 652 723 655 720 659 718 c 1
 664 725 l 1
 668 736 673 741 686 742 c 0
 749 748 810 745 885 753 c 0
 887 753 889 753 891 753 c 0
 928 749 946 745 979 744 c 1
 990 744 l 2
 1020 744 1040 747 1077 748 c 0
 1089 748 1107 755 1127 755 c 0
 1140 755 1154 753 1169 744 c 0
 1218 716 1214 668 1226 645 c 0
 1228 643 1228 641 1229 638 c 0
 1231 625 1233 611 1233 595 c 0
 1233 579 1231 561 1221 541 c 1
 1215 532 1207 535 1198 528 c 0
 1197 527 1178 516 1158 516 c 0x0d70
 1143 516 1127 522 1116 540 c 0
 1088 586 1088 609 1059 627 c 0
 1045 635 1033 637 1017 637 c 0
 1006 637 994 636 977 636 c 2
 973 636 l 2
 958 636 950 639 942 639 c 0
 938 639 934 639 930 636 c 1
 915 619 912 579 907 558 c 0
 894 502 872 472 872 448 c 0
 872 445 872 443 873 440 c 0
 874 440 889 435 909 435 c 0
 920 435 933 437 945 443 c 0
 960 451 939 495 986 526 c 0
 1001 536 1016 538 1030 538 c 0
 1046 538 1059 535 1068 535 c 2
 1070 535 l 1
 1087 534 1094 531 1097 515 c 0
 1099 505 1100 496 1100 488 c 0
 1100 435 1070 396 1067 354 c 0
 1067 351 1066 349 1065 347 c 0
 1052 318 1059 286 1034 244 c 0
 1024 229 999 221 978 221 c 0
 959 221 932 230 923 248 c 1
 910 280 905 304 905 320 c 0
 905 337 910 347 914 352 c 1
 906 352 893 353 880 353 c 0
 867 353 853 352 844 351 c 1
 813 292 818 241 799 158 c 1
 804 154 823 130 841 124 c 0
 853 120 863 118 874 118 c 0x1b70
 886 118 899 121 918 125 c 0
 919.941 125.529 922.163 125.747 924.538 125.747 c 0x2870
 935.623 125.747 950.059 121 955 121 c 0
 972 121 977 132 1016 169 c 0
 1020 173 1024 175 1030 176 c 0
 1037 177 1051 181 1066 181 c 0x4870
 1081 181 1099 177 1112 161 c 0
 1124 147 1128 132 1128 118 c 0x1870
 1128 83 1102 52 1099 32 c 1
 1095 19 1090 14 1076 12 c 0x4870
 1066 11 1054 11 1041 11 c 0
 998 11 942 15 882 15 c 0x2870
 857 15 831 14 806 12 c 1
 505 12 l 1x4870
EndSplineSet
Validated: 1
LCarets2: 1 0 
Ligature2: "'dlig' Discretionary Ligatures in Latin lookup 3-1" O E
EndChar

StartChar: oe
Encoding: 339 339 132
Width: 573
VWidth: 1000
Flags: W
HStem: 7 116<167.7 214.702 357.939 434.962> 407 114<470.478 559.439> 474 20G<281.439 311.383>
VStem: 45.4395 121.999<123.521 255.62> 526.439 109<353.388 446.5>
LayerCount: 2
Fore
SplineSet
282.439 43 m 1xd8
 260.89 23.1074 224.426 7 182.439 7 c 0
 143.439 7 107.439 22 77.4395 52 c 0
 50.4395 80 45.4395 112 45.4395 142 c 0
 45.4395 153 46.4395 163 46.4395 173 c 0
 48.4395 232 63.5059 269.966 89.4395 320 c 0
 120.519 379.959 140.601 443.631 217.439 477 c 0
 242.492 487.88 268.439 494 294.439 494 c 0xb8
 328.328 494 375.467 478.622 394.439 447 c 1
 413.439 468 436.439 487 469.439 500 c 0
 491.439 509 519.439 521 549.439 521 c 0
 569.439 521 590.439 515 609.439 497 c 0
 628.439 478 635.439 457 635.439 436 c 0
 635.439 407 623.439 378 614.439 356 c 1
 597.439 308 566.339 288.123 534.439 262 c 0
 471.24 210.244 423.439 226 402.439 190 c 0
 397.439 181 395.439 172 395.439 164 c 0
 395.439 143 409.439 126 412.439 126 c 0
 425.439 126 427.439 147 466.439 169 c 0
 470.439 171 484.439 191 511.439 191 c 0
 514.439 191 517.439 190 520.439 190 c 0
 547.439 186 555.439 164 555.439 164 c 1
 559.439 159 562.439 155 563.439 148 c 0
 563.439 146 563.439 144 563.439 142 c 0
 563.439 78 434.439 23 432.439 22 c 0
 415.439 19 393.439 0 362.439 0 c 0
 353.439 0 343.439 3 332.439 7 c 0
 310.439 14 294.439 27 282.439 43 c 1xd8
207.439 290 m 0
 177.19 237.344 167.439 205.032 167.439 138 c 0
 167.439 128 168.439 123 174.439 123 c 0
 179.439 123 186.439 126 197.439 132 c 0
 224.439 147 228.424 166.009 250.439 206 c 0
 277.421 255.011 290.439 280 297.439 331 c 0
 301.439 358 301.439 360 299.439 362 c 0
 295.439 367 289.439 369 272.439 363 c 0
 239.439 351 230.439 330 207.439 290 c 0
526.439 390 m 0
 526.439 398.189 524.167 407 514.439 407 c 0xd8
 511.439 407 505.439 406 496.439 403 c 0
 477.439 396 470.439 388 457.439 363 c 1
 454.439 349 454.439 334 450.439 316 c 1
 479.439 319 495.439 327 511.439 353 c 0
 521.439 370 526.439 381 526.439 390 c 0
EndSplineSet
Validated: 1
LCarets2: 1 0 
Ligature2: "'dlig' Discretionary Ligatures in Latin lookup 3-1" o e
EndChar

StartChar: Rcommaaccent
Encoding: 342 342 133
Width: 667
Flags: W
HStem: 0 144<295.086 355.998> 4 128<33.7998 143.148> 655 110<243.981 297.906> 669 94<475.19 552.251>
VStem: 17 356<10.6895 108.39> 444.901 218<-84.2546 19.9676> 573 172<492.052 650.741>
LayerCount: 2
Fore
SplineSet
210 9 m 0x9c
 196.929 9 181.764 5 168 5 c 1
 159 6 150 7 141 7 c 0
 118 7 96 4 73 4 c 0
 65 4 57 4 49 5 c 0
 33 9 29 14 27 29 c 0
 26 34 17 50 17 70 c 0
 17 82 21 96 33 109 c 0
 50 127 71 132 88 132 c 0
 109 132 125 125 127 125 c 1
 179 205 152 243 226 407 c 1
 241 465 245 506 268 572 c 0
 282 610 298 618 299 637 c 0
 300 652 299 652 298 653 c 0
 296 654 294 655 292 655 c 0
 281 655 264 646 243 646 c 0
 228 646 212.066 650.076 195 665 c 0
 180.058 678.066 177 695 177 707 c 0
 177 714 178 720 178 723 c 0
 176 732 178 739 184 745 c 0
 200 761 226 765 257 765 c 0x6c
 292 765 333 760 375 760 c 0
 391 760 407 761 422 763 c 1
 429 763 l 1
 493 756 539 766 610 743 c 0
 648 730 690 722 718 677 c 0
 737 646 745 615 745 585 c 0x1a
 745 556 738 527 725 497 c 0
 702 442 660 423 621 395 c 0
 593 376 574 375 558 364 c 0
 529 345 522 346 520 339 c 0
 520 337 519 335 519 333 c 0
 519 315 539 307 558 269 c 1
 589 211 586 179 623 153 c 1
 625 153 635 158 649 158 c 0
 662 158 677 154 689 136 c 0
 697 123 701 110 701 98 c 0
 701 67.8012 683.241 41.2814 658.489 24.5707 c 1
 661.391 14.5103 662.901 4.41197 662.901 -5 c 0
 662.901 -31 653.744 -58.934 639.901 -92 c 0
 620.683 -137.908 599.842 -167.917 554.901 -200 c 0
 494.822 -242.889 502.901 -254 386.901 -257 c 1
 385.901 -256 385.901 -255 385.901 -254 c 0
 385.901 -234 493.901 -210 524.901 -107 c 1
 487.901 -79 444.901 -100 444.901 -43 c 0
 444.901 -24.1768 463.011 26.5346 497.5 61.7079 c 1
 479.896 86.9781 471.137 116.159 459 142 c 0
 433.137 197.064 386 231 386 308 c 2
 386 322 l 2
 386 330 388 320 368 315 c 0
 352 312 340 288 326 276 c 1
 318 178 294 172 294 147 c 2
 294 143 l 1
 296 144 299 144 303 144 c 0
 318 144 344 138 361 116 c 0
 370 104 373 92 373 80 c 0
 373 57 360 37 359 27 c 0
 357 16 353 10 342 6 c 0
 330 2 317 0 305 0 c 0
 275 0 243 9 210 9 c 0x9c
378 404 m 1
 381 404 412 418 447 424 c 0
 491 432 513 439 536 468 c 0
 562 501 573 530 573 565 c 0
 573 580 571 597 567 615 c 0
 563 639 556 650 535 662 c 0
 527 667 522 669 516 669 c 0x1a
 512 669 508 668 503 666 c 0
 474 655 467 636 444 597 c 0
 421 558 421 532 404 481 c 1
 381 452 393 426 378 404 c 1
EndSplineSet
Validated: 1
EndChar

StartChar: rcommaaccent
Encoding: 343 343 134
Width: 401
Flags: W
HStem: 456 20G<220.5 243 414 425.5>
VStem: 41.9014 218<-78.2546 4.52916>
LayerCount: 2
Fore
SplineSet
202.373 97.6539 m 1
 238.66 81.2581 259.901 36.3014 259.901 1 c 0
 259.901 -25 250.744 -52.934 236.901 -86 c 0
 217.683 -131.908 196.842 -161.917 151.901 -194 c 0
 91.8224 -236.889 99.9014 -248 -16.0986 -251 c 1
 -17.0986 -250 -17.0986 -249 -17.0986 -248 c 0
 -17.0986 -228 90.9014 -204 121.901 -101 c 1
 84.9014 -73 41.9014 -94 41.9014 -37 c 0
 41.9014 -28.2161 45.8449 -12.4882 53.5563 5.36443 c 1
 36.067 17.1658 24 37.5975 24 64 c 0
 24 104 57 131 68 152 c 0
 101 220 138.985 240.004 155 297 c 0
 163.992 329.002 170 346 170 353 c 0
 170 356 170 357 168 358 c 1
 161 358 110 300 108 293 c 1
 99 290 92 288 87 288 c 0
 73.9014 288 66 320.903 66 337 c 0
 66 397 133 425 141 441 c 1
 187 470 l 1
 198 473 213 476 228 476 c 0
 258 476 289 465 301 421 c 1
 311 431 327 441 345 446 c 0
 353 449 367 467 402 469 c 0
 406 469 411 470 417 470 c 0
 434 470 458 466 471 441 c 0
 477 430 479 419 479 409 c 0
 479 378 457 353 446 336 c 0
 442 329 428 295 395 295 c 0
 393 295 391 295 389 295 c 0
 359 298 373 308 364 331 c 0
 361 338 358 341 354 341 c 0
 337 341 311 269 271 215 c 0
 240.597 173.956 227.974 139.251 202.373 97.6539 c 1
EndSplineSet
Validated: 1
EndChar

StartChar: Scedilla
Encoding: 350 350 141
Width: 449
Flags: W
HStem: 642 121<313.34 405.23>
VStem: 36 155<118 276.691> 44 147<147.265 273.55> 145 144<504.205 617.763> 198.488 218<-86.4216 8.39352> 346 134<134.131 276.346> 431 128<510.266 596.812>
LayerCount: 2
Fore
SplineSet
123 84 m 1x88
 120 84 105 76 86 76 c 0
 73 76 58 80 44 95 c 0xa8
 38 102 36 112 36 124 c 0xc0
 36 150 44 183 44 208 c 0
 44 211 44 214 44 217 c 0xa0
 44 219 57 300 85 344 c 0
 91 353 106 360 124 360 c 0
 146 360 172.98 349.986 192 323 c 0
 203.987 305.991 208 290 208 275 c 0
 208 244 191 217 191 196 c 0
 191 193 192 189 193 186 c 0
 207 150 220 132 253 118 c 0
 257 117 261 116 267 116 c 0
 290 116 325.98 128.012 330 135 c 0
 340.946 154.031 346 172 346 190 c 0xc4
 346 216 336 243 323 278 c 0
 300 336 221.086 347.034 186 435 c 0
 180.015 450.006 145 506 145 568 c 0
 145 590 149.014 613.992 162 637 c 0
 193.033 691.981 229 729 293 751 c 0
 318 759 341 763 364 763 c 0
 396 763 427 755 460 740 c 0
 515 714 525 672 553 643 c 0
 557 638 559 633 559 626 c 0
 557 571 544 516 522 480 c 1
 515 471 508 468 496 468 c 1
 457 474 l 2
 443 477 437.026 481.004 435 494 c 0
 432.038 513.006 431 527 431 538 c 0x92
 431 565 437 575 437 585 c 0
 437 589 436 593 434 597 c 1
 417 613 411 627 398 633 c 0
 384 639 374 642 365 642 c 0
 358 642 352 641 344 638 c 0
 313 626 299 610 291 578 c 0
 289 572 289 567 289 562 c 0
 289 544 297 530 312 502 c 0
 347 435 426.663 419.871 463 325 c 0
 474.89 293.958 480 266 480 238 c 0x94
 480 209 474 180 463 147 c 0
 449.601 107.547 435.094 71.4196 403.804 43.5661 c 1
 412.064 27.0658 416.488 8.9439 416.488 -7.16699 c 0
 416.488 -33.167 407.331 -61.101 393.488 -94.167 c 0
 374.27 -140.075 353.429 -170.084 308.488 -202.167 c 0
 248.409 -245.056 256.488 -256.167 140.488 -259.167 c 1
 139.488 -258.167 139.488 -257.167 139.488 -256.167 c 0
 139.488 -236.167 247.488 -212.167 278.488 -109.167 c 1
 241.488 -81.167 198.488 -102.167 198.488 -45.167 c 0
 198.488 -34.416 204.396 -13.2623 215.889 9.45732 c 1
 208.647 11.5806 201.356 14.0866 194 17 c 0
 143.068 37.1731 141 76 123 84 c 1x88
EndSplineSet
Validated: 1
EndChar

StartChar: scedilla
Encoding: 351 351 142
Width: 324
Flags: W
HStem: 336 172<260.387 358.109>
VStem: 77.4883 218<-80.4216 3.29745> 184 129<148.829 248.342>
LayerCount: 2
Fore
SplineSet
313 217 m 0xa0
 313 166.02 293.415 104.525 269.356 70.5525 c 1
 286.178 49.807 295.488 22.204 295.488 -1.16699 c 0
 295.488 -27.167 286.331 -55.101 272.488 -88.167 c 0
 253.27 -134.075 232.429 -164.084 187.488 -196.167 c 0
 127.409 -239.056 135.488 -250.167 19.4883 -253.167 c 1
 18.4883 -252.167 18.4883 -251.167 18.4883 -250.167 c 0
 18.4883 -230.167 126.488 -206.167 157.488 -103.167 c 1
 120.488 -75.167 77.4883 -96.167 77.4883 -39.167 c 0xc0
 77.4883 -30.227 81.5732 -14.094 89.5579 4.15113 c 1
 77.1058 7.68047 64.7668 13.8377 53 24 c 0
 33 43 24 68 24 93 c 0
 24 139 54 183 103 183 c 0
 109 183 116 183 123 181 c 0
 150 175 150 167 151 156 c 0
 152 136 169 149 171 150 c 0
 181 159 184 169 184 180 c 0
 184 216 144 263 144 330 c 0
 144 337 144.022 344.997 145 352 c 0
 148.07 373.99 145 397 161 427 c 0
 173 451 189.034 470.925 218 484 c 0
 240.026 493.942 270 508 300 508 c 0
 320 508 340 502 359 486 c 1
 379 467 390 442 390 416 c 0
 390 395 381.943 374.046 368 357 c 0
 354.947 341.043 337 336 319 336 c 0
 293 336 268 348 260 357 c 1
 256 353 254 348 256 340 c 1
 259 340 280.89 337.954 295 304 c 0
 307.899 272.958 313 245 313 217 c 0xa0
EndSplineSet
Validated: 1
EndChar

StartChar: Tcedilla
Encoding: 354 354 145
Width: 660
Flags: W
HStem: 7 135<180.995 274.755> 472 20G<259 275.5> 601 133<577.571 649.111> 610 124<570.174 645.368> 632 109<313.425 438.763>
VStem: 102 218<387.748 480.609> 102 120<481.233 542.133> 257.488 218<-89.4216 6.2606>
LayerCount: 2
Fore
SplineSet
710 763 m 0xe2
 755.65 763 793 725.597 793 686 c 0
 793 630.938 739.745 619.878 712 611 c 0
 687 603 665 601 647 601 c 0xe2
 612 601 589 610 577 610 c 1xd2
 562 582 574 531 531 420 c 1
 509 357 498 319 474 254 c 0
 450 189 421 167 418 110 c 1
 423 114 434 119 447 119 c 0
 459 119 473 115 485 101 c 0
 493 91 496 81 496 72 c 0
 496 48 479 28 478 27 c 0
 476.6 22.2409 474.652 18.5006 472.111 15.5817 c 1
 474.337 6.79696 475.488 -1.94679 475.488 -10.167 c 0
 475.488 -36.167 466.331 -64.101 452.488 -97.167 c 0
 433.27 -143.075 412.429 -173.084 367.488 -205.167 c 0
 307.409 -248.056 315.488 -259.167 199.488 -262.167 c 1
 198.488 -261.167 198.488 -260.167 198.488 -259.167 c 0
 198.488 -239.167 306.488 -215.167 337.488 -112.167 c 1
 300.488 -84.167 257.488 -105.167 257.488 -48.167 c 0
 257.488 -37.2768 263.55 -15.7131 275.338 7.3401 c 1
 270.753 7.13736 265.979 7 261 7 c 0
 243 7 222 9 197 16 c 0
 185 20 181 25 179 36 c 0
 178 41 162 61 162 86 c 0
 162 98 166 112 179 124 c 0
 193 138 211 142 227 142 c 0
 250 142 270 134 275 130 c 1
 280 148 298 242 379 444 c 1
 403 499 423 524 435 575 c 0
 439 591 439 621 439 621 c 1
 434 622 425 632 398 632 c 0
 382 632 361 628 330 618 c 1
 297 606 286 590 256 556 c 0
 234 531 224 523 222 503 c 0xcb
 221 489 223 486 229 481 c 1
 231 481 249 492 269 492 c 0
 282 492 297 487 309 470 c 0
 317 459 320 448 320 436 c 0xcc
 320 391 265 346 207 346 c 0
 189 346 172 350 156 359 c 0
 109 384 108 430 103 465 c 0
 102 470 102 476 102 483 c 0
 102 526 119 598 199 671 c 0
 265 731 325 741 381 741 c 0xca
 413 741 444 738 473 738 c 2
 492 738 l 2
 535 738 565 734 598 734 c 0
 614 734 631 735 650 738 c 0
 658 739 677 763 710 763 c 0xe2
EndSplineSet
Validated: 1
EndChar

StartChar: tcedilla
Encoding: 355 355 146
Width: 338
Flags: W
HStem: 497 20G<154.5 170.5>
VStem: 77 331<387.848 485.033> 79.4883 218<-61.4216 12.7305>
LayerCount: 2
Fore
SplineSet
278.456 79.7235 m 1xc0
 290.777 60.5671 297.488 37.6749 297.488 17.833 c 0
 297.488 -8.16699 288.331 -36.101 274.488 -69.167 c 0
 255.27 -115.075 234.429 -145.084 189.488 -177.167 c 0
 129.409 -220.056 137.488 -231.167 21.4883 -234.167 c 1
 20.4883 -233.167 20.4883 -232.167 20.4883 -231.167 c 0
 20.4883 -211.167 128.488 -187.167 159.488 -84.167 c 1
 122.488 -56.167 79.4883 -77.167 79.4883 -20.167 c 0xa0
 79.4883 -12.8606 82.2168 -0.749766 87.5726 13.3919 c 1
 53.9368 30.3062 37 68.3184 37 113 c 0
 37 173 75 215 92 263 c 1
 112 315 127 324 142 378 c 1
 137 376 132 375 127 375 c 0
 101 375 77 400 77 432 c 0
 77 451 86 474 109 495 c 0
 128 512 147 517 162 517 c 0
 179 517 191 510 193 510 c 1
 200 518 199 524 211 593 c 0
 212 600 216 605 223 609 c 0
 232 615 248 645 287 645 c 2
 289 645 l 1
 327 644 342 613 350 606 c 1
 360 599 373 571 373 542 c 0
 373 527 369 512 359 500 c 1
 392 496 408 471 408 444 c 0
 408 422 398 398 379 381 c 0
 364 368 347 364 333 364 c 0
 318 364 306 369 303 371 c 1
 263 307 238 306 209 195 c 1
 226 211 243 217 259 217 c 0
 291 217 316 191 316 156 c 0
 316 153 315 149 315 146 c 0
 310.289 116.019 296.222 95.3934 278.456 79.7235 c 1xc0
EndSplineSet
Validated: 1
EndChar

StartChar: Tbar
Encoding: 358 358 149
Width: 660
VWidth: 1080
Flags: W
HStem: 6 113<418.239 479.244> 7 135<180.995 274.755> 472 20G<259 274.5> 601 133<577.571 649.111> 610 124<569.874 645.368> 632 109<313.425 438.763>
VStem: 102 120<481.233 542.133>
LayerCount: 2
Fore
SplineSet
556 502 m 1x2a
 586.662 491.779 616 456.807 616 416 c 0
 616 401 612 386 603 372 c 0
 576 332 536 327 499 326 c 1
 474 254 l 1
 450 189 421 167 418 110 c 1
 423 114 434 119 447 119 c 0
 459 119 473 115 485 101 c 0
 493 91 496 81 496 72 c 0
 496 48 479 28 478 27 c 0
 473 10 461 6 440 6 c 0xaa
 422 6 398 9 365 9 c 0
 355 9 343 9 330 8 c 1
 325.663 5.83137 315.488 9 310 9 c 0
 296 9 280 7 261 7 c 0
 243 7 222 9 197 16 c 0
 185 20 181 25 179 36 c 0
 178 41 162 61 162 86 c 0
 162 98 166 112 179 124 c 0
 193 138 211 142 227 142 c 0
 250 142 270 134 275 130 c 1
 279 144 291 206 336 331 c 1
 318 339 301 352 286 372 c 1
 285 374 l 1
 264 357 236 346 207 346 c 0
 189 346 172 350 156 359 c 0
 109 384 108 430 103 465 c 0
 102 470 102 476 102 483 c 0
 102 526 119 598 199 671 c 0
 265 731 325 741 381 741 c 0x66
 413 741 444 738 473 738 c 2
 492 738 l 2
 535 738 565 734 598 734 c 0
 614 734 631 735 650 738 c 0
 658 739 677 763 710 763 c 0
 755.65 763 793 725.597 793 686 c 0
 793 630.938 739.745 619.878 712 611 c 0
 687 603 665 601 647 601 c 0x32
 612 601 589 610 577 610 c 1
 566 590 569 559 556 502 c 1x2a
229 481 m 1
 231 481 249 492 269 492 c 0
 280 492 293 488 304 476 c 1
 329 498 357 500 382 500 c 2
 406 500 l 1
 418 524 428 545 435 575 c 0
 439 591 439 621 439 621 c 1
 434 622 425 632 398 632 c 0x26
 382 632 361 628 330 618 c 1
 297 606 286 590 256 556 c 0
 234 531 224 523 222 503 c 0
 221 489 223 486 229 481 c 1
EndSplineSet
Validated: 1
EndChar

StartChar: tbar
Encoding: 359 359 150
Width: 338
VWidth: 1080
Flags: W
HStem: 497 20G<154.5 170.5>
VStem: 37 279<96.2979 193.051> 77 331<387.848 485.033>
LayerCount: 2
Fore
SplineSet
130 4 m 0xc0
 68.1982 4 37 52.3573 37 113 c 0xc0
 37 165 66 204 84 245 c 1
 40 251 8 268 8 287 c 0
 8 304 35 330 118 330 c 2
 124 330 l 1
 130 343 136 357 142 378 c 1
 137 376 132 375 127 375 c 0
 101 375 77 400 77 432 c 0
 77 451 86 474 109 495 c 0
 128 512 147 517 162 517 c 0
 179 517 191 510 193 510 c 1
 200 518 199 524 211 593 c 0
 212 600 216 605 223 609 c 0
 232 615 248 645 287 645 c 2
 289 645 l 1
 327 644 342 613 350 606 c 1
 360 599 373 571 373 542 c 0
 373 527 369 512 359 500 c 1
 392 496 408 471 408 444 c 0xa0
 408 422 398 398 379 381 c 0
 364 368 347 364 333 364 c 0
 318 364 306 369 303 371 c 1
 293 356 285 344 276 333 c 1
 340 325 352 302 352 288 c 0
 352 249 266 244 224 243 c 1
 219 230 214 214 209 195 c 1
 226 211 243 217 259 217 c 0
 291 217 316 191 316 156 c 0
 316 153 315 149 315 146 c 0
 304 76 242 57 201 33 c 0
 183 22 161 4 130 4 c 0xc0
EndSplineSet
Validated: 1
EndChar

StartChar: Uogonek
Encoding: 370 370 161
Width: 756
Flags: W
HStem: -120 105<498.538 552.151> -120 74<477.097 507.327> 603 147<827.004 882.295> 628 122<403.005 465.391 599.752 695.466>
VStem: 85 170<150.863 324.291> 383 84<-41.6603 -3.53906>
LayerCount: 2
Fore
SplineSet
489 705 m 0x5c
 489 678.538 461.722 626 420 626 c 0
 410 626 403 629 403 633 c 0
 403 634 403 634 404 635 c 1
 345 588 348 536 308 438 c 1
 283 373 271 338 264 271 c 0
 260.867 241.014 255 220 255 203 c 0
 255 190 258 179 266 166 c 0
 290 128 318 113 367 107 c 0
 373 106 378 106 383 106 c 0
 412 106 432 118 467 138 c 0
 512 165 530.827 187.106 559 233 c 0
 597.763 296.146 595 343 623 421 c 1
 657 536 675 551 696 611 c 1
 695 611 691 619 679 627 c 0
 678 628 676 628 674 628 c 0
 669 628 660 626 650 626 c 0
 634 626 615 630 599 650 c 0
 589 662 582 679 582 696 c 0
 582 713.926 592.689 741.738 614 746 c 0
 630 749 644 750 655 750 c 0
 693 750 708 737 732 737 c 0
 756 738 777 750 810 750 c 0x5c
 817 750 825 749 834 748 c 0
 850 745 882 743 897 713 c 0
 903 702 906 690 906 678 c 0
 906 657 897 637 883 622 c 0
 868 607 851 603 839 603 c 0
 832 603 827 604 827 606 c 1
 787 533 799 485 744 363 c 1
 711 284 698.796 227.165 638 152 c 0
 600.875 106.101 567 80 519 52 c 1
 513 46 495 28 492 28 c 0
 489 28 481 29 478 29 c 1
 474 22 467 3 467 -8 c 0
 467 -12 469 -35 477 -42 c 0
 479 -44 486 -46 495 -46 c 1x6c
 498 -41 502 -15 530 -15 c 1x8c
 535 -17 566 -20 566 -49 c 0
 566 -69 566 -106 517 -117 c 0
 514 -118 505 -120 498 -120 c 0
 493 -120 489 -119 486 -119 c 0
 481 -119 481 -120 473 -120 c 0
 429 -120 383 -77 383 -13 c 2
 383 -3 l 1
 373 -4 362 -5 350 -5 c 0
 312 -5 268 4 219 28 c 1
 167 55 124 81 100 140 c 0
 89 165 85 188 85 210 c 0
 85 254 101 293 110 337 c 1
 127 431 154 480 183 565 c 1
 199 616 212 619 213 630 c 1
 210 630 200 628 188 628 c 0
 174 628 156 632 143 649 c 0
 131 665 126 680 126 695 c 0
 126 740.295 168.052 758 204 758 c 0
 235 758 261 744 281 744 c 0
 321 744 303 756 400 756 c 0
 415 756 433 756 454 755 c 0
 473 754 489 732 489 705 c 0x5c
EndSplineSet
Validated: 1
EndChar

StartChar: uogonek
Encoding: 371 371 162
Width: 510
Flags: W
HStem: -164 105<387.538 441.151> -164 74<366.097 396.327> 497 20G<214.5 236.5 478 499>
VStem: 272 84<-86.8438 -15.4354>
LayerCount: 2
Fore
SplineSet
384 -90 m 1x70
 387 -85 391 -59 419 -59 c 1xb0
 424 -61 455 -64 455 -93 c 0
 455 -113 455 -150 406 -161 c 0
 403 -162 394 -164 387 -164 c 0
 382 -164 378 -163 375 -163 c 0
 370 -163 370 -164 362 -164 c 0
 318 -164 272 -121 272 -57 c 0
 272 -33 278 -11 288 8 c 1
 255 28 252 67 251 77 c 1
 224 49 186 26 167 22 c 0
 162 20 147 5 123 5 c 0
 115 5 107 7 98 11 c 0
 54 31 44 72 41 108 c 0
 41 112 41 116 41 120 c 0
 41 192 81 232 106 285 c 0
 115 304 131 322 139 332 c 1
 132 333 113 337 101 343 c 0
 81 353 75 369 75 386 c 0
 75 400 79.0191 412.993 82 421 c 0
 99.1097 466.959 131 491 171 507 c 0
 190 515 207 517 222 517 c 0
 251 517 275 509 300 509 c 1
 314 507 320 504 324 491 c 0
 327 482 328 473 328 465 c 0
 328 417 286 383 276 350 c 0
 251 274 228 264 205 179 c 1
 205 179 208 179 221 188 c 0
 329 258 358 358 368 377 c 1
 387 408 387 476 448 517 c 0
 460 525 472 528 484 528 c 0
 514 528 538 507 541 488 c 0
 542 480 543 472 543 465 c 0
 543 383 478 332 452 265 c 0
 433 214 414 200 413 167 c 0
 412 150 406 145 412 149 c 0
 443 173 429 221 483 221 c 2
 488 221 l 1
 522 218 524 187 524 187 c 1
 529 179 531 172 527 163 c 0
 495 76 416 28 416 28 c 1
 413 27 409 25 405 23 c 1
 407 18 410 11 410 10 c 0
 410 9 384 -16 381 -16 c 0
 378 -16 370 -15 367 -15 c 1
 363 -21 356 -41 356 -52 c 0
 356 -56 358 -79 366 -86 c 0
 368 -88 375 -90 384 -90 c 1x70
EndSplineSet
Validated: 1
EndChar

StartChar: uni1E64
Encoding: 7780 7780 186
Width: 449
Flags: W
HStem: 0 116<221.569 330.366> 642 121<313.664 365>
VStem: 36 155<118 276.691> 44 147<147.265 273.55> 145 144<504.204 617.765> 346 134<134.076 276.353> 365 109.766<806.622 867.476> 401 105<891.878 984.924> 431 128<510.266 596.812>
LayerCount: 2
Fore
SplineSet
453 997 m 0xc1
 486 997 506 964 506 933 c 0xc1
 506 902 478 881 451 881 c 0
 451 881 450 881 449 881 c 1
 462.225 874.388 474.766 858.211 474.766 840.939 c 0xc2
 474.766 837.315 474.214 833.642 473 830 c 0
 464 805 445 806 433 796 c 0
 414 781 419 781 392 766 c 1
 384 762 l 1
 409 759 434 752 460 740 c 0
 515 714 525 672 553 643 c 0
 557 638 559 633 559 626 c 0
 557 571 544 516 522 480 c 1
 515 471 508 468 496 468 c 1
 457 474 l 2
 443 477 437 481 435 494 c 0
 432 513 431 527 431 538 c 0xc080
 431 565 437 575 437 585 c 0
 437 589 436 593 434 597 c 1
 417 613 411 627 398 633 c 0
 384 639 374 642 365 642 c 0xc2
 358 642 352 641 344 638 c 0
 313 626 299 610 291 578 c 0
 289 572 289 567 289 562 c 0
 289 544 297 530 312 502 c 0
 347 435 427 420 463 325 c 0
 475 294 480 266 480 238 c 0xcc
 480 209 474 180 463 147 c 0
 445 94 425 47 365 18 c 0
 337 4 309 0 282 0 c 0
 253 0 224 5 194 17 c 0
 143 37 141 76 123 84 c 1
 120 84 105 76 86 76 c 0
 73 76 58 80 44 95 c 0xd2
 38 102 36 112 36 124 c 0xe0
 36 150 44 183 44 208 c 0
 44 211 44 214 44 217 c 0xd0
 44 219 57 300 85 344 c 0
 91 353 106 360 124 360 c 0
 146 360 173 350 192 323 c 0
 204 306 208 290 208 275 c 0
 208 244 191 217 191 196 c 0
 191 193 192 189 193 186 c 0
 207 150 220 132 253 118 c 0
 257 117 261 116 267 116 c 0
 290 116 326 128 330 135 c 0
 341 154 346 172 346 190 c 0xe4
 346 216 336 243 323 278 c 0
 300 336 221 347 186 435 c 0
 180 450 145 506 145 568 c 0
 145 590 149 614 162 637 c 0
 193 692 229 729 293 751 c 0
 318 759 341 763 364 763 c 2
 365 763 l 1
 363 769 364 776 365 782 c 0xca
 365 802 367 814 374 833 c 0
 383 854 383 875 406 882 c 0
 413 884 420 885 426 886 c 1
 409 894 401 916 401 937 c 0
 401 968 422 997 453 997 c 0xc1
EndSplineSet
Validated: 1
EndChar

StartChar: uni1EA4
Encoding: 7844 7844 246
Width: 728
Flags: W
HStem: 0 150<50.799 175.463> 9 124<410.656 491.849 677.001 720.762>
VStem: 18 353<26.0042 115.531> 828 52<751.884 788.668> 837 100.932<924.294 985.646>
LayerCount: 2
Fore
SplineSet
855 884 m 1x28
 835 872 l 1
 825 875 827 889 828 900 c 0x30
 828 920 830 932 837 950 c 0
 846 971 846 993 869 1000 c 0
 877.125 1002.03 884.562 1003.26 891.505 1003.26 c 0
 905.072 1003.26 916.755 998.568 928 986 c 0
 934.834 978.483 937.932 968.631 937.932 959.316 c 0
 937.932 955 937.267 950.799 936 947 c 0
 927 923 908 923 896 913 c 0
 877 899 883 898 855 884 c 1x28
541 244 m 1
 482.818 262.182 468.438 263.008 452.029 263.008 c 0
 450.388 263.008 448.727 263 447 263 c 0
 426 263 409 261 406 261 c 1
 349 137 339 180 328 138 c 1
 340 134 357 126 363 116 c 0
 369 106 371 96 371 88 c 0
 371 64 355 45 354 36 c 1
 352 28 348 23 340 20 c 0
 312 8 285 5 258 5 c 0
 234 5 211 7 187 7 c 2
 167 7 l 2
 151 7 126 0 99 0 c 0
 77 0 54 4 35 26 c 0
 23 40 18 55 18 69 c 0
 18 93 31 116 50 132 c 0
 67 146 87 150 104 150 c 0xb0
 127 150 146 143 148 143 c 1
 274 257 280 293 437 464 c 0
 499 531 535 575 605 641 c 1
 654 685 615 649 729 739 c 0
 741 748 754 753 766 755 c 1
 758 757 752 761 752 767 c 0
 752 768 752 769 752 770 c 0
 762 797 769 811 791 853 c 1
 797 861 815 867 825 867 c 0
 831 867 841 865 845 860 c 0
 861 835 862 823 869 802 c 0
 873 790 877 779 880 767 c 0
 880 767 880 766 880 765 c 0
 880 755 861 751 845 751 c 0
 834 751 825 753 825 756 c 0
 825 758 828 760 828 763 c 0
 828 770 820 782 816 789 c 1
 814 783 812 773 811 765 c 0
 810 758 801 754 791 753 c 1
 833 744 872 704 872 666 c 0
 872 659 871 652 868 645 c 0
 820 538 794 487 755 385 c 0
 722 299 697 255 684 170 c 0
 681 153 677 142 677 136 c 0
 677 134 678 133 680 133 c 0
 682 133 687 134 692 134 c 0
 700 134 711 131 723 110 c 0
 730 99 732 88 732 78 c 0
 732 56 721 37 720 27 c 1
 714 12 711 6 699 6 c 0
 687 6 677 9 663 9 c 0x70
 620 9 558 0 498 0 c 0xb0
 471 0 444 1 419 7 c 1
 405 12 401 17 400 30 c 0
 400 37 388 57 388 78 c 0
 388 93 393 108 410 122 c 0
 424 133 438 137 452 137 c 0
 472 137 489 128 492 124 c 1
 541 188 522 226 541 244 c 1
593 376 m 1
 629 379 655 394 655 432 c 0
 655 446 649 459 633 473 c 0
 626 478 580 485 577 488 c 1
 537 474 527 447 527 424 c 0
 527 404 535 387 535 387 c 2
 536 385 553 376 582 376 c 2
 593 376 l 1
EndSplineSet
Validated: 1
EndChar

StartChar: uni1EA6
Encoding: 7846 7846 248
Width: 728
Flags: W
HStem: 0 150<50.799 175.463> 9 124<410.656 491.849 677.001 720.762>
VStem: 18 353<26.0042 115.531> 752 59<758.512 793.453> 825 55<756.884 793.668>
LayerCount: 2
Fore
SplineSet
810 888 m 1x38
 783 902 788 903 769 917 c 0
 757 927 738 927 729 951 c 0
 725 963 727 969 737 980 c 0
 748.245 992.568 759.928 997.26 773.495 997.26 c 0
 780.438 997.26 787.875 996.031 796 994 c 0
 819 987 819 972 828 954 c 0
 836 936 837 924 837 904 c 0
 838 893 840 879 830 876 c 1
 810 888 l 1x38
541 244 m 1
 482.818 262.182 468.438 263.008 452.029 263.008 c 0
 450.388 263.008 448.727 263 447 263 c 0
 426 263 409 261 406 261 c 1
 349 137 339 180 328 138 c 1
 340 134 357 126 363 116 c 0
 369 106 371 96 371 88 c 0
 371 64 355 45 354 36 c 1
 352 28 348 23 340 20 c 0
 312 8 285 5 258 5 c 0
 234 5 211 7 187 7 c 2
 167 7 l 2
 151 7 126 0 99 0 c 0
 77 0 54 4 35 26 c 0
 23 40 18 55 18 69 c 0
 18 93 31 116 50 132 c 0
 67 146 87 150 104 150 c 0xb8
 127 150 146 143 148 143 c 1
 274 257 280 293 437 464 c 0
 499 531 535 575 605 641 c 1
 654 685 615 649 729 739 c 0
 743 750 758 755 773 755 c 0
 822 755 872 709 872 666 c 0
 872 659 871 652 868 645 c 0
 820 538 794 487 755 385 c 0
 722 299 697 255 684 170 c 0
 681 153 677 142 677 136 c 0
 677 134 678 133 680 133 c 0
 682 133 687 134 692 134 c 0
 700 134 711 131 723 110 c 0
 730 99 732 88 732 78 c 0
 732 56 721 37 720 27 c 1
 714 12 711 6 699 6 c 0
 687 6 677 9 663 9 c 0x78
 620 9 558 0 498 0 c 0xb8
 471 0 444 1 419 7 c 1
 405 12 401 17 400 30 c 0
 400 37 388 57 388 78 c 0
 388 93 393 108 410 122 c 0
 424 133 438 137 452 137 c 0
 472 137 489 128 492 124 c 1
 541 188 522 226 541 244 c 1
593 376 m 1
 629 379 655 394 655 432 c 0
 655 446 649 459 633 473 c 0
 626 478 580 485 577 488 c 1
 537 474 527 447 527 424 c 0
 527 404 535 387 535 387 c 2
 536 385 553 376 582 376 c 2
 593 376 l 1
825 761 m 0
 825 763 828 765 828 768 c 0
 828 775 820 787 816 794 c 1
 814 788 812 778 811 770 c 0
 810 761 797 758 783 758 c 0
 768 758 752 762 752 772 c 0
 752 773 752 774 752 775 c 0
 762 802 769 816 791 858 c 1
 797 866 815 872 825 872 c 0
 831 872 841 870 845 865 c 0
 861 840 862 828 869 807 c 0
 873 795 877 784 880 772 c 0
 880 772 880 771 880 770 c 0
 880 760 861 756 845 756 c 0
 834 756 825 758 825 761 c 0
EndSplineSet
Validated: 1
EndChar

StartChar: uni1EA8
Encoding: 7848 7848 250
Width: 728
Flags: W
HStem: 0 150<50.799 175.463> 9 124<410.656 491.849 677.001 720.762> 763 20G<781 794.5 841 853.5> 882 115<814.654 864.572>
VStem: 18 353<26.0042 115.531> 759 55<763.388 796.688> 805 122<903.468 966.187> 831 48<762.682 796.669> 865 61<844.423 881.906>
LayerCount: 2
Fore
SplineSet
593 376 m 1x38
 629 379 655 394 655 432 c 0
 655 446 649 459 633 473 c 0
 626 478 580 485 577 488 c 1
 537 474 527 447 527 424 c 0
 527 404 535 387 535 387 c 2
 536 385 553 376 582 376 c 2
 593 376 l 1x38
541 244 m 1
 482.818 262.182 468.438 263.008 452.029 263.008 c 0
 450.388 263.008 448.727 263 447 263 c 0
 426 263 409 261 406 261 c 1
 349 137 339 180 328 138 c 1
 340 134 357 126 363 116 c 0
 369 106 371 96 371 88 c 0
 371 64 355 45 354 36 c 1
 352 28 348 23 340 20 c 0
 312 8 285 5 258 5 c 0
 234 5 211 7 187 7 c 2
 167 7 l 2
 151 7 126 0 99 0 c 0
 77 0 54 4 35 26 c 0
 23 40 18 55 18 69 c 0
 18 93 31 116 50 132 c 0
 67 146 87 150 104 150 c 0xb8
 127 150 146 143 148 143 c 1
 274 257 280 293 437 464 c 0
 499 531 535 575 605 641 c 1
 654 685 615 649 729 739 c 0
 743 750 758 755 773 755 c 0
 822 755 872 709 872 666 c 0
 872 659 871 652 868 645 c 0
 820 538 794 487 755 385 c 0
 722 299 697 255 684 170 c 0
 681 153 677 142 677 136 c 0
 677 134 678 133 680 133 c 0
 682 133 687 134 692 134 c 0
 700 134 711 131 723 110 c 0
 730 99 732 88 732 78 c 0
 732 56 721 37 720 27 c 1
 714 12 711 6 699 6 c 0
 687 6 677 9 663 9 c 0x78
 620 9 558 0 498 0 c 0xb8
 471 0 444 1 419 7 c 1
 405 12 401 17 400 30 c 0
 400 37 388 57 388 78 c 0
 388 93 393 108 410 122 c 0
 424 133 438 137 452 137 c 0
 472 137 489 128 492 124 c 1
 541 188 522 226 541 244 c 1
871 804 m 1
 874 795 879 784 879 775 c 0
 879 766 861 762 846 762 c 0
 836 762 828 764 828 766 c 0
 828 768 831 770 831 773 c 0x39
 831 779 823 790 819 797 c 1
 817 791 815 782 814 774 c 0
 813 766 801 763 788 763 c 0
 774 763 759 768 759 777 c 0
 759 777 759 778 759 780 c 0
 768 804 775 818 795 858 c 1
 801 865 818 870 828 870 c 0
 833 870 843 869 846 864 c 0
 851 856 854 850 857 844 c 1
 862 853 865 864 865 877 c 0
 865 878 865 880 864 882 c 0
 839 896 828 887 814 903 c 0x3c80
 807 913 805 922 805 932 c 0
 805 966 817 997 852 997 c 0
 872 997 888 985 902 969 c 0
 921 949 927 929 927 904 c 0x3a
 927 900 926 895 926 890 c 0x3880
 925 864 919 847 900 829 c 0
 886 816 882 808 871 804 c 1
EndSplineSet
Validated: 1
EndChar

StartChar: uni1EBE
Encoding: 7870 7870 272
Width: 639
Flags: W
HStem: 12 169<530.89 624.309> 15 110.747<399.563 479.761> 15 103<45.3372 139.733 341.573 449.427 450.06 511.966> 353 87<397.005 438.751> 516 21G<675.5 693> 518 20G<548 563> 618 135<193.175 301.619> 636 108<455.188 599.465> 763 21G<502 515.5 562 574.5>
VStem: 430 160<261.145 351.762> 480 55<763.388 796.688> 522 93.964<944.168 979.651> 549 51<762.682 796.67>
LayerCount: 2
Fore
SplineSet
538 884 m 1x1090
 520 874 l 1
 510 876 513 889 513 899 c 0
 514 918 515 929 522 946 c 0
 530 966 530 987 552 993 c 0
 559.569 995.064 566.546 996.3 573.094 996.3 c 0
 585.579 996.3 596.505 991.807 607 980 c 0
 613.079 972.57 615.964 963.772 615.964 955.453 c 0
 615.964 951.456 615.298 947.57 614 944 c 0
 606 921 588 921 577 912 c 0
 559 898 564 898 538 884 c 1x1090
257 618 m 0x92a0
 230 618 161 632 161 668 c 0
 161 695 189 724 189 725 c 0
 193 736 198 741 211 742 c 0
 274 748 335 745 410 753 c 0
 412 753 414 753 416 753 c 0x92a0
 453 749 471 745 504 744 c 1
 515 744 l 2
 545 744 565 747 602 748 c 0
 614 748 632 755 652 755 c 0
 665 755 679 753 694 744 c 0
 743 716 739 668 751 645 c 0
 753 643 753 641 754 638 c 0
 756 625 758 611 758 595 c 0
 758 579 756 561 746 541 c 1
 740 532 732 535 723 528 c 0
 722 527 703 516 683 516 c 0x19a0
 668 516 652 522 641 540 c 0
 613 586 613 609 584 627 c 0
 570 635 558 637 542 637 c 0
 531 637 519 636 502 636 c 2
 498 636 l 2
 483 636 475 639 467 639 c 0
 463 639 459 639 455 636 c 1
 440 619 437 579 432 558 c 0
 419 502 397 472 397 448 c 0
 397 445 397 443 398 440 c 0
 399 440 414 435 434 435 c 0
 445 435 458 437 470 443 c 0
 485 451 464 495 511 526 c 0
 526 536 541 538 555 538 c 0
 571 538 584 535 593 535 c 2
 595 535 l 1
 612 534 619 531 622 515 c 0
 624 505 625 496 625 488 c 0
 625 435 595 396 592 354 c 0
 592 351 591 349 590 347 c 0
 577 318 584 286 559 244 c 0
 549 229 524 221 503 221 c 0
 484 221 457 230 448 248 c 1
 435 280 430 304 430 320 c 0
 430 337 435 347 439 352 c 1
 431 352 418 353 405 353 c 0
 392 353 378 352 369 351 c 1
 338 292 343 241 324 158 c 1
 329 154 348 130 366 124 c 0
 378 120 388 118 399 118 c 0x35c0
 411 118 424 121 443 125 c 0
 444.941 125.529 447.163 125.747 449.538 125.747 c 0x50c0
 460.623 125.747 475.059 121 480 121 c 0
 497 121 502 132 541 169 c 0
 545 173 549 175 555 176 c 0
 562 177 576 181 591 181 c 0x90a0
 606 181 624 177 637 161 c 0
 649 147 653 132 653 118 c 0x30a0
 653 83 627 52 624 32 c 1
 620 19 615 14 601 12 c 0x90a0
 591 11 579 11 566 11 c 0
 523 11 467 15 407 15 c 0x50a0
 382 15 356 14 331 12 c 1
 31 12 l 1
 10 19 8 12 9 32 c 1
 9 35 l 2
 9 44 10 64 27 81 c 0
 70 126 118 116 135 123 c 1
 147 145 134 209 190 325 c 1
 256 494 l 2
 283 564 297 609 302 627 c 1
 294 623 278 618 257 618 c 0x92a0
549 766 m 0x1088
 549 768 552 770 552 773 c 0
 552 780 544 790 540 797 c 1
 538 791 536 782 535 774 c 0
 534 766 522 763 509 763 c 0
 495 763 480 768 480 777 c 0
 480 777 480 778 480 780 c 0
 489 804 496 818 516 858 c 1
 522 865 539 870 549 870 c 0x10a8
 554 870 564 869 567 864 c 0
 583 840 583 829 590 810 c 0x10c0
 594 798 597 788 600 777 c 0
 600 776 600 776 600 775 c 0
 600 766 582 762 567 762 c 0
 557 762 549 764 549 766 c 0x1088
EndSplineSet
Validated: 1
EndChar

StartChar: uni1EC0
Encoding: 7872 7872 274
Width: 639
Flags: W
HStem: 12 169<530.89 624.309> 15 110.747<399.563 479.761> 15 103<45.3372 139.733 341.573 449.427 450.06 511.966> 353 87<397.005 438.751> 516 21G<675.5 693> 518 20G<548 563> 618 135<193.175 301.619> 636 108<455.188 599.465> 763 21G<508 521.5 568 580.5>
VStem: 430 160<261.145 351.762> 467.036 93.9644<948.168 983.651> 486 55<763.388 796.688> 555 51<762.682 796.67>
LayerCount: 2
Fore
SplineSet
544 888 m 1x10a0
 519 902 524 902 506 916 c 0
 495 925 477 925 469 948 c 0
 467.702 951.57 467.036 955.456 467.036 959.453 c 0
 467.036 967.772 469.921 976.57 476 984 c 0
 486.496 995.807 497.421 1000.3 509.906 1000.3 c 0
 516.454 1000.3 523.431 999.064 531 997 c 0
 553 991 553 970 561 950 c 0
 568 933 569 922 570 903 c 0
 570 893 573 880 563 878 c 1
 544 888 l 1x10a0
257 618 m 0x9298
 230 618 161 632 161 668 c 0
 161 695 189 724 189 725 c 0
 193 736 198 741 211 742 c 0
 274 748 335 745 410 753 c 0
 412 753 414 753 416 753 c 0x9298
 453 749 471 745 504 744 c 1
 515 744 l 2
 545 744 565 747 602 748 c 0
 614 748 632 755 652 755 c 0
 665 755 679 753 694 744 c 0
 743 716 739 668 751 645 c 0
 753 643 753 641 754 638 c 0
 756 625 758 611 758 595 c 0
 758 579 756 561 746 541 c 1
 740 532 732 535 723 528 c 0
 722 527 703 516 683 516 c 0x1998
 668 516 652 522 641 540 c 0
 613 586 613 609 584 627 c 0
 570 635 558 637 542 637 c 0
 531 637 519 636 502 636 c 2
 498 636 l 2
 483 636 475 639 467 639 c 0
 463 639 459 639 455 636 c 1
 440 619 437 579 432 558 c 0
 419 502 397 472 397 448 c 0
 397 445 397 443 398 440 c 0
 399 440 414 435 434 435 c 0
 445 435 458 437 470 443 c 0
 485 451 464 495 511 526 c 0
 526 536 541 538 555 538 c 0x1598
 571 538 584 535 593 535 c 2
 595 535 l 1
 612 534 619 531 622 515 c 0
 624 505 625 496 625 488 c 0
 625 435 595 396 592 354 c 0
 592 351 591 349 590 347 c 0
 577 318 584 286 559 244 c 0
 549 229 524 221 503 221 c 0
 484 221 457 230 448 248 c 1
 435 280 430 304 430 320 c 0
 430 337 435 347 439 352 c 1
 431 352 418 353 405 353 c 0
 392 353 378 352 369 351 c 1
 338 292 343 241 324 158 c 1
 329 154 348 130 366 124 c 0
 378 120 388 118 399 118 c 0x35c0
 411 118 424 121 443 125 c 0
 444.941 125.529 447.163 125.747 449.538 125.747 c 0x50c0
 460.623 125.747 475.059 121 480 121 c 0
 497 121 502 132 541 169 c 0
 545 173 549 175 555 176 c 0
 562 177 576 181 591 181 c 0x9098
 606 181 624 177 637 161 c 0
 649 147 653 132 653 118 c 0x3098
 653 83 627 52 624 32 c 1
 620 19 615 14 601 12 c 0x9098
 591 11 579 11 566 11 c 0
 523 11 467 15 407 15 c 0x5098
 382 15 356 14 331 12 c 1
 31 12 l 1
 10 19 8 12 9 32 c 1
 9 35 l 2
 9 44 10 64 27 81 c 0
 70 126 118 116 135 123 c 1
 147 145 134 209 190 325 c 1
 256 494 l 2
 283 564 297 609 302 627 c 1
 294 623 278 618 257 618 c 0x9298
555 766 m 0
 555 768 558 770 558 773 c 0
 558 780 550 790 546 797 c 1
 544 791 542 782 541 774 c 0
 540 766 528 763 515 763 c 0
 501 763 486 768 486 777 c 0
 486 777 486 778 486 780 c 0
 495 804 502 818 522 858 c 1
 528 865 545 870 555 870 c 0
 560 870 570 869 573 864 c 0
 589 840 589 829 596 810 c 0
 600 798 603 788 606 777 c 0
 606 776 606 776 606 775 c 0
 606 766 588 762 573 762 c 0
 563 762 555 764 555 766 c 0
EndSplineSet
Validated: 1
EndChar

StartChar: uni1EC2
Encoding: 7874 7874 276
Width: 639
Flags: W
HStem: 12 169<530.89 624.309> 15 110.747<399.563 479.761> 15 103<45.3372 139.733 341.573 449.427 450.06 511.966> 353 87<397.005 438.751> 516 21G<675.5 693> 518 20G<548 563> 618 135<193.175 301.619> 636 108<455.188 599.465> 871 120<524 576.912> 922 69<519.069 552.118>
VStem: 430 162<266.616 351.762> 474 55<758.33 791.109> 517 73<927.109 982.077> 543 51<756.672 791.625> 553 37<888.143 921.953>
LayerCount: 2
Fore
SplineSet
545 991 m 0x1088
 571 991 590 959 590 935 c 0x1088
 590 932 590 930 590 926 c 0
 589 911 585 901 574 890 c 0
 559 876 563 872 524 871 c 0x1082
 523 872 l 0
 523 879 553 887 553 919 c 0
 553 920 553 921 552 922 c 0x1042
 535 932 517 925 517 952 c 0
 517 972 524 991 545 991 c 0x1088
257 618 m 0x9220
 230 618 161 632 161 668 c 0
 161 695 189 724 189 725 c 0
 193 736 198 741 211 742 c 0
 274 748 335 745 410 753 c 0
 412 753 414 753 416 753 c 0x9220
 453 749 471 745 504 744 c 1
 515 744 l 2
 545 744 565 747 602 748 c 0
 614 748 632 755 652 755 c 0
 665 755 679 753 694 744 c 0
 743 716 739 668 751 645 c 0
 753 643 753 641 754 638 c 0
 756 625 758 611 758 595 c 0
 758 579 756 561 746 541 c 1
 740 532 732 535 723 528 c 0
 722 527 703 516 683 516 c 0x1920
 668 516 652 522 641 540 c 0
 613 586 613 609 584 627 c 0
 570 635 558 637 542 637 c 0
 531 637 519 636 502 636 c 2
 498 636 l 2
 483 636 475 639 467 639 c 0
 463 639 459 639 455 636 c 1
 440 619 437 579 432 558 c 0
 419 502 397 472 397 448 c 0
 397 445 397 443 398 440 c 0
 399 440 414 435 434 435 c 0
 445 435 458 437 470 443 c 0
 485 451 464 495 511 526 c 0
 526 536 541 538 555 538 c 0
 571 538 584 535 593 535 c 2
 595 535 l 1
 612 534 619 531 622 515 c 0
 624 505 625 496 625 488 c 0
 625 435 595 396 592 354 c 0x1520
 592 351 591 349 590 347 c 0x1502
 577 318 584 286 559 244 c 0
 549 229 524 221 503 221 c 0
 484 221 457 230 448 248 c 1
 435 280 430 304 430 320 c 0
 430 337 435 347 439 352 c 1
 431 352 418 353 405 353 c 0
 392 353 378 352 369 351 c 1
 338 292 343 241 324 158 c 1
 329 154 348 130 366 124 c 0
 378 120 388 118 399 118 c 0x3520
 411 118 424 121 443 125 c 0
 444.941 125.529 447.163 125.747 449.538 125.747 c 0x5020
 460.623 125.747 475.059 121 480 121 c 0
 497 121 502 132 541 169 c 0
 545 173 549 175 555 176 c 0
 562 177 576 181 591 181 c 0x9020
 606 181 624 177 637 161 c 0
 649 147 653 132 653 118 c 0x3020
 653 83 627 52 624 32 c 1
 620 19 615 14 601 12 c 0x9020
 591 11 579 11 566 11 c 0
 523 11 467 15 407 15 c 0x5020
 382 15 356 14 331 12 c 1
 31 12 l 1
 10 19 8 12 9 32 c 1
 9 35 l 2
 9 44 10 64 27 81 c 0
 70 126 118 116 135 123 c 1
 147 145 134 209 190 325 c 1
 256 494 l 2
 283 564 297 609 302 627 c 1
 294 623 278 618 257 618 c 0x9220
543 761 m 0x1014
 543 763 546 764 546 767 c 0
 546 774 538 785 534 792 c 1
 533 786 530 777 529 769 c 0
 528 761 516 758 503 758 c 0
 489 758 474 762 474 771 c 0
 474 772 474 773 474 774 c 0
 484 799 490 812 510 852 c 1
 516 859 533 865 543 865 c 0
 548 865 558 863 561 858 c 0
 577 835 577 824 584 804 c 0
 588 793 591 782 594 771 c 0
 594 771 594 770 594 769 c 0
 594 760 576 756 561 756 c 0
 551 756 543 758 543 761 c 0x1014
EndSplineSet
Validated: 1
EndChar

StartChar: uni1EC8
Encoding: 7880 7880 282
Width: 467
Flags: W
HStem: 3 136<58.7925 184.983 380.22 435.677> 619 126<552.034 640.248> 626 134<282.975 357.758 555.439 630.458> 759.7 21G<474.467 509.667> 850.1 123.2<473.791 526.066>
VStem: 526.467 66.4<823.677 887.3>
LayerCount: 2
Fore
SplineSet
525.667 850.1 m 0x9c
 499.267 866.1 487.267 855.7 472.867 873.3 c 0
 464.867 883.7 462.467 893.3 462.467 904.5 c 0
 462.467 940.224 475.864 973.3 512.867 973.3 c 0
 533.667 973.3 551.267 960.5 566.467 943.7 c 0
 586.467 922.1 592.867 900.5 592.867 874.1 c 0
 592.867 869.3 592.067 864.5 592.067 858.9 c 0
 590.467 831.7 584.067 813.3 564.067 794.1 c 0
 536.867 768.5 544.067 762.1 475.267 759.7 c 1
 473.667 761.3 473.667 762.1 473.667 762.9 c 0
 473.667 774.1 526.467 789.3 526.467 845.3 c 0
 526.467 846.9 526.467 848.5 525.667 850.1 c 0x9c
97 -3 m 0
 62.0049 -3 14 20.1055 14 59 c 0
 14 66 16 72 19 79 c 0
 46 133 108 126 143 136 c 0
 162 142 185 144 185 144 c 1
 197 167 178 171 221 260 c 1
 253 331 l 1
 287 410 351 524 355 607 c 0
 355 609 359 632 358 634 c 1
 353 634 337 626 318 626 c 0
 305 626 291 630 277 644 c 0
 265 656 259 672 259 688 c 0
 259 704 265 720 278 733 c 0
 299 754 323 760 347 760 c 0xac
 381 760 415 747 442 747 c 2
 451 747 l 1
 455 746 458 746 462 746 c 0
 483 746 509 755 551 755 c 0
 573 755 599 752 632 745 c 1
 646 740 651 735 651 721 c 0
 651 714 658 700 658 682 c 0
 658 669 654 654 641 640 c 0
 625 623 606 619 592 619 c 0xcc
 579 619 570 622 569 622 c 0
 533 577 527 562 496 448 c 0
 496 447 496 446 495 445 c 2
 428 275 l 1
 398 161 388 165 379 134 c 1
 385 137 391 139 397 139 c 0
 418.805 139 458 103.52 458 69 c 0
 458 50 450 34 450 26 c 1
 446 9 443 3 424 3 c 2
 419 3 l 2
 388 3 310 14 233 14 c 0
 219 14 205 14 192 13 c 0
 160 11 129 -3 97 -3 c 0
EndSplineSet
Validated: 1
EndChar

StartChar: uni1ED0
Encoding: 7888 7888 290
Width: 754
Flags: W
HStem: -4 75<319.418 467.385> 682 83<483.625 613.405>
VStem: 79 139<181.862 428.458> 448 60<772.707 789.907> 505 110.932<920.519 979.862> 515 100.932<920.965 991.216> 522 55<771.865 807.669> 689 129<345.793 579.838>
LayerCount: 2
Fore
SplineSet
371 736 m 0xe1
 374 736 384 645 384 629 c 1
 344 587 315 569 282 521 c 0
 256 483 253 456 234 414 c 1
 225 366 218 326 218 287 c 0
 218 249 225 211 246 168 c 1
 287 133 299 95 350 77 c 0
 362 73 372 71 383 71 c 0
 394 71 406 73 420 77 c 0
 495 97 535 128 588 185 c 0
 635 235 648 277 666 343 c 0
 679 394 689 434 689 476 c 0
 689 503 685 531 676 563 c 0
 663 608 649 637 610 664 c 0
 592 677 576 682 556 682 c 0
 550 682 544 682 538 681 c 0
 488 676 471 644 454 636 c 1
 449 635 445 635 442 635 c 0
 434 635 427 636 418 636 c 1
 415 639 396 703 396 734 c 0
 396 743 398 749 402 750 c 0
 430 755 459 763 491 763 c 2
 501 763 l 1
 512 765 521 765 530 765 c 0
 577 765 608 746 646 726 c 0
 647 726 648 725 649 725 c 0
 692 694 744 679 777 619 c 0
 808 563 818 513 818 462 c 0
 818 422 812 382 804 338 c 0
 787 254 757 202 702 136 c 0
 662 89 627 68 574 40 c 0
 522 12 455 -4 381 -4 c 0
 356 -4 330 -1 300 6 c 0
 239 21 214 51 169 73 c 1
 99 134 91 189 79 285 c 1
 79 287 l 1
 78 311 76 333 76 354 c 0
 76 391 80 425 92 469 c 0
 108 529 122 573 169 623 c 0
 226 683 279 701 350 730 c 0
 361 734 367 735 371 736 c 0xe1
522 776 m 0xe3
 522 778 525 779 525 782 c 0
 525 790 517 801 513 808 c 1
 511 802 509 792 508 784 c 0
 506 776 494 772 480 772 c 0
 465 772 448 777 448 786 c 0xf3
 448 787 449 788 449 790 c 0
 459 816 466 830 488 873 c 0
 491 877 498 881 505 883 c 1xe9
 505 909 506 925 515 946 c 0xe5
 524 968 524 989 547 996 c 0
 555.114 998.367 562.542 999.704 569.478 999.704 c 0
 583.057 999.704 594.747 994.576 606 982 c 0
 612.834 974.483 615.932 965.098 615.932 955.759 c 0xe9
 615.932 951.433 615.267 947.116 614 943 c 0
 605 919 586 920 574 910 c 0
 556 896 560 895 538 883 c 1
 539 882 541 881 542 879 c 0
 558 854 559 842 566 822 c 0
 570 810 574 798 577 787 c 0
 577 786 577 785 577 784 c 0
 577 775 558 771 542 771 c 0
 531 771 522 772 522 776 c 0xe3
EndSplineSet
Validated: 1
EndChar

StartChar: uni1ED2
Encoding: 7890 7890 292
Width: 754
Flags: W
HStem: -4 75<319.418 467.385> 682 83<483.625 613.405>
VStem: 79 139<181.862 428.458> 421.365 110.635<910.88 970.637> 450 60<772.707 789.907> 524 55<771.865 807.669> 689 129<345.793 579.838>
LayerCount: 2
Fore
SplineSet
371 736 m 0xe2
 374 736 384 645 384 629 c 1
 344 587 315 569 282 521 c 0
 256 483 253 456 234 414 c 1
 225 366 218 326 218 287 c 0
 218 249 225 211 246 168 c 1
 287 133 299 95 350 77 c 0
 362 73 372 71 383 71 c 0
 394 71 406 73 420 77 c 0
 495 97 535 128 588 185 c 0
 635 235 648 277 666 343 c 0
 679 394 689 434 689 476 c 0
 689 503 685 531 676 563 c 0
 663 608 649 637 610 664 c 0
 592 677 576 682 556 682 c 0
 550 682 544 682 538 681 c 0
 488 676 471 644 454 636 c 1
 449 635 445 635 442 635 c 0
 434 635 427 636 418 636 c 1
 415 639 396 703 396 734 c 0
 396 743 398 749 402 750 c 0
 430 755 459 763 491 763 c 2
 501 763 l 1
 512 765 521 765 530 765 c 0
 577 765 608 746 646 726 c 0
 647 726 648 725 649 725 c 0
 692 694 744 679 777 619 c 0
 808 563 818 513 818 462 c 0
 818 422 812 382 804 338 c 0
 787 254 757 202 702 136 c 0
 662 89 627 68 574 40 c 0
 522 12 455 -4 381 -4 c 0
 356 -4 330 -1 300 6 c 0
 239 21 214 51 169 73 c 1
 99 134 91 189 79 285 c 1
 79 287 l 1
 78 311 76 333 76 354 c 0
 76 391 80 425 92 469 c 0
 108 529 122 573 169 623 c 0
 226 683 279 701 350 730 c 0
 361 734 367 735 371 736 c 0xe2
524 776 m 0xe6
 524 778 527 779 527 782 c 0
 527 790 519 801 515 808 c 1
 513 802 511 792 510 784 c 0
 508 776 496 772 482 772 c 0
 467 772 450 777 450 786 c 0xee
 450 787 451 788 451 790 c 0
 461 816 468 830 490 873 c 0
 490 874 492 875 493 876 c 1
 478 885 479 888 464 900 c 0
 452 910 432 909 424 933 c 0
 422.258 937.53 421.365 942.303 421.365 947.065 c 0
 421.365 955.968 424.485 964.833 431 972 c 0
 442.253 984.576 453.943 989.704 467.522 989.704 c 0
 474.458 989.704 481.886 988.367 490 986 c 0
 514 979 513 958 522 936 c 0
 530 918 531 906 532 886 c 1xf2
 536 885 541 883 544 879 c 0
 560 854 561 842 568 822 c 0
 572 810 576 798 579 787 c 0
 579 786 579 785 579 784 c 0
 579 775 560 771 544 771 c 0
 533 771 524 772 524 776 c 0xe6
EndSplineSet
Validated: 1
EndChar

StartChar: uni1ED4
Encoding: 7892 7892 294
Width: 754
Flags: W
HStem: -4 75<319.418 467.318> 682 83<483.625 613.405> 888.2 107.8<504.589 550.549>
VStem: 79 139<181.862 428.443> 447.399 59.201<771.009 806.119> 524.2 52<770.476 806.459> 550.9 58.1<874.652 920.75> 689 129<345.793 578.575>
LayerCount: 2
Fore
SplineSet
550.2 888.2 m 0xfb
 527.101 902.2 516.601 893.1 504 908.5 c 0
 497 917.6 494.9 926 494.9 935.8 c 0
 494.9 967.058 506.623 996 539 996 c 0
 557.2 996 572.601 984.8 585.9 970.1 c 0
 603.4 951.2 609 932.3 609 909.2 c 0xfb
 609 905 608.3 900.8 608.3 895.899 c 0
 606.9 872.1 601.3 856 583.8 839.2 c 0
 574.975 830.894 570.289 824.898 564.816 820.534 c 1
 568.979 808.453 572.558 796.545 575.8 785.2 c 0
 576.2 784.4 576.2 783.6 576.2 782.8 c 0
 576.2 773.2 556.6 769.2 540.6 769.2 c 0
 529.8 769.2 521 770.8 521 774 c 0
 521 775.959 524.2 777.861 524.2 780.8 c 0xfd
 524.2 788 516.2 799.6 511.8 806.8 c 1
 510.2 800.4 507.8 790.8 506.6 782.4 c 0
 505.399 774 492.6 770.4 479 770.4 c 0
 463.8 770.4 447.399 775.2 447.399 784.8 c 0
 447.399 785.6 447.8 786.8 448.2 788 c 0
 457.8 814.4 464.6 828.4 486.6 871.2 c 1
 492.456 879.009 510.75 884.8 521 884.8 c 0
 526.853 884.8 537.038 882.899 540.6 877.6 c 0
 543.678 873.019 546.205 868.878 548.326 865.039 c 1
 549.952 870.689 550.9 876.978 550.9 884 c 0
 550.9 885.399 550.9 886.8 550.2 888.2 c 0xfb
371 736 m 0
 374 736 384 645 384 629 c 1
 344 587 315 569 282 521 c 0
 256 483 253 456 234 414 c 1
 225 366 218 326 218 287 c 0
 218 249 225 211 246 168 c 1
 287 133 299 95 350 77 c 0
 362 73 372 71 383 71 c 0
 394 71 406 73 420 77 c 0
 495 97 534.846 128.144 588 185 c 0
 634.864 235.127 648 277 666 343 c 0
 679 394 689 434 689 476 c 0
 689 503 685 531 676 563 c 0
 663 608 649 637 610 664 c 0
 592 677 576 682 556 682 c 0
 550 682 544 682 538 681 c 0
 488 676 471 644 454 636 c 1
 449 635 445 635 442 635 c 0
 434 635 427 636 418 636 c 1
 415 639 396 703 396 734 c 0
 396 743 398 749 402 750 c 0
 430 755 459 763 491 763 c 2
 501 763 l 1
 512 765 521 765 530 765 c 0
 577 765 608 746 646 726 c 0
 647 726 648 725 649 725 c 0
 692 694 743.918 678.955 777 619 c 0
 807.923 562.958 818 513 818 462 c 0
 818 422 812 382 804 338 c 0
 787 254 757 202 702 136 c 0
 662 89 627 68 574 40 c 0
 521.905 11.7207 454.801 -4 381 -4 c 0
 356 -4 330 -1 300 6 c 0
 238.551 20.5811 213.807 50.5967 169 73 c 1
 99 134 91 189 79 285 c 1
 79 287 l 1
 78 311 76 333 76 354 c 0
 76 391 80.1244 424.966 92 469 c 0
 108.169 528.954 122 573 169 623 c 0
 226 683 279 701 350 730 c 0
 361 734 367 735 371 736 c 0
EndSplineSet
Validated: 1
EndChar

StartChar: uni1EDE
Encoding: 7902 7902 304
Width: 722
Flags: W
HStem: -4 75<319.418 467.318> 682 83<483.625 596.391> 858.1 123.2<436.909 489.184>
VStem: 79 139<181.862 428.444> 489.585 66.4<831.677 895.3> 607 262<783.866 910.884> 689 129<345.793 579.904>
LayerCount: 2
Fore
SplineSet
488.785 858.1 m 0xf8
 462.385 874.1 450.385 863.7 435.985 881.3 c 0
 427.985 891.7 425.585 901.3 425.585 912.5 c 0
 425.585 948.224 438.982 981.3 475.985 981.3 c 0
 496.785 981.3 514.385 968.5 529.585 951.7 c 0
 549.585 930.1 555.985 908.5 555.985 882.1 c 0
 555.985 877.3 555.186 872.5 555.186 866.9 c 0
 553.585 839.7 547.186 821.3 527.186 802.1 c 0
 499.985 776.5 507.186 770.1 438.385 767.7 c 1
 436.785 769.3 436.785 770.1 436.785 770.9 c 0
 436.785 782.1 489.585 797.3 489.585 853.3 c 0
 489.585 854.9 489.585 856.5 488.785 858.1 c 0xf8
566 618 m 0
 566 636.259 587.104 662.104 597 672 c 1
 584 679 570.985 682 555.985 682 c 0
 549.985 682 544 682 538 681 c 0
 488 676 471 644 454 636 c 1
 449 635 445 635 442 635 c 0
 434 635 427 636 418 636 c 1
 415 639 396 703 396 734 c 0
 396 743 398 749 402 750 c 0
 430 755 459 763 491 763 c 2
 501 763 l 1
 512 765 521 765 530 765 c 0
 577 765 608 746 646 726 c 0
 647 726 648 725 649 725 c 2
 657 720 l 1
 668.634 726.98 708.412 750.237 711 758 c 1
 710 758 698 753 684 753 c 0
 669 753 649 758 634 777 c 0
 616 798 607 822 607 847 c 0
 607 862 611 878 618 893 c 0
 635 931 669 942 697 949 c 0
 716 954 740 962 764 962 c 0
 786 962 807 956 827 937 c 0
 859 905 869 870 869 833 c 0xfc
 869 794 857 755 845 719 c 1
 828 675 800 652 771 630 c 1
 773 626 775 623 777 619 c 0
 808 563 818 513 818 462 c 0
 818 422 812 382 804 338 c 0
 787 254 757 202 702 136 c 0
 662 89 627 68 574 40 c 0
 521.905 11.7207 454.801 -4 381 -4 c 0
 356 -4 330 -1 300 6 c 0
 238.551 20.5811 213.807 50.5967 169 73 c 1
 99 134 91 189 79 285 c 1
 79 287 l 1
 78 311 76 333 76 354 c 0
 76 391 80.1244 424.967 92 469 c 0
 108.169 528.954 122 573 169 623 c 0
 226 683 279 701 350 730 c 0
 361 734 367 735 371 736 c 0
 374 736 384 645 384 629 c 1
 344 587 315 569 282 521 c 0
 256 483 253 456 234 414 c 1
 225 366 218 326 218 287 c 0
 218 249 225 211 246 168 c 1
 287 133 299 95 350 77 c 0
 362 73 372 71 383 71 c 0
 394 71 406 73 420 77 c 0
 495 97 534.846 128.145 588 185 c 0
 634.864 235.127 648 277 666 343 c 0
 679 394 689 434 689 476 c 0xfa
 689 509.52 679.963 555.1 668 587 c 1
 661 586 654 586 646 586 c 0
 609 586 566 592 566 618 c 0
EndSplineSet
Validated: 1
EndChar

StartChar: uni1EDF
Encoding: 7903 7903 305
Width: 424
Flags: W
HStem: 7 116<170.276 217.347> 474 20G<284.015 310.415> 486.561 125.439<349.513 399.82> 582.42 123.2<200.203 252.478>
VStem: 48.0146 122<123.521 255.62> 252.879 66.4<555.997 619.62> 333.813 167.681<497.124 596.368>
LayerCount: 2
Fore
SplineSet
252.079 582.42 m 0x9e
 225.679 598.42 213.679 588.021 199.279 605.62 c 0
 191.279 616.021 188.879 625.62 188.879 636.82 c 0
 188.879 672.544 202.276 705.62 239.279 705.62 c 0
 260.079 705.62 277.679 692.82 292.879 676.021 c 0
 312.879 654.42 319.279 632.82 319.279 606.42 c 0
 319.279 601.62 318.479 596.82 318.479 591.221 c 0
 316.879 564.021 310.479 545.62 290.479 526.42 c 0
 263.279 500.82 270.479 494.42 201.679 492.021 c 1
 200.079 493.62 200.079 494.42 200.079 495.221 c 0
 200.079 506.42 252.879 521.62 252.879 577.62 c 0
 252.879 579.221 252.879 580.82 252.079 582.42 c 0x9e
210.015 290 m 0
 179.766 237.344 170.015 205.032 170.015 138 c 0
 170.015 128 171.015 123 177.015 123 c 0
 182.015 123 189.015 126 200.015 132 c 0
 227.015 147 230.999 166.009 253.015 206 c 0
 279.995 255.011 293.015 280 300.015 331 c 0
 304.015 358 304.015 360 302.015 362 c 0
 298.015 367 292.015 369 275.015 363 c 0
 242.015 351 233.015 330 210.015 290 c 0
80.0146 52 m 0
 53.0146 80 48.0146 112 48.0146 142 c 0
 48.0146 153 49.0146 163 49.0146 173 c 0
 51.0146 232 66.0801 269.966 92.0146 320 c 0
 123.094 379.959 143.175 443.631 220.015 477 c 0
 245.067 487.88 271.015 494 297.015 494 c 0xce
 323.815 494 349.868 487.273 373.882 469.941 c 1
 380.719 474.129 399.627 487.519 400.374 489.76 c 1
 399.734 489.76 392.055 486.561 383.095 486.561 c 0
 373.494 486.561 360.694 489.76 351.095 501.92 c 0
 339.574 515.36 333.813 530.721 333.813 546.721 c 0
 333.813 556.32 336.374 566.561 340.854 576.16 c 0
 351.734 600.479 373.494 607.521 391.414 612 c 0xae
 403.574 615.2 418.935 620.32 434.294 620.32 c 0
 448.374 620.32 461.813 616.479 474.614 604.32 c 0
 495.095 583.84 501.494 561.439 501.494 537.76 c 0
 501.494 512.8 493.813 487.84 486.134 464.8 c 0
 473.974 431.521 451.574 417.439 429.174 400.16 c 0
 424.137 396.382 418.945 392.604 412.988 389.359 c 1
 412.753 377.248 411.015 365.255 411.015 355 c 0
 406.015 261 384.015 201 338.015 121 c 0
 314.015 80 294.015 32 233.015 14 c 0
 217.015 9 201.015 7 185.015 7 c 0
 146.015 7 110.015 22 80.0146 52 c 0
EndSplineSet
Validated: 1
EndChar

StartChar: A
Encoding: 65 65 332
Width: 728
VWidth: 1080
Flags: W
HStem: 0 150<50.799 175.463> 9 124<410.656 491.849 677.001 720.762>
VStem: 18 353<26.0042 115.531>
LayerCount: 2
Fore
SplineSet
593 376 m 1x20
 629 379 655 394 655 432 c 0
 655 446 649 459 633 473 c 0
 626 478 580 485 577 488 c 1
 537 474 527 447 527 424 c 0
 527 404 535 387 535 387 c 2
 536 385 553 376 582 376 c 2
 593 376 l 1x20
541 244 m 1
 482.818 262.182 468.438 263.008 452.029 263.008 c 0
 450.388 263.008 448.727 263 447 263 c 0
 426 263 409 261 406 261 c 1
 349 137 339 180 328 138 c 1
 340 134 357 126 363 116 c 0
 369 106 371 96 371 88 c 0
 371 64 355 45 354 36 c 1
 352 28 348 23 340 20 c 0
 312 8 285 5 258 5 c 0
 234 5 211 7 187 7 c 2
 167 7 l 2
 151 7 126 0 99 0 c 0
 77 0 54 4 35 26 c 0
 23 40 18 55 18 69 c 0
 18 93 31 116 50 132 c 0
 67 146 87 150 104 150 c 0xa0
 127 150 146 143 148 143 c 1
 274 257 280 293 437 464 c 0
 499 531 535 575 605 641 c 1
 654 685 615 649 729 739 c 0
 743 750 758 755 773 755 c 0
 822 755 872 709 872 666 c 0
 872 659 871 652 868 645 c 0
 820 538 794 487 755 385 c 0
 722 299 697 255 684 170 c 0
 681 153 677 142 677 136 c 0
 677 134 678 133 680 133 c 0
 682 133 687 134 692 134 c 0
 700 134 711 131 723 110 c 0
 730 99 732 88 732 78 c 0
 732 56 721 37 720 27 c 1
 714 12 711 6 699 6 c 0
 687 6 677 9 663 9 c 0x60
 620 9 558 0 498 0 c 0xa0
 471 0 444 1 419 7 c 1
 405 12 401 17 400 30 c 0
 400 37 388 57 388 78 c 0
 388 93 393 108 410 122 c 0
 424 133 438 137 452 137 c 0
 472 137 489 128 492 124 c 1
 541 188 522 226 541 244 c 1
EndSplineSet
Validated: 1
EndChar

StartChar: B
Encoding: 66 66 333
Width: 623
VWidth: 1080
Flags: W
HStem: 3 129<25.344 109.096> 32 85<281.29 398.594> 629 126<172.932 264.621> 663 86<426.467 512.952>
VStem: 470 177<179.248 303.691> 544 162<495.399 632.396>
LayerCount: 2
Fore
SplineSet
339 341 m 0x48
 306 314 316 283 302 224 c 0
 294 188 280 148 280 130 c 0
 280 128 280 126 281 124 c 1
 287 121 305 117 326 117 c 0
 344 117 363 120 380 128 c 1
 412 150 426 148 439 166 c 0
 459 194 470 214 470 238 c 0
 470 246 469 255 466 265 c 0
 453 309 428 333 380 347 c 0
 373 349 368 350 363 350 c 0
 354 350 347 347 339 341 c 0x48
364 436 m 1
 404 440 428 440 459 450 c 0
 490 461 503 468 519 491 c 1
 537 515 544 530 544 555 c 0
 544 560 543 565 543 570 c 0
 540 608 534 627 507 645 c 0
 490 657 475 663 462 663 c 0x14
 454 663 446 661 439 657 c 0
 422 647 427 631 409 586 c 0
 392 544 386 522 379 490 c 0
 373 464 369 440 364 436 c 1
311 756 m 0
 346.567 756 380.381 749 419 749 c 0
 452 749 485 754 518 754 c 0
 558 754 598 747 639 719 c 0
 690 684 702 637 705 586 c 0
 705 580 706 575 706 569 c 0
 706 516 688 475 652 432 c 0
 603 375 549 381 535 377 c 1
 544 377 l 2x14
 556 377 578 374 593 358 c 0
 633 314 645 271 647 217 c 0
 647 211 647 205 647 199 c 0
 647 152 642 106 598 67 c 0
 556 29 511 42 479 33 c 0
 476 33 474 32 472 32 c 2
 464 32 l 2x58
 374 32 302 3 126 3 c 0
 99 3 71 3 39 5 c 1
 17.8041 8.02798 12 22.7936 12 47 c 0
 12 70 19 94 26 112 c 0
 30 121 35 126 45 128 c 0
 62 132 73 132 80 132 c 0
 81 132 82 132 83 132 c 0
 88 132 91 132 94 134 c 0
 118 153 111 176 128 223 c 0
 150 284 157 320 176 381 c 1
 209 559 250 616 265 637 c 1
 257 633 243 629 227 629 c 0
 197.952 629 151 650.589 151 689 c 0
 151 702 156 714 164 724 c 0
 187 751 217 755 243 755 c 2
 282 755 l 1xa8
 293 756 302 756 311 756 c 0
EndSplineSet
Validated: 1
EndChar

StartChar: C
Encoding: 67 67 334
Width: 671
VWidth: 1080
Flags: W
HStem: 4 131<327.647 444.992> 471 239<645.879 761.385> 643 108<419.474 565.961>
VStem: 58 203<203.801 405.515> 72 189<228.923 461.437>
LayerCount: 2
Fore
SplineSet
681 271 m 0xb0
 685 258 686 243 686 226 c 0
 686 202 683 174 680 147 c 0
 676 111 687 72 651 30 c 0
 644 22 626 0 601 0 c 0
 594 0 587 3 580 6 c 0
 563 13 555 23 555 31 c 0
 555 36 559 40 566 41 c 0
 567 41 568 42 568 42 c 1
 563 42 l 2
 556 42 542 42 524 41 c 0
 452 38 407 4 320 4 c 2
 306 4 l 1
 252 5 212 13 164 39 c 0
 121 62 110 89 85 112 c 1
 63.4595 144.311 58 191.652 58 227 c 0xb0
 58 268 66 311 72 361 c 0
 72 363 73 364 73 366 c 2
 73 366 88 463 114 519 c 24
 129 552 147 576 166 595 c 0
 239 671 295 703 401 729 c 1
 460 748 492 751 561 751 c 2
 601 751 l 2xa8
 606 751 610 750 614 748 c 0
 647 731 656 718 680 712 c 0
 686 711 690 710 696 710 c 0xc8
 708 710 720 713 745 713 c 1
 757 712 763 709 768 700 c 0
 777 682 780 663 780 643 c 0xa8
 780 597 764 549 764 513 c 2
 764 505 l 1
 762 489 759 484 741 481 c 0
 736 480 721 471 700 471 c 0xc8
 690 471 679 473 668 478 c 0
 629 495 629 530 622 539 c 0
 590 583 586 609 552 632 c 0
 538 641 532 643 513 643 c 2
 505 643 l 2
 464 643 442 636 405 613 c 0
 349 579 330 549 297 491 c 0
 276 453 273 429 266 382 c 1
 262 363 261 349 261 334 c 0
 261 324 262 313 263 299 c 0
 267 254 263 232 284 202 c 0
 310 165 332 149 378 137 c 0
 384 135 390 135 395 135 c 0
 405 135 416 137 434 142 c 0
 477 152 497 158 527 180 c 1
 551 199 539 254 602 279 c 0
 604 280 629 294 651 294 c 0
 664 294 676 289 681 271 c 0xb0
EndSplineSet
Validated: 1
EndChar

StartChar: D
Encoding: 68 68 335
Width: 797
VWidth: 1080
Flags: W
HStem: 10 117<315.637 457.881> 600 143<198.348 266>
VStem: 662 203<352.261 546.466>
LayerCount: 2
Fore
SplineSet
317 148 m 0
 331 132 348 127 366 127 c 0
 389 127 413 135 439 142 c 8
 475 153 492 169 519 196 c 0
 570 246 598 271 628 329 c 0
 651 372 662 394 662 436 c 2
 662 441 l 1
 660 503 655 538 615 579 c 1
 584 609 558 620 514 620 c 0
 512 620 510 620 508 620 c 0
 490 619 480 616 466 601 c 0
 434 566 430 535 409 473 c 0
 386 403 381 368 354 300 c 0
 335 253 326 225 318 185 c 0
 316 174 312 167 312 160 c 0
 312 156 313 152 317 148 c 0
266 600 m 1
 264 600 l 2
 248 600 201 609 183 639 c 0
 177 649 175 658 175 667 c 0
 175 694 196 715 199 725 c 0
 203 737 208 742 222 743 c 0
 283 746 324 746 384 748 c 0
 386 748 388 748 390 748 c 2
 474 731 l 1
 556 716 620 731 708 690 c 0
 769 662 806 631 839 578 c 0
 863 539 864 507 865 469 c 1
 865 444 l 2
 865 389 858 348 834 291 c 0
 820 259 802 243 783 220 c 1
 737 169 710 132 645 91 c 0
 569 44 513 39 437 10 c 0
 433 8 429 8 425 8 c 0
 401 10 378 10 355 10 c 0
 286 10 223 5 159 5 c 0
 128 5 97 6 65 10 c 0
 54 12 49 16 45 26 c 0
 42 34 19 53 19 82 c 0
 19 88 20 95 23 103 c 0
 45 160 111 155 125 172 c 0
 144 196 139 218 155 260 c 0
 171 301 182 325 197 362 c 1
 199 370 258 574 266 600 c 1
EndSplineSet
Validated: 1
EndChar

StartChar: E
Encoding: 69 69 336
Width: 639
VWidth: 1080
Flags: W
HStem: 12 169<530.89 624.309> 15 110.747<399.563 479.761> 15 103<45.3372 139.733 341.573 449.427 450.06 511.966> 353 87<397.005 438.751> 516 21G<675.5 693> 518 20G<548 563> 618 135<193.175 301.619> 636 108<455.188 599.465>
VStem: 430 160<261.145 351.762>
LayerCount: 2
Fore
SplineSet
257 618 m 0x9280
 230 618 161 632 161 668 c 0
 161 695 189 724 189 725 c 0
 193 736 198 741 211 742 c 0
 274 748 335 745 410 753 c 0
 412 753 414 753 416 753 c 0x9280
 453 749 471 745 504 744 c 1
 515 744 l 2
 545 744 565 747 602 748 c 0
 614 748 632 755 652 755 c 0
 665 755 679 753 694 744 c 0
 743 716 739 668 751 645 c 0
 753 643 753 641 754 638 c 0
 756 625 758 611 758 595 c 0
 758 579 756 561 746 541 c 1
 740 532 732 535 723 528 c 0
 722 527 703 516 683 516 c 0x1980
 668 516 652 522 641 540 c 0
 613 586 613 609 584 627 c 0
 570 635 558 637 542 637 c 0
 531 637 519 636 502 636 c 2
 498 636 l 2
 483 636 475 639 467 639 c 0
 463 639 459 639 455 636 c 1
 440 619 437 579 432 558 c 0
 419 502 397 472 397 448 c 0
 397 445 397 443 398 440 c 0
 399 440 414 435 434 435 c 0
 445 435 458 437 470 443 c 0
 485 451 464 495 511 526 c 0
 526 536 541 538 555 538 c 0
 571 538 584 535 593 535 c 2
 595 535 l 1
 612 534 619 531 622 515 c 0
 624 505 625 496 625 488 c 0
 625 435 595 396 592 354 c 0
 592 351 591 349 590 347 c 0
 577 318 584 286 559 244 c 0
 549 229 524 221 503 221 c 0
 484 221 457 230 448 248 c 1
 435 280 430 304 430 320 c 0
 430 337 435 347 439 352 c 1
 431 352 418 353 405 353 c 0
 392 353 378 352 369 351 c 1
 338 292 343 241 324 158 c 1
 329 154 348 130 366 124 c 0
 378 120 388 118 399 118 c 0x3580
 411 118 424 121 443 125 c 0
 444.941 125.529 447.163 125.747 449.538 125.747 c 0x5080
 460.623 125.747 475.059 121 480 121 c 0
 497 121 502 132 541 169 c 0
 545 173 549 175 555 176 c 0
 562 177 576 181 591 181 c 0x9080
 606 181 624 177 637 161 c 0
 649 147 653 132 653 118 c 0x3080
 653 83 627 52 624 32 c 1
 620 19 615 14 601 12 c 0x9080
 591 11 579 11 566 11 c 0
 523 11 467 15 407 15 c 0x5080
 382 15 356 14 331 12 c 1
 31 12 l 1
 10 19 8 12 9 32 c 1
 9 35 l 2
 9 44 10 64 27 81 c 0
 70 126 118 116 135 123 c 1
 147 145 134 209 190 325 c 1
 256 494 l 18
 284 564 297 609 302 627 c 1
 294 623 278 618 257 618 c 0x9280
EndSplineSet
Validated: 1
EndChar

StartChar: F
Encoding: 70 70 337
Width: 600
VWidth: 1080
Flags: W
HStem: 9 119<66.6669 144.014 298 374.486> 519 234<645.836 737.073> 629 129<196.219 294.576> 640 109<473.373 614.044> 650 99<466.14 568.295>
VStem: 644 117<544.936 595.512>
LayerCount: 2
Fore
SplineSet
259 629 m 0xa4
 233.408 629 164 641.135 164 677 c 0
 164 703 192 731 192 731 c 2
 197 741 202 746 214 747 c 0
 277 753 338 750 413 758 c 1
 415 758 l 2xa4
 427 758 471 750 507 749 c 1
 525 749 l 2x94
 552 749 533 753 684 753 c 2
 686 753 l 2
 750 753 750 707 757 642 c 0
 758 628 761 614 761 598 c 0
 761 582 758 564 749 544 c 1
 743 535 735 538 726 531 c 0
 725 530 706 519 685 519 c 0xc4
 670 519 655 524 644 542 c 0
 614 592 624 623 596 640 c 0
 587 645 579 647 569 647 c 0
 554 647 536 642 506 640 c 1
 502 640 l 2x94
 486 640 481 650 473 650 c 0x8c
 471 650 469 649 466 648 c 1
 464 644 408 482 397 465 c 1
 407 461 432 444 447 444 c 0
 471.306 444 442.892 495.609 492 528 c 0
 507 538 522 541 535 541 c 0
 549 541 560 538 566 538 c 2
 568 538 l 1
 585 537 592 534 595 518 c 0
 597 508 598 499 598 490 c 0
 598 437 568 397 565 355 c 0
 565 352 564 350 563 347 c 0
 550 318 557 286 532 244 c 0
 526 235 520 232 509 231 c 1
 465 231 l 1
 453 232 447 238 443 248 c 0
 426 287 421 311 421 325 c 0
 421 330 422 334 423 336 c 1
 415 337 400 337 387 337 c 0
 377 337 368 337 364 336 c 1
 293 181 321 194 298 127 c 1
 300 127 304 128 308 128 c 0
 330 128 371 122 383 94 c 0
 386 86 388 78 388 70 c 0
 388 42 370 13 335 9 c 1
 34 9 l 1
 13 16 11 9 12 30 c 1
 12 32 l 2
 12 39 13 62 30 79 c 0
 73 124 121 115 138 121 c 1
 150 144 137 209 192 325 c 1
 262 557 l 2
 264 565 288 619 295 634 c 1
 286 631 274 629 259 629 c 0xa4
EndSplineSet
Validated: 1
EndChar

StartChar: G
Encoding: 71 71 338
Width: 763
VWidth: 1080
Flags: W
HStem: 6 110<352.821 499.641> 245 116<706.011 794.155> 661 93<465.916 602.942>
VStem: 71 201<230.942 463.241>
LayerCount: 2
Fore
SplineSet
706 252 m 1
 706 248 713 237 713 206 c 0
 713 190 711 168 705 138 c 0
 705 136 704 134 704 131 c 0
 704 126 705 119 705 111 c 0
 705 97 703 80 688 63 c 0
 658 29 620 29 589 23 c 0
 540 13 500 6 457 6 c 0
 428 6 397 9 362 17 c 0
 278 36 224 62 162 117 c 0
 125 151 112 182 96 223 c 0
 81 264 71 297 71 337 c 0
 71 347 72 357 73 368 c 0
 82 452 101 509 155 579 c 0
 206 644 255 675 331 710 c 0
 390 738 476 754 561 754 c 0
 629 754 697 743 747 717 c 0
 781 699 794 680 816 663 c 0
 822 658 825 653 825 647 c 0
 825 643 825 639 825 635 c 0
 825 582 806 522 759 483 c 0
 752 477 745 476 736 478 c 2
 686 488 l 1
 677 491 672 494 669 502 c 0
 646 555 661 583 640 604 c 1
 606 631 597 661 553 661 c 0
 537 661 515 657 485 646 c 0
 429 627 405 608 363 566 c 0
 324 527 308 505 292 457 c 0
 278 415 272 383 272 348 c 0
 272 325 275 300 279 270 c 0
 286 222 288 199 316 167 c 0
 337 143 352 135 387 126 c 0
 409 120 426 116 441 116 c 0
 453 116 464 118 477 124 c 0
 505 137 516 151 526 183 c 0
 531 198 534 209 534 220 c 0
 534 232 530 242 521 254 c 0
 518 258 458 249 425 298 c 0
 420 306 418 313 418 319 c 0
 418 328 421 333 421 333 c 1
 422 344 425 350 436 354 c 0
 462 365 484 368 506 368 c 0
 538 368 571 361 620 361 c 2
 776 361 l 1
 794 358 798 355 801 339 c 0
 802 336 810 322 810 304 c 0
 810 293 807 280 795 268 c 0
 777 250 757 245 741 245 c 0
 721 245 706 252 706 252 c 1
EndSplineSet
Validated: 1
EndChar

StartChar: H
Encoding: 72 72 339
Width: 798
VWidth: 1080
Flags: W
HStem: 4 123<39.5625 111.758 287.237 351.188 431.938 538.939> 11 112<492.26 549.177 699.071 766.721> 342 94<381.825 587.577> 618 115<171.799 266.666> 634 109<422.646 494.923 853.189 876.83> 634 100<430.985 505.703> 639 114<655.426 702.762 853.189 930.763>
LayerCount: 2
Fore
SplineSet
746 11 m 0x62
 734.618 11 720.962 14 708 14 c 0
 661 14 603 4 584 4 c 2
 580 4 l 1
 571 6 562 7 553 7 c 0
 529 7 504 0 471 0 c 0
 459 0 447 2 433 4 c 1
 415 10 411 14 411 33 c 0
 411 38 409 48 409 60 c 0
 409 75 413 94 431 110 c 0
 451 127 472 132 491 132 c 0
 518 132 538 121 539 121 c 0
 562 176 595 250 595 305 c 0
 595 318 593 331 588 341 c 1
 579 340 569 340 559 340 c 0
 529 340 493 342 456 342 c 0
 415 342 373 340 334 332 c 1
 299 248 297 187 287 124 c 1
 292 126 300 127 309 127 c 0
 326 127 347 122 360 106 c 0
 368 96 370 86 370 77 c 0
 370 53 353 32 353 30 c 0
 341 -0 341 19 178 4 c 0
 175 3 172 4 169 4 c 0
 163 6 156 6 150 6 c 0
 131 6 110 0 76 0 c 0
 64 0 51 2 35 4 c 1
 19 9 13 12 13 24 c 0
 13 26 13 29 14 33 c 1
 14 35 l 2
 14 41 13 49 13 58 c 0
 13 76 17 99 39 119 c 0
 51 130 63 134 74 134 c 0
 92 134 107 125 112 125 c 1
 133 133 130 175 140 210 c 0
 151 252 165 358 188 433 c 0
 223 546 248 571 267 628 c 1
 260 622 245 618 226 618 c 0
 208 618 188 622 171 637 c 0
 154 652 152 671 152 683 c 2
 152 694 l 1
 150 709 152 715 166 722 c 0
 189 732 215 733 242 733 c 2
 256 733 l 2xb0
 279 733 302 734 325 740 c 0
 328 741 331 741 334 741 c 0
 341 740 348 740 355 740 c 0
 380 740 404 743 430 743 c 0x28
 451 743 473 741 496 734 c 1x24
 509 728 513 723 513 708 c 1
 513 708 516 699 516 688 c 0
 516 676 513 662 499 649 c 0
 487 637 475 634 464 634 c 0x28
 450 634 438 641 437 641 c 0
 420 623 424 606 410 562 c 0
 390 502 382 456 380 449 c 1
 419 439 454 436 495 436 c 0
 531 436 571 439 622 439 c 1
 632 462 654 494 674 553 c 0
 688 595 704 614 704 630 c 0
 704 634 703 638 700 643 c 0
 694.003 652.596 625 639.344 625 678 c 0
 625 707 642 730 655 744 c 0
 664 754 678 757 696 757 c 0
 724 757 763 749 808 746 c 1
 812 746 l 2
 831 746 853 753 878 753 c 0
 894.355 753 923.066 749.245 933 736 c 0
 945 719 949 703 949 690 c 0
 949 661 931 644 931 643 c 0
 926 638 918 637 909 637 c 0
 897 637 882 639 870 639 c 0
 863 639 857 639 853 636 c 1
 810 584 845 509 790 387 c 1
 736 127 710 175 698 122 c 1
 702 123 707 123 712 123 c 0
 729 123 754 118 768 101 c 0
 776 90 779 79 779 70 c 0
 779 49 767 33 767 32 c 0
 761 17 758 11 746 11 c 0x62
EndSplineSet
Validated: 1
EndChar

StartChar: I
Encoding: 73 73 340
Width: 467
VWidth: 1080
Flags: W
HStem: 3 136<58.7925 184.983 380.22 435.677> 619 126<552.034 640.248> 626 134<282.975 357.758 555.439 630.458>
LayerCount: 2
Fore
SplineSet
97 -3 m 0xc0
 62.0047 -3 14 20.1054 14 59 c 0
 14 66 16 72 19 79 c 0
 46 133 108 126 143 136 c 0
 162 142 185 144 185 144 c 1
 197 167 178 171 221 260 c 1
 253 331 l 1
 287 410 351 524 355 607 c 0
 355 609 359 632 358 634 c 1
 353 634 337 626 318 626 c 0
 305 626 291 630 277 644 c 0
 265 656 259 672 259 688 c 0
 259 704 265 720 278 733 c 0
 299 754 323 760 347 760 c 0xa0
 381 760 415 747 442 747 c 2
 451 747 l 1
 455 746 458 746 462 746 c 0
 483 746 509 755 551 755 c 0
 573 755 599 752 632 745 c 1
 646 740 651 735 651 721 c 0
 651 714 658 700 658 682 c 0
 658 669 654 654 641 640 c 0
 625 623 606 619 592 619 c 0
 579 619 570 622 569 622 c 0
 533 577 527 562 496 448 c 0
 496 447 496 446 495 445 c 2
 428 275 l 1
 398 161 388 165 379 134 c 1
 385 137 391 139 397 139 c 0
 418.804 139 458 103.52 458 69 c 0
 458 50 450 34 450 26 c 1
 446 9 443 3 424 3 c 2
 419 3 l 2
 388 3 310 14 233 14 c 0
 219 14 205 14 192 13 c 0
 160 11 129 -3 97 -3 c 0xc0
EndSplineSet
Validated: 1
EndChar

StartChar: J
Encoding: 74 74 341
Width: 583
VWidth: 1000
Flags: W
HStem: -259 113<128 244.297> 386 109<395.945 454.742 671.995 732.295> 588 165<711.03 810.696> 668 91<260.285 343.719>
LayerCount: 2
Fore
SplineSet
359 441 m 0xe0
 359 485.824 413.912 495 441 495 c 0
 481 495 493 469 498 469 c 1
 518 477 521 494 528 532 c 0
 531 546 531 548 526 555 c 0
 518 566 512 568 490 574 c 1
 488 574 l 2
 481 574 470 567 451 567 c 0
 443 567 433 569 421 573 c 0
 356 597 355 651 323 665 c 0
 316 669 308 670 300 670 c 0
 290 670 280 668 272 668 c 0
 271 668 270 668 269 668 c 0
 268 667 263 660 259 653 c 1
 271 650 291 640 314 618 c 0
 324 608 347 588 347 561 c 0
 347 554 346 547 343 540 c 0
 324 494 278 467 230 467 c 0
 216 467 201 469 187 474 c 0
 139 491 142 547 137 556 c 2
 113 608 l 2
 111 614 110 619 112 624 c 0
 123 666 135 700 172 738 c 0
 176 742 181 745 187 746 c 0
 219 750 244 759 282 759 c 2
 293 759 l 1xd0
 368 756 414 741 481 715 c 0
 537 693 544 659 574 659 c 0
 623 659 634 716 711 739 c 0
 726 744 746 753 769 753 c 0
 782 753 795 750 809 742 c 0
 851 717 842 673 849 655 c 0
 853 643 852 636 841 628 c 0
 795 592 746 598 724 588 c 1
 695 541 674 512 671 499 c 1
 683 499 716 493 720 492 c 0
 734 487 738 482 740 468 c 0
 740 467 748 455 748 438 c 0
 748 428 745 415 733 404 c 0
 718 390 701 385 686 385 c 0
 660 385 639 398 637 398 c 1
 572 283 593 253 495 10 c 0
 494 8 493 5 491 3 c 0
 436 -61 408 -109 341 -165 c 1
 295 -219 257 -236 203 -252 c 0
 186 -257 171 -259 156 -259 c 0
 100 -259 62 -226 23 -191 c 1
 11.4976 -182.373 11 -156.21 11 -139 c 0
 11 -114 17 -89 31 -68 c 0
 36 -62 41 -58 49 -57 c 0
 64 -55 81 -46 106 -46 c 0
 164.392 -46 191.47 -88.8372 218 -109 c 0
 232 -120 235 -126 235 -130 c 0
 235 -132 234 -133 234 -135 c 0
 234 -138.821 238.697 -146 241 -146 c 0
 246 -146 247 -130 254 -100 c 0
 254 -96 256 -93 258 -90 c 0
 278 -62 302 5 311 74 c 0
 312 76 312 78 313 81 c 0
 348 152 365 194 404 266 c 0
 428 312 454 320 455 348 c 1
 455 356 l 2
 455 369 453 386 444 386 c 0
 442 386 440 385 437 383 c 0
 433 380 426 378 419 378 c 0
 395 378 361 394 359 438 c 0
 359 439 359 440 359 441 c 0xe0
EndSplineSet
Validated: 1
EndChar

StartChar: K
Encoding: 75 75 342
Width: 778
VWidth: 1080
Flags: W
HStem: 0 113<420.656 506.71> 10 120<311.049 369.163> 625 130<254.356 327> 639 101<535.562 579.805 803.956 907.193>
VStem: 17 371<12.5156 111.37> 628 291<651.529 739.924>
LayerCount: 2
Fore
SplineSet
507 97 m 1x9c
 508 98 509 98 509 100 c 0
 509 106 501 119 501 135 c 1
 383 277 446 257 391 291 c 1
 367 283 l 1
 345 198 308 171 308 142 c 0
 308 138 309 133 311 128 c 1
 312 129 316 130 322 130 c 0
 336 130 362 124 380 94 c 0
 386 85 388 76 388 67 c 0
 388 48 378 33 377 29 c 0
 375 19 371 13 360 10 c 0x4c
 330 -0 296 -3 260 -3 c 0
 209 -3 155 0 105 0 c 2
 71 0 l 2
 66 0 60 1 55 0 c 1
 34 2 30 5 27 24 c 0
 26 30 17 46 17 67 c 0
 17 79 21 93 33 107 c 0
 54 130 80 136 103 136 c 0
 124 136 143 131 150 131 c 2
 152 131 l 1
 206 201 151 243 225 386 c 1
 286 585 316 620 327 625 c 1
 254 625 l 1xac
 234 630 229 632 229 652 c 0
 230 681 242 716 259 740 c 0x1c
 264 747 269 750 277 751 c 0
 300 754 325 755 350 755 c 0x2c
 421 755 496 747 547 747 c 0
 551 747 555 747 559 747 c 0
 575 746 581 742 585 727 c 0
 587 720 588 710 588 700 c 0
 588 680.588 580.695 646.232 559 639 c 1
 483 619 l 1
 457 586 468 556 433 443 c 1
 433 415 l 1
 446 444 500 509 667 633 c 1
 636 662 628 679 628 693 c 0
 628 706 635 716 637 730 c 0
 639 740 643 745 653 749 c 0
 672 756 692 758 711 758 c 0
 765 758 821 740 865 740 c 0
 873 740 879 741 886 742 c 1
 907 741 910 739 915 719 c 1
 915 719 919 710 919 697 c 0
 919 689 917 679 912 669 c 0
 899 643 870 639 850 639 c 0
 840 639 832 640 829 640 c 2
 827 640 l 1
 780 599 749 549 685 499 c 1
 624 437 562 392 537 365 c 1
 539 250 620 233 687 127 c 1
 691 129 702 133 717 133 c 0
 730 133 746 129 758 118 c 0
 772 105 776 90 776 76 c 0
 776 53 765 31 765 24 c 1
 760 7 758 0 743 0 c 2
 735 0 l 1
 706 4 667 6 626 6 c 0
 555 6 475 1 425 0 c 1
 402 5 400 7 399 29 c 0
 399 31 397 39 397 50 c 0
 397 65 401 84 420 99 c 0
 434 109 447 113 458 113 c 0
 483 113 501 97 507 97 c 1x9c
EndSplineSet
Validated: 1
EndChar

StartChar: L
Encoding: 76 76 343
Width: 622
VWidth: 1080
Flags: W
HStem: 0 129<43.0112 113.851> 7 105<268.877 456.946> 635 125<464.192 531.242> 653 106<199.617 288.999> 665 93<198.75 255.339>
LayerCount: 2
Fore
SplineSet
184 411 m 1x80
 222 493 250 535 279 616 c 0
 285 631 288 647 289 652 c 0
 289 653 288 653 286 653 c 0x90
 281 653 272 650 256 650 c 0
 242 650 222 653 196 665 c 1
 183 673 180 679 183 693 c 1
 201 742 l 2
 206 753 212 758 224 758 c 0x08
 241 759 255 759 267 759 c 0x10
 302 759 321 757 336 757 c 0
 345 757 353 758 362 760 c 0
 364.8 760.6 367.48 760.84 370.08 760.84 c 0
 380.48 760.84 389.6 757 400 757 c 0
 416 757 434 760 454 760 c 0
 482 760 514 754 544 728 c 0
 550 722 553 716 552 707 c 1
 552 707 555 700 555 690 c 0
 555 680 552 667 538 655 c 0
 521 640 504 635 490 635 c 0
 478 635 468 639 464 644 c 1
 427 588 451 568 382 408 c 1
 271 141 l 1
 272 134 268 140 269 131 c 0
 270 116 282 112 300 112 c 0
 319 112 344 116 371 116 c 0
 401 116 420 125 453 132 c 1
 497 151 478 184 572 264 c 0
 579 269 585 271 593 270 c 2
 629 264 l 1
 643 260 649 256 650 242 c 1
 650 226 l 2
 650 159 628 86 592 33 c 0
 589 29 585 26 579 24 c 0
 533 9 491 6 448 6 c 0
 420 6 391 7 360 7 c 2
 331 7 l 1x60
 265 5 213 0 157 0 c 0
 121 0 84 1 41 8 c 1
 25 13 20 17 20 33 c 0
 20 38 14 52 14 68 c 0
 14 82 18 97 33 111 c 0
 48 125 66 129 80 129 c 0
 97 129 111 124 114 122 c 1
 133 215 97 215 184 411 c 1x80
EndSplineSet
Validated: 1
EndChar

StartChar: M
Encoding: 77 77 344
Width: 954
VWidth: 1080
Flags: W
HStem: 0 129<282 343.862> 3 152<54.5989 132.807> 7 125<617.54 723.45> 19 113<617.54 705.827> 605 137<1038 1103> 616 129<199.752 315.382> 626 119<222.577 323.507>
VStem: 388 179<278.984 459.907> 403 476<123.142 225.502>
LayerCount: 2
Fore
SplineSet
798 7 m 2x2080
 787 7 l 1
 777 8 767 8 758 8 c 0
 741 8 724 7 707 7 c 0x2080
 682 7 656 9 626 19 c 0x1080
 615 23 610 28 609 39 c 0
 609 42 599 55 599 73 c 0
 599 83 603 94 613 105 c 0
 632 126 656 132 676 132 c 0
 698 132 715 125 716 125 c 0
 736 194 735 227 806 423 c 1
 810 448 815 468 818 486 c 1
 809 468 809 433 669 288 c 1
 611 194 588 123 513 40 c 0
 508 35 502 32 494 32 c 2
 446 32 l 1
 432 33 426 37 422 49 c 0
 406 100 403 136 403 167 c 0
 403 194 405 217 405 242 c 0
 405 254 405 266 403 279 c 0x2080
 392 353 388 395 388 419 c 0
 388 451 394 452 394 456 c 0
 394 457 393 458 392 460 c 1
 365 383 409 470 316 222 c 1
 303 168 282 151 282 130 c 0
 282 128 282 126 283 123 c 1
 286 123 300 129 316 129 c 0
 329 129 343 125 355 113 c 0
 367 100 376 85 376 70 c 0
 376 58 371 46 358 34 c 0
 332 9 303 0 275 0 c 0x81
 246 0 219 9 198 9 c 0
 181 9 156 3 128 3 c 0
 100 3 70 9 44 34 c 0
 28 49 22 65 22 81 c 0
 22 101 32 121 50 137 c 0
 66 151 86 155 102 155 c 0
 117 155 129 152 133 150 c 1
 145 199 131 209 189 347 c 1
 291 554 l 2
 305 583 315 592 320 613 c 0
 322 622 323 623 324 623 c 1
 322 625 320 626 316 626 c 0x43
 303 626 278 616 252 616 c 0
 234 616 215 621 199 637 c 0
 187 649 183 664 183 677 c 0
 183 697 191 714 191 717 c 0
 193 732 196 738 212 740 c 0
 233 743 251 745 267 745 c 0
 309 745 334 736 357 736 c 0
 363.935 736 373.629 739.124 380 737 c 0
 384 736 389 736 393 736 c 0
 417 736 447 746 480 746 c 0
 500.504 746 549.795 739.616 558 715 c 0
 570 674 573 639 573 608 c 0
 573 560 565 519 565 472 c 0
 565 461 566 449 567 437 c 0x05
 567 435 567 432 566 430 c 0
 553 382 552 298 545 278 c 1
 637 348 666 459 673 466 c 0
 762 557 777 635 834 724 c 0
 844 738 871 741 900 741 c 0
 920 741 941 739 957 739 c 0
 966.455 739 973.667 740 982 740 c 1
 985 739 989 739 993 739 c 0
 1006 739 1021 742 1041 742 c 0
 1057 742 1075 740 1097 734 c 1
 1111 729 1115 724 1115 711 c 0
 1115 703 1121 688 1121 671 c 0
 1121 657 1117 642 1103 627 c 0
 1087 609 1056 605 1042 605 c 2
 1038 605 l 1
 1039 598 1039 592 1039 586 c 0
 1039 521 1001 545 922 305 c 1
 901.596 236.986 879 210.173 879 139 c 0
 879 126 880 116 880 110 c 1
 883 110 897 118 914 118 c 0
 925 118 937 115 947 103 c 0
 957 92 961 80 961 68 c 0
 961 52 953 36 940 24 c 0
 918 5 895 -0 872 -0 c 0x8880
 845 -0 819 7 798 7 c 2x2080
EndSplineSet
Validated: 1
EndChar

StartChar: N
Encoding: 78 78 345
Width: 763
VWidth: 1080
Flags: W
HStem: 0 157<59.0218 165.852> 8 159<327.095 397.965> 623 143<242.55 311.859> 633 135<666.798 753.758 905.056 975.603> 644 123<877.695 937.159>
VStem: 650 342<656.657 756.999>
LayerCount: 2
Fore
SplineSet
339 167 m 0x4c
 366.867 167 429 146.348 429 92 c 0
 429 58 399 35 394 24 c 0
 387 11 377 8 353 8 c 0x4c
 332 8 301 10 253 10 c 0
 236 10 216 10 194 9 c 1
 189 9 l 1
 185 10 181 10 177 10 c 0
 151 10 121 0 87 0 c 0
 70 0 51 2 32 11 c 1
 19 20 16 25 19 39 c 0
 24 59 14 97 50 128 c 0
 77 152 109 157 133 157 c 0
 150 157 163 154 166 154 c 1
 184 236 191 294 241 448 c 1
 270 543 266 556 310 615 c 1
 312 625 l 1
 309 624 305 623 299 623 c 0
 286 623 265 627 228 641 c 1
 215 648 212 654 212 668 c 1
 224 733 l 1
 227 743 231 748 241 752 c 0
 274 762 311 766 347 766 c 0xa4
 391 766 435 761 474 756 c 0
 480 756 484 754 489 750 c 0
 568 674 554 617 596 517 c 0
 623 455 639 406 649 371 c 1
 654 403 666 445 688 487 c 1
 708 537 722 564 739 615 c 0
 747 640 759 643 754 642 c 0
 749 641 734 633 715 633 c 0
 701 633 683 638 666 656 c 0
 653 670 650 685 650 698 c 0
 650 713 654 726 654 732 c 0
 655 746 658 753 672 757 c 0
 699 766 723 768 746 768 c 0x14
 770 768 793 766 818 766 c 2
 841 766 l 1x24
 850 765 858 764 866 764 c 0
 888 764 909 767 931 767 c 0x0c
 939 767 946 767 954 766 c 1x24
 968 762 974 758 976 744 c 0
 977 738 992 717 992 692 c 0
 992 679 988 665 975 652 c 0
 963 639 949 635 938 635 c 0
 920 635 906 644 905 644 c 0
 835 600 877 589 807 414 c 1
 767 299 788 169 696 30 c 0
 691 22 685 19 675 18 c 0
 671 18 658 12 642 12 c 0
 631 12 619 15 607 22 c 0
 547 59 555 117 538 159 c 0
 501 247 489 298 460 381 c 1
 436 433 422 470 415 496 c 1
 415 447 383 341 374 314 c 0
 355 258 338 232 330 181 c 0
 328 172 327 167 327 165 c 1
 329 166 333 167 339 167 c 0x4c
EndSplineSet
Validated: 1
EndChar

StartChar: O
Encoding: 79 79 346
Width: 754
VWidth: 1080
Flags: W
HStem: -4 75<319.418 467.328> 682 83<483.625 613.405>
VStem: 79 139<181.862 428.458> 689 129<345.793 579.838>
LayerCount: 2
Fore
SplineSet
371 736 m 0
 374 736 384 645 384 629 c 9
 344 587 315 569 282 521 c 24
 256 483 253 456 234 414 c 17
 225 366 218 326 218 287 c 0
 218 249 225 211 246 168 c 9
 287 133 299 95 350 77 c 16
 362 73 372 71 383 71 c 0
 394 71 406 73 420 77 c 8
 495 97 535 128 588 185 c 24
 635 235 648 277 666 343 c 16
 679 394 689 434 689 476 c 0
 689 503 685 531 676 563 c 8
 663 608 649 637 610 664 c 16
 592 677 576 682 556 682 c 0
 550 682 544 682 538 681 c 0
 488 676 471 644 454 636 c 1
 449 635 445 635 442 635 c 0
 434 635 427 636 418 636 c 1
 415 639 396 703 396 734 c 0
 396 743 398 749 402 750 c 0
 430 755 459 763 491 763 c 2
 501 763 l 1
 512 765 521 765 530 765 c 0
 577 765 608 746 646 726 c 0
 647 726 648 725 649 725 c 0
 692 694 744 679 777 619 c 0
 808 563 818 513 818 462 c 0
 818 422 812 382 804 338 c 0
 787 254 757 202 702 136 c 0
 662 89 627 68 574 40 c 0
 521.906 11.7202 454.801 -4 381 -4 c 0
 356 -4 330 -1 300 6 c 0
 238.55 20.5813 213.806 50.5968 169 73 c 1
 99 134 91 189 79 285 c 1
 79 287 l 1
 78 311 76 333 76 354 c 0
 76 391 80 425 92 469 c 0
 108 529 122 573 169 623 c 0
 226 683 279 701 350 730 c 0
 361 734 367 735 371 736 c 0
EndSplineSet
Validated: 1
EndChar

StartChar: P
Encoding: 80 80 347
Width: 613
VWidth: 1080
Flags: W
HStem: 9 123<259.932 364.388> 321 118<362.048 469.438> 635 124<196.35 267.926 432.582 521.571>
VStem: 538 197<504.305 619.437>
LayerCount: 2
Fore
SplineSet
538 556 m 0
 538 598.598 518.817 635 475 635 c 0
 465 635 457 632 445 624 c 0
 413 602 420 571 394 521 c 1
 384 480 362 449 362 440 c 1
 363 439 366 439 369 439 c 0
 381 439 406 444 435 444 c 0
 446 444 458 443 470 441 c 1
 491 461 501 462 510 477 c 0
 528 509 538 531 538 556 c 0
215 632 m 0
 184.357 632 163 654.213 163 679 c 0
 163 692 169 705 174 714 c 0
 191 743 222 746 230 751 c 0
 240 757 261 759 285 759 c 0
 317 759 356 756 385 756 c 2
 415 756 l 2
 443 756 468 759 495 759 c 0
 520 759 547 756 578 745 c 0
 639 723 695 701 724 634 c 0
 732 617 735 601 735 585 c 0
 735 551 719 520 707 490 c 0
 657 366 573 347 551 336 c 0
 513 318 478 314 448 314 c 0
 410 314 378 321 356 321 c 0
 351 321 346 321 342 320 c 1
 335 287 338 270 316 205 c 0
 304 169 259 144 259 119 c 1
 279 122 292 132 320 132 c 0
 336 132 352 127 365 114 c 0
 376 102 379 90 379 78 c 0
 379 55 366 35 365 30 c 0
 361 14 357 9 339 9 c 0
 293 8 273 0 238 0 c 0
 223.039 0 199.517 5 181 5 c 0
 159 5 139 3 119 3 c 0
 93 3 67 6 38 19 c 1
 28 25 24 30 24 40 c 0
 24 47 15 63 15 82 c 0
 15 94 18 107 29 120 c 0
 45 140 67 143 80 143 c 0
 87 143 91 142 91 142 c 1
 143 229 121 251 197 438 c 1
 268 677 252 608 269 645 c 1
 246 635 229 632 215 632 c 0
EndSplineSet
Validated: 1
EndChar

StartChar: Q
Encoding: 81 81 348
Width: 765
Flags: W
HStem: -265 131<808.251 1032.82> -64 109<110.201 187.719> 0 125<239.013 345.011> 81 90<109.738 183.28> 263 108<321.757 434.989> 671 108<448.248 624.121>
VStem: 137 168<388.102 529.018> 445 120<378.804 428> 697 171<461.074 600.751>
LayerCount: 2
Fore
SplineSet
394 371 m 0xaf80
 438.453 371 438.597 400.389 445 426 c 1
 445 428 l 1
 415 429 401 463 401 488 c 2
 401 490 l 2
 401 513 420 559 477 559 c 0
 510 559 565 538 565 470 c 0
 565 391 537 355 523 338 c 0
 460 264 395 263 363 263 c 0
 285 263 200 319 167 359 c 0
 162 366 137 395 137 450 c 0
 137 494 159 531 177 561 c 2
 189 581 l 2
 235.147 657.912 296.113 722.505 403 747 c 0
 497.1 768.564 561 779 600 779 c 0
 673 779 760 754 807 716 c 0
 856 676 868 601 868 564 c 0
 868 506 823 373 769 319 c 1
 713 266 l 1
 580 134 446 62 446 62 c 1
 457 59 472 55 485 48 c 1
 505 39 689 -40 732 -69 c 0
 776 -98 836 -134 899 -134 c 0
 920 -134 971 -125 1003 -123 c 1
 1043 -114 1094 -71 1116 -61 c 0
 1119 -60 1122 -59 1124 -59 c 0
 1130 -59 1137 -62 1156 -69 c 0
 1180 -77 1187 -92 1187 -108 c 2
 1187 -115 l 2
 1187 -168 1154 -205 1051 -239 c 1
 1009 -257 966 -265 922 -265 c 0
 906 -265 752.117 -250.699 681 -223 c 0
 551.214 -172.451 460 -118 441 -102 c 2
 379 -52 l 1
 360 -38 335 0 292 0 c 0xaf80
 234 0 228 -64 126 -64 c 0
 70 -64 8 -12 8 52 c 0
 8 134 90 171 136 171 c 0xdf80
 174 171 293 125 313 125 c 1
 324 127 441 169 555 272 c 0
 635 345 657.822 370.062 680 434 c 0
 693.888 474.039 697 501 697 518 c 0
 697 626 609 671 543 671 c 0
 514 671 464 664 428 637 c 2
 402 617 l 2
 398 613 392 609 383 602 c 2
 365 589 l 2
 347 576 309 545 305 465 c 1
 305 445 l 2
 305 424 309 409 317 398 c 0
 332 376 378 371 394 371 c 0xaf80
127 81 m 1xdf80
 124 80 125 82 109 63 c 1
 136 45 148 45 161 45 c 0
 175 46 181 49 189 53 c 1
 175 69 165 80 159 81 c 1
 127 81 l 1xdf80
EndSplineSet
Validated: 1
EndChar

StartChar: R
Encoding: 82 82 349
Width: 697
VWidth: 1080
Flags: W
HStem: 0 144<295.086 355.998> 4 128<33.7998 143.148> 6 152<597.891 663.558> 655 110<243.981 297.906> 669 94<475.19 552.251>
VStem: 17 356<10.6895 108.39> 573 172<492.052 650.741>
LayerCount: 2
Fore
SplineSet
210 9 m 0x86
 196.929 9 181.764 5 168 5 c 1
 159 6 150 7 141 7 c 0
 118 7 96 4 73 4 c 0
 65 4 57 4 49 5 c 0
 33 9 29 14 27 29 c 0
 26 34 17 50 17 70 c 0
 17 82 21 96 33 109 c 0
 50 127 71 132 88 132 c 0
 109 132 125 125 127 125 c 1
 179 205 152 243 226 407 c 1
 241 465 245 506 268 572 c 0
 282 610 298 618 299 637 c 0
 300 652 299 652 298 653 c 0
 296 654 294 655 292 655 c 0
 281 655 264 646 243 646 c 0
 228 646 212.066 650.076 195 665 c 0
 180.058 678.066 177 695 177 707 c 0
 177 714 178 720 178 723 c 0
 176 732 178 739 184 745 c 0
 200 761 226 765 257 765 c 0x56
 292 765 333 760 375 760 c 0
 391 760 407 761 422 763 c 1
 429 763 l 1
 493 756 539 766 610 743 c 0
 648 730 690 722 718 677 c 0
 737 646 745 615 745 585 c 0
 745 556 738 527 725 497 c 0
 702 442 660 423 621 395 c 0
 593 376 574 375 558 364 c 0
 529 345 522 346 520 339 c 0
 520 337 519 335 519 333 c 0
 519 315 539 307 558 269 c 1
 589 211 586 179 623 153 c 1
 625 153 635 158 649 158 c 0
 662 158 677 154 689 136 c 0
 697 123 701 110 701 98 c 0
 701 46.6897 649.733 6 600 6 c 0x2e
 585 6 570 9 556 15 c 0
 491 42 480.112 97.0524 459 142 c 0
 433.137 197.064 386 231 386 308 c 2
 386 322 l 2
 386 330 388 320 368 315 c 0
 352 312 340 288 326 276 c 1
 318 178 294 172 294 147 c 2
 294 143 l 1
 296 144 299 144 303 144 c 0x86
 318 144 344 138 361 116 c 0
 370 104 373 92 373 80 c 0
 373 57 360 37 359 27 c 0
 357 16 353 10 342 6 c 0x26
 330 2 317 0 305 0 c 0
 275 0 243 9 210 9 c 0x86
378 404 m 1
 381 404 412 418 447 424 c 0
 491 432 513 439 536 468 c 0
 562 501 573 530 573 565 c 0
 573 580 571 597 567 615 c 0
 563 639 556 650 535 662 c 0
 527 667 522 669 516 669 c 0x0e
 512 669 508 668 503 666 c 0
 474 655 467 636 444 597 c 0
 421 558 421 532 404 481 c 1
 381 452 393 426 378 404 c 1
EndSplineSet
Validated: 1
EndChar

StartChar: S
Encoding: 83 83 350
Width: 449
VWidth: 1080
Flags: W
HStem: 0 116<221.578 330.365> 642 121<313.34 405.23>
VStem: 36 155<118 276.691> 44 147<147.265 273.55> 145 144<504.205 617.763> 346 134<134.077 276.346> 431 128<510.266 596.812>
LayerCount: 2
Fore
SplineSet
123 84 m 1xcc
 120 84 105 76 86 76 c 0
 73 76 58 80 44 95 c 0xd4
 38 102 36 112 36 124 c 0xe0
 36 150 44 183 44 208 c 0
 44 211 44 214 44 217 c 0xd0
 44 219 57 300 85 344 c 0
 91 353 106 360 124 360 c 0
 146 360 172.98 349.986 192 323 c 0
 203.988 305.991 208 290 208 275 c 0
 208 244 191 217 191 196 c 0
 191 193 192 189 193 186 c 0
 207 150 220 132 253 118 c 0
 257 117 261 116 267 116 c 0
 290 116 325.98 128.011 330 135 c 0
 340.946 154.031 346 172 346 190 c 0xe4
 346 216 336 243 323 278 c 0
 300 336 221.086 347.034 186 435 c 0
 180.015 450.006 145 506 145 568 c 0
 145 590 149.014 613.992 162 637 c 0
 193.033 691.981 229 729 293 751 c 0
 318 759 341 763 364 763 c 0
 396 763 427 755 460 740 c 0
 515 714 525 672 553 643 c 0
 557 638 559 633 559 626 c 0
 557 571 544 516 522 480 c 1
 515 471 508 468 496 468 c 1
 457 474 l 2
 443 477 437.026 481.004 435 494 c 0
 432.038 513.006 431 527 431 538 c 0xca
 431 565 437 575 437 585 c 0
 437 589 436 593 434 597 c 1
 417 613 411 627 398 633 c 0
 384 639 374 642 365 642 c 0
 358 642 352 641 344 638 c 0
 313 626 299 610 291 578 c 0
 289 572 289 567 289 562 c 0
 289 544 297 530 312 502 c 0
 347 435 426.663 419.871 463 325 c 0
 474.89 293.958 480 266 480 238 c 0
 480 209 474 180 463 147 c 0
 445 94 425 47 365 18 c 0
 337 4 309 0 282 0 c 0
 253 0 224.04 5.10183 194 17 c 0
 143.068 37.1726 141 76 123 84 c 1xcc
EndSplineSet
Validated: 1
EndChar

StartChar: T
Encoding: 84 84 351
Width: 660
VWidth: 1080
Flags: W
HStem: 6 113<418.239 479.244> 7 135<180.995 274.755> 472 20G<259 275.5> 601 133<577.571 649.111> 610 124<570.174 645.368> 632 109<313.425 438.763>
VStem: 102 218<387.748 480.609> 102 120<481.233 542.133>
LayerCount: 2
Fore
SplineSet
710 763 m 0x31
 755.65 763 793 725.597 793 686 c 0
 793 630.938 739.745 619.878 712 611 c 0
 687 603 665 601 647 601 c 0x31
 612 601 589 610 577 610 c 1
 562 582 574 531 531 420 c 1
 509 357 498 319 474 254 c 0
 450 189 421 167 418 110 c 1
 423 114 434 119 447 119 c 0
 459 119 473 115 485 101 c 0
 493 91 496 81 496 72 c 0
 496 48 479 28 478 27 c 0
 473 10 461 6 440 6 c 0xa9
 422 6 398 9 365 9 c 0
 355 9 343 9 330 8 c 1
 325.663 5.83137 315.488 9 310 9 c 0
 296 9 280 7 261 7 c 0
 243 7 222 9 197 16 c 0
 185 20 181 25 179 36 c 0
 178 41 162 61 162 86 c 0
 162 98 166 112 179 124 c 0
 193 138 211 142 227 142 c 0
 250 142 270 134 275 130 c 1
 280 148 298 242 379 444 c 1
 403 499 423 524 435 575 c 0
 439 591 439 621 439 621 c 1
 434 622 425 632 398 632 c 0
 382 632 361 628 330 618 c 1
 297 606 286 590 256 556 c 0
 234 531 224 523 222 503 c 0x65
 221 489 223 486 229 481 c 1
 231 481 249 492 269 492 c 0
 282 492 297 487 309 470 c 0
 317 459 320 448 320 436 c 0x66
 320 391 265 346 207 346 c 0
 189 346 172 350 156 359 c 0
 109 384 108 430 103 465 c 0
 102 470 102 476 102 483 c 0
 102 526 119 598 199 671 c 0
 265 731 325 741 381 741 c 0x65
 413 741 444 738 473 738 c 2
 492 738 l 2
 535 738 565 734 598 734 c 0
 614 734 631 735 650 738 c 0
 658 739 677 763 710 763 c 0x31
EndSplineSet
Validated: 1
EndChar

StartChar: U
Encoding: 85 85 352
Width: 756
VWidth: 1080
Flags: W
HStem: -5 111<301.002 449.286> 603 147<827.004 882.295> 628 130<143.613 212.586 403.005 465.391> 628 122<599.752 695.466>
VStem: 85 170<150.863 324.291>
LayerCount: 2
Fore
SplineSet
126 695 m 0xa8
 126 740.295 168.052 758 204 758 c 0xa8
 235 758 261 744 281 744 c 0
 321 744 303 756 400 756 c 0
 415 756 433 756 454 755 c 0
 473 754 489 732 489 705 c 0
 489 678.538 461.722 626 420 626 c 0
 410 626 403 629 403 633 c 0
 403 634 403 634 404 635 c 1
 345 588 348 536 308 438 c 1
 283 373 271 338 264 271 c 0
 260.867 241.014 255 220 255 203 c 0
 255 190 258 179 266 166 c 0
 290 128 318 113 367 107 c 0
 373 106 378 106 383 106 c 0
 412 106 432 118 467 138 c 0
 512 165 530.827 187.106 559 233 c 0
 597.763 296.146 595 343 623 421 c 1
 657 536 675 551 696 611 c 1
 695 611 691 619 679 627 c 0
 678 628 676 628 674 628 c 0
 669 628 660 626 650 626 c 0
 634 626 615 630 599 650 c 0
 589 662 582 679 582 696 c 0
 582 713.926 592.689 741.738 614 746 c 0
 630 749 644 750 655 750 c 0
 693 750 708 737 732 737 c 0
 756 738 777 750 810 750 c 0x98
 817 750 825 749 834 748 c 0
 850 745 882 743 897 713 c 0
 903 702 906 690 906 678 c 0
 906 657 897 637 883 622 c 0
 868 607 851 603 839 603 c 0xc8
 832 603 827 604 827 606 c 1
 787 533 799 485 744 363 c 1
 711 284 698.872 227.104 638 152 c 0
 595.912 100.072 558 74 500 41 c 0
 476 28 424 -5 350 -5 c 0
 312 -5 268 4 219 28 c 1
 167 55 124 81 100 140 c 0
 89 165 85 188 85 210 c 0
 85 254 101 293 110 337 c 1
 127 431 154 480 183 565 c 1
 199 616 212 619 213 630 c 1
 210 630 200 628 188 628 c 0
 174 628 156 632 143 649 c 0
 131 665 126 680 126 695 c 0xa8
EndSplineSet
Validated: 1
EndChar

StartChar: V
Encoding: 86 86 353
Width: 603
VWidth: 1080
Flags: W
HStem: 636 117<162.609 237.896 432.146 506.294 720.852 769.924> 646 107<200.935 238 546.054 583.064>
LayerCount: 2
Fore
SplineSet
686 755 m 2x40
 699 755 l 2
 703 755 707 754 711 754 c 0
 728 754 748 758 771 758 c 0
 785 758 799 757 816 753 c 1
 828 748 832 743 834 731 c 0
 835 726 847 710 847 689 c 0
 847 678 843 665 832 653 c 0
 815 633 794 628 776 628 c 0
 757 628 743 634 742 634 c 0
 716 611 663 553 563 448 c 1
 471 357 415 312 330 218 c 0
 286 169 266 136 221 83 c 0
 203 63 196 18 144 0 c 0
 136 -2 111 -7 85 -7 c 0
 50 -7 13 1 13 33 c 0
 13 38 14 42 15 47 c 0
 46 165 71 180 99 258 c 0
 129 339 137.595 388.762 171 473 c 0
 198.977 543.551 238 567.14 238 646 c 1x40
 236 646 220 636 200 636 c 0
 188 636 175 639 162 651 c 0
 148 664 144 679 144 692 c 0
 144 706 148 718 148 721 c 0
 149 736 152 743 168 747 c 0
 188 752 206 753 223 753 c 0x80
 241 753 258 752 275 752 c 0
 289 752 303 753 317 756 c 0
 320 757 322 757 325 757 c 0
 334 756 343 756 351 756 c 0
 375 756 397 758 420 758 c 0
 444 758 468 756 497 747 c 1
 509 742 513 737 514 725 c 0
 514 724 522 710 522 694 c 0
 522 682 519 670 507 658 c 0
 492 643 473 638 458 638 c 0
 445 638 435 642 432 644 c 1
 425 626 392 535 360 466 c 1
 337 419 318 386 300 349 c 1
 323 379 348 409 390 444 c 1
 461 512 506.11 560.876 576 623 c 0
 585 631 584 640 584 646 c 1
 581 645 578 645 574 645 c 0
 564 645 552 648 543 660 c 0
 536 670 534 679 534 688 c 0
 534 708 545 724 545 727 c 0
 547 737 551 742 561 746 c 0
 586 756 606 759 624 759 c 0
 646 759 665 755 686 755 c 2x40
EndSplineSet
Validated: 1
EndChar

StartChar: W
Encoding: 87 87 354
Width: 940
VWidth: 1080
Flags: W
HStem: 612 139<134.198 201.623 1036.13 1146.46> 614 148<783.047 863.458> 627 124<165.839 213.977 380.476 473.295>
VStem: 892 275<631.271 736.247>
LayerCount: 2
Fore
SplineSet
385 753 m 0x30
 423.734 753 494 742.557 494 688 c 0
 494 674 489 658 474 642 c 0
 459 626 442 623 428 623 c 0
 420 623 414 624 409 624 c 0
 408 624 407 624 406 624 c 0
 404 623 401 623 398 623 c 0
 368 623 345 455 316 416 c 1
 294 354 286 344 266 272 c 1
 273 272 345.3 394.702 389 439 c 0
 462 513 520 541 566 626 c 0
 567 627 573 635 580 643 c 1
 578 643 576 643 574 643 c 0
 561 643 545 648 536 661 c 0
 530 670 527 679 527 688 c 0
 527 713 549 733 551 737 c 0
 558 758 591 762 627 762 c 0
 650 762 675 760 695 760 c 0
 712.387 760 740.012 763 751 763 c 0
 762 763 769 762 784 762 c 0
 795 762 810 763 835 764 c 1
 854 762 860 760 863 743 c 0
 865 729 884 703 884 674 c 0
 884 661 879.939 646.052 868 632 c 0
 851.917 613.07 835 608 821 608 c 0
 806 608 793 614 786 614 c 0x50
 785 614 784 614 783 613 c 0
 724 539 714 467 642 349 c 1
 626 318 575 254 575 248 c 1
 619 285 613.03 283.964 650 315 c 0
 812 451 917 593 917 593 c 1
 898 615 892 633 892 654 c 0
 892 673 897 694 901 722 c 1
 908 750 970 754 1003 754 c 0
 1026.92 754 1024.38 752 1043 752 c 0
 1061 752 1079 754 1097 754 c 0
 1104 754 1111 754 1118 753 c 0
 1130 752 1167 726 1167 686 c 0
 1167 665 1157 640 1126 612 c 0x90
 1122 608 1117 606 1111 605 c 1
 1049 605 l 1
 1004 559 1018 538 918 425 c 0
 918 424 918 424 917 423 c 2
 775 285 l 1
 705 220 661 192 600 128 c 1
 561 82 531 57 520 34 c 0
 517 29 514 25 509 22 c 0
 491 13 457 -5 424 -5 c 0
 404 -5 384 2 369 22 c 0
 365 26 364 31 364 36 c 0
 368 114 431 164 449 227 c 0
 449 228 449 229 450 230 c 2
 498 342 l 1
 515 387 526 412 533 427 c 1
 456 336 l 1
 299 155 l 2
 299 154 298 153 297 152 c 0
 249 113 242 104 192 34 c 0
 189 30 186 28 183 26 c 0
 158 14 128 0 98 0 c 0
 73 0 49 11 29 37 c 0
 26 41 24 45 24 50 c 0
 24 145 73 198 95 278 c 0
 104 309 159 415 191 520 c 0
 203 557 215 575 215 595 c 0
 215 608.023 208.217 627 202 627 c 0x30
 194 627 183 612 165 612 c 0x90
 156 612 146 615 133 625 c 0
 114 640 107 658 107 676 c 0
 107 698 118 718 128 725 c 0
 161 747 195 751 226 751 c 0
 243 751 260 750 275 750 c 0
 282 750 289 750 296 751 c 1
 300.42 753.21 312.215 750 318 750 c 0
 339 750 361 753 385 753 c 0x30
EndSplineSet
Validated: 1
EndChar

StartChar: X
Encoding: 88 88 355
Width: 759
VWidth: 1080
Flags: W
HStem: 0 126<444.545 556> 7 126<37.429 129.988> 646 118<278.425 360.757> 649 98<899.891 1009.34> 658 104<534.939 604.246> 664 86<870.18 954.156>
VStem: 19 348<14.6289 102.269>
LayerCount: 2
Fore
SplineSet
320 646 m 0x62
 293.423 646 259 663.266 259 694 c 0
 259 712 271 727 271 728 c 0
 272 735 275 740 281 744 c 0
 304 760 325 764 347 764 c 0x62
 377 764 410 756 454 754 c 1
 461 754 l 2
 486 754 517 762 548 762 c 0
 574 762 599 756 620 736 c 0
 627 728 629 722 625 712 c 1
 625 709 l 2
 625 703 623.94 687.08 605 673 c 0
 588.949 661.068 571 658 556 658 c 0x0a
 546 658 538 660 534 661 c 1
 534 647 546 522 565 510 c 1
 582 523 584 526 584 527 c 0
 584 530 592 542 684 619 c 1
 725 662 l 1
 699.05 665.053 675 677.829 675 704 c 0
 675 722 692 733 692 733 c 1
 699.561 751.903 731.792 757 753 757 c 0
 781 757 811 750 843 750 c 2
 853 750 l 1x06
 869 747 884 746 899 746 c 0
 918 746 937 747 955 747 c 0
 969 747 983 747 997 744 c 0
 1011 740 1015 735 1017 722 c 0
 1017 721 1024 710 1024 696 c 0
 1024 687 1021 676 1010 666 c 0
 996 653 981 649 966 649 c 0x12
 944 649 923 659 914 659 c 0
 908 659 903 661 898 664 c 1
 882 664 746 511 739 505 c 0
 684 459 643 452 618 406 c 0
 614 399 613 394 613 388 c 0
 613 382 614 374 615 363 c 0
 623 283 649 242 681 159 c 0
 691 131 703 119 703 110 c 0
 703 106.526 699.263 103.263 697 101 c 1
 698 101 709 109 721 109 c 0
 728 109 736 107 742 99 c 0
 749 90 752 81 752 73 c 0
 752 54 738 38 726 29 c 0
 701 9 676 4 652 4 c 0
 631 4 610 8 592 8 c 0
 587 8 583 7 579 7 c 1x46
 578 6 576 6 574 6 c 2
 564 6 l 2
 548 6 531 0 503 0 c 0x82
 488 0 469 4 446 7 c 1x42
 433 10 428 14 425 27 c 1
 419 77 l 1
 419 89 422 95 434 100 c 0
 480 119 513 126 536 126 c 0
 544 126 550 125 556 124 c 1
 514 206 547 178 493 251 c 1
 488 254 469 256 467 255 c 0
 317 85 356 160 314 115 c 1
 340.045 106.861 367 96.8295 367 66 c 0
 367 44 351 27 350 24 c 0
 345 7 325 0 292 0 c 0x82
 263.824 0 214.017 7 176 7 c 0x42
 135 7 99 2 62 0 c 1x82
 44 2 38 4 35 20 c 0
 34 27 19 46 19 69 c 0
 19 82 23 95 35 108 c 0
 52 128 75 133 93 133 c 0
 114 133 130 127 130 127 c 1
 171 175 201 196 303 273 c 1
 364 337 407 358 448 388 c 0
 449 389 449 390 449 392 c 0
 449 398 448 408 447 426 c 1
 391 526 401 512 361 655 c 1
 356 652 339 646 320 646 c 0x62
EndSplineSet
Validated: 1
EndChar

StartChar: Y
Encoding: 89 89 356
Width: 595
VWidth: 1080
Flags: W
HStem: 11 98<92.8892 178.952> 16 102<375.37 423.195> 509 21G<170 187.5> 621 153<690.029 854.469> 740 20G<320 364.5>
LayerCount: 2
Fore
SplineSet
914 640 m 1x30
 914 625 883 578 823 578 c 0
 806 578 788.021 581.049 767 590 c 0
 741.026 601.06 729 621 720 621 c 0
 663 616 650 570 598 511 c 1
 539 442 524 391 473 312 c 1
 379 124 390 180 374 118 c 1
 389 114 416 106 424 95 c 0
 430 86 432 77 432 69 c 0
 432 51 422 36 422 36 c 2
 418 24 413.993 18.0489 400 16 c 0x70
 339.969 7.2099 292 5 249 5 c 0
 196 5 153 9 108 11 c 1
 86 13 76 38 76 61 c 0
 76 77 81 92 92 97 c 0
 111 107 128 109 141 109 c 0
 157 109 168 106 174 106 c 0
 176 106 178 106 179 107 c 0
 227 187 238 256 273 376 c 1
 307 541 299 527 301 565 c 1
 264 576 l 1
 257 574 260 558 228 537 c 0
 220 531 203 509 172 509 c 0
 168 509 164 509 160 510 c 0
 122 518 112 556 110 559 c 0
 102 570 101 576 108 587 c 0
 184 694 184 672 206 695 c 2
 248 740 l 2
 256 748 296 760 344 760 c 0xa8
 385 760 430 751 464 723 c 0
 468 720 475 725 483 583 c 1
 501 600 527 621 561 646 c 1
 680 747 l 2
 682 749 740 774 808 774 c 0
 834 774 861 770 888 761 c 0
 898 757 903 752 904 742 c 2
 914 640 l 1x30
EndSplineSet
Validated: 1
EndChar

StartChar: Z
Encoding: 90 90 357
Width: 667
VWidth: 1080
Flags: W
HStem: 7 106<306.102 513.054> 484 21G<154.5 182.5> 652 104<296.07 479.58 480.009 495>
LayerCount: 2
Fore
SplineSet
340 647 m 1
 328 647 l 2
 314 647 296 643 270 589 c 0
 269 588 268 586 267 585 c 0
 256 571 275 587 240 514 c 0
 234 502 200 484 165 484 c 0
 144 484 122.061 491.049 107 510 c 0
 103.016 515.013 101 519 102 525 c 0
 111 589 126.131 593.941 146 638 c 0
 163.113 675.949 176 696 194 731 c 0
 198 737 202 740 208 743 c 0
 244 755 277 758 310 758 c 0
 339 758 367 756 397 756 c 0
 409 756 421 756 433 757 c 1
 437 757 l 1
 449 756 460 756 472 756 c 0
 521 756 567 763 618 763 c 0
 646 763 674 761 705 754 c 0
 717 751 722 746 724 735 c 0
 726 721 728 708 728 697 c 0
 728 644 706 622 704 620 c 0
 576 506 548 461 457 349 c 1
 394 263 341 230 305 144 c 0
 304 142 305 120 305 120 c 1
 329 115 321 113 365 113 c 0
 387 113 424 114 486 115 c 1
 542 137 528.1 215.8 633 268 c 0
 639.006 270.989 644 271 650 270 c 2
 680 265 l 1
 694 260 700 256 700 244 c 2
 700 239 l 1
 692 175 675 144 650 82 c 1
 628 34 l 2
 625 27 621 23 613 21 c 0
 575 9 539 6 503 6 c 0
 467 6 431 9 393 9 c 0
 377 9 361 8 345 7 c 1
 340 7 l 1
 314 10 294 11 275 11 c 0
 227 11 183 4 53 3 c 1
 35 6 31 10 28 26 c 1
 28 114 l 2
 28 120 30 125 34 129 c 0
 122 220 176 263 240 357 c 0
 240 358 241 359 242 360 c 0
 371 502 377 512 482 610 c 1
 485 625 495 639 495 644 c 1
 492 644 480 651 480 651 c 1
 471 650 464 650 458 650 c 0
 442 650 429 652 407 652 c 0
 391 652 371 651 340 647 c 1
EndSplineSet
Validated: 1
EndChar

